<svg id="Слой_1" xmlns="http://www.w3.org/2000/svg" viewBox="0 0 841.9 595.3"><style>.st0{fill:#ccf8ff}.st1,.st2{fill:none;stroke:#10ddff;stroke-width:3;stroke-miterlimit:10}.st2{stroke:#231f20;stroke-width:5}.st3{fill:#231f20}.st4{font-family:&apos;CambriaMath&apos;}.st5{font-size:24px}.st6,.st7,.st8{fill:none;stroke:#d125d6;stroke-width:3;stroke-miterlimit:10}.st7,.st8{stroke:#00aeef}.st8{stroke:#ec008c}</style><path class="st0" d="M645.2 287.3v-.7c-.1-2.3 0-4.6.1-6.9-.1-1.2-.2-2.3-.2-3.5-.1-1.9 0-3.7 0-5.6-.1-1.6-.2-3.1-.3-4.7-.1-2.7 0-5.4.1-8-.1-3.1 0-6.1.2-9.1-.1-1.8-.3-3.6-.3-5.4-.1-3.7 0-7.4.4-11V228c0-2.1 0-4.1.1-6.2l-.3-5.1c-.1-3.2 0-6.4.2-9.5 0-.7-.1-1.4-.1-2.1v-3.6c-.2-1.8-.3-3.7-.3-5.5-.1-3.1 0-6.2.2-9.2-.1-1.2-.2-2.5-.2-3.7-.2-4.8.1-9.4.8-13.9-.5-3.5-.8-7-1-10.5-2.9 1.4-5.8 2.6-8.8 3.6-6.8 5.1-14.5 9.1-22.4 11.8-5.8 5-12.4 9.2-19.3 12.4-5.1 4.5-10.8 8.3-16.8 11.4-3.5 3.7-7.4 7-11.5 9.9-1.4 1.8-3 3.6-4.6 5.3-1.8 2-3.7 3.9-5.8 5.7-1.5 2-3.2 3.9-4.9 5.7-2.1 2.3-4.4 4.5-6.7 6.6-2.6 5.3-6 10.2-9.9 14.7-3 5.9-6.8 11.3-11.4 16.2-2.4 6.5-5.5 12.5-9.6 18-2 6.6-4.8 12.7-8.5 18.3.1.1.1.2.2.3 4.4-.8 8.8-1.3 13.2-1.3 3.3 0 6.6.2 9.8.7 4.3-.8 8.6-1.3 12.9-1.3 3.3 0 6.5.3 9.7.7 3.8-.6 7.7-1 11.5-1 2.5 0 5 .1 7.4.4 1.3-.1 2.6-.1 3.9-.1 2.7 0 5.3.2 7.9.4 4.8-1 9.7-1.6 14.5-1.6 6.1 0 11.9.8 17.6 2.2 2.7-.3 5.5-.5 8.2-.5 3.3 0 6.6.2 9.8.7 2.4-.3 4.8-.4 7.2-.4h1.4c2-.5 4.1-.8 6.1-1.1-.1-.9-.1-1.7-.1-2.6-.5-2.1-.5-4.3-.4-6.5z"/><path class="st0" d="M614.2 218.7c0-.1 0-.1 0 0 .5-1.1.5-1.1 0 0z"/><path class="st1" d="M529 184.3v113.4"/><path class="st2" d="M55.6 297.6h728.6"/><path class="st3" d="M774.3 306.1l8.4-8.5-8.4-8.4h7.2l8.4 8.4-8.4 8.5z"/><path class="st2" d="M202 297.6V155.9M202 297.6v141.8M509 297.6v141.8M509 297.6V155.9"/><text transform="translate(215 447.98)" class="st4 st5">22.00</text><text transform="translate(523 447.98)" class="st4 st5">7.00</text><path class="st6" d="M11 152.6c14.6 2.3 44 6.9 82 12.7 52.7 7.9 63.3 9.1 74.5 19 13 11.5 9.4 19.3 26.1 91 4 17 11.5 46.8 26.8 106.3 5.6 21.8 8.4 32.7 9.8 35 39.9 64.9 237.6 42.1 262-24.1 1.6-4.2 3.8-17.4 8.3-43.8 4.4-25.6 5.2-35.2 10.5-66 1-5.8 1.3-7.6 6-33 12-65.3 11.8-64.9 12-65.5 6.4-22.4 54.3-45.7 247.3-44"/><path class="st7" d="M644.1 158.8l-.1 137.8"/><path class="st8" d="M-11.5 151.3c22.8 5.4 49.1 13.4 77.5 25.5 22.5 9.6 42.2 20 59 30 17.6 13.3 30.6 25.9 39.5 35.5 16.9 18.2 30.7 37.7 32.4 40.1.2.4 1.3 2 2.9 4.1 2.6 3.3 4.6 5.5 6.3 7.7 11.6 14.7 28 37.2 48.3 70.4 3 3.9 7.1 8.8 12.5 14 0 0 2.3 2.2 4.9 4.4 37 31.8 66.8 39.6 66.8 39.6 22.6 7.5 47.3 6.4 69.9-3.2 15.4-7.5 29.8-18.2 41.1-32.1 28.7-35.3 49.1-73.6 64.7-108.1 3.4-7.4 12.2-27.4 29.9-48.9 3.9-4.8 7.4-8.5 9.7-10.9 3.4-4 7.4-8.2 11.9-12.4 4.6-4.3 9.1-8.1 13.2-11.2 8.2-5.4 14.4-9.6 22.6-15 23.5-14.1 46.5-24.6 71.1-31.5 15.4-4.3 28.5-6.3 33.8-7.1 7.3-1 13.6-1.6 18.5-2"/></svg>