<svg id="Слой_1" xmlns="http://www.w3.org/2000/svg" viewBox="0 0 841.9 595.3"><style>.st0{fill:none;stroke:#231f20;stroke-width:5;stroke-miterlimit:10}.st1{fill:#231f20}.st2{font-family:&apos;CambriaMath&apos;}.st3{font-size:24px}.st4{fill:none;stroke:#ec008c;stroke-width:3;stroke-miterlimit:10}</style><path class="st0" d="M55.6 297.6h728.6"/><path class="st1" d="M774.3 306.1l8.4-8.5-8.4-8.4h7.2l8.4 8.4-8.4 8.5z"/><path class="st0" d="M271 297.6V155.9M271 297.6v141.8M583 297.6v141.8M583 297.6V155.9"/><text transform="translate(284 448)" class="st2 st3">1.00</text><text transform="translate(597 448)" class="st2 st3">11.00</text><path class="st4" d="M62 162.4c47.5-6.4 94.8 10.6 131.8 37.6 27.7 29 52.4 59 77.1 93 4 5.5 6.9 8.2 9.2 11 11.6 13.7 28 34.7 48.3 65.8 3 3.6 7.1 8.2 12.5 13.1 0 0 2.3 2.1 4.9 4.1 37 29.7 66.8 37 66.8 37 22.6 7 47.3 6 69.9-3 15.4-7 29.8-17 41.1-30 28.7-33 49.1-68.8 64.7-101 3.4-6.9 12.2-25.6 29.9-45.7 3.9-4.4 7.4-7.9 9.7-10.2 3.4-3.7 7.4-7.6 11.9-11.6 4.6-4.1 9.1-7.5 13.2-10.5 8.2-5 14.4-9 22.6-14 23.5-13.2 46.5-23 71.1-29.4 15.3-4 28.2-5.8 33.8-6.6 7.3-1 13.6-1.5 18.5-1.8"/></svg>