<svg xmlns="http://www.w3.org/2000/svg" viewBox="0 0 496.5 373.5"><title>page</title><path fill="none" stroke="#000" d="M.87 372.72L495.53 1.58M248.77 1.3l246.76 370.56"/><path fill="none" stroke="#000" stroke-width="1.5" d="M.75.75h495v372H.75zM248.25 1.25v372"/><path d="M248.88 42.36h246.48M248.88 83.59h246.48M248.88 124.81h246.48M248.88 166h246.48M248.88 207.25h246.48M248.88 248.48h246.48M248.88 289.7h246.48M248.88 330.92h246.48M470.36.78v371.14M442.61.78v371.14M414.86.78v371.14M387.11.78v371.14M359.36.78v371.14M331.62.78v371.14M303.87.78v371.14M276.12.78v371.14" fill="none" stroke="#0000c8"/><path fill="none" stroke="#ed1c24" stroke-width="2" d="M54.75 42.34h166.23v247.29H54.75zM276 42.34h166.22v247.29H276z"/><path d="M248.06 166.11a123.64 123.64 0 1 1-247.28 0 123.64 123.64 0 1 1 247.28 0z" fill="none" stroke="#000" stroke-linejoin="bevel" stroke-width="1.51"/><path fill="none" stroke="#000" d="M247.55 1.3L.79 371.86"/></svg>