<svg id="Слой_1" xmlns="http://www.w3.org/2000/svg" viewBox="0 0 841.9 595.3"><style>.st0,.st1{fill:none;stroke:#10ddff;stroke-width:3;stroke-miterlimit:10}.st1{stroke:#231f20;stroke-width:5}.st2{fill:#231f20}.st3{font-family:&apos;CambriaMath&apos;}.st4{font-size:24px}.st5{fill:none;stroke:#d125d6;stroke-width:3;stroke-miterlimit:10}</style><path class="st0" d="M529 184.3v113.4"/><path class="st1" d="M55.6 297.6h728.6"/><path class="st2" d="M774.3 306.1l8.4-8.5-8.4-8.4h7.2l8.4 8.4-8.4 8.5z"/><path class="st1" d="M202 297.6V155.9M202 297.6v141.8M509 297.6v141.8M509 297.6V155.9"/><text transform="translate(215 447.98)" class="st3 st4">22.00</text><text transform="translate(523 447.98)" class="st3 st4">7.00</text><path class="st5" d="M11 152.6c14.6 2.3 44 6.9 82 12.7 52.7 7.9 63.3 9.1 74.5 19 13 11.5 9.4 19.3 26.1 91 4 17 11.5 46.8 26.8 106.3 5.6 21.8 8.4 32.7 9.8 35 39.9 64.9 237.6 42.1 262-24.1 1.6-4.2 3.8-17.4 8.3-43.8 4.4-25.6 5.2-35.2 10.5-66 1-5.8 1.3-7.6 6-33 12-65.3 11.8-64.9 12-65.5 6.4-22.4 54.3-45.7 247.3-44"/></svg>