<svg id="Слой_1" xmlns="http://www.w3.org/2000/svg" viewBox="0 0 841.9 595.3"><style>.st0{fill:#ccf8ff}.st1,.st2{fill:none;stroke:#00aeef;stroke-width:3;stroke-miterlimit:10}.st2{stroke:#231f20;stroke-width:5}.st3{fill:#231f20}.st4{font-family:&apos;CambriaMath&apos;}.st5{font-size:24px}.st6{fill:none;stroke:#ec008c;stroke-width:3;stroke-miterlimit:10}</style><path class="st0" d="M719.2 289.7v-.6c-.1-2 0-4.1.1-6.1-.1-1-.1-2-.2-3.1-.1-1.7 0-3.3 0-4.9-.1-1.4-.2-2.7-.3-4.1-.1-2.4 0-4.7.1-7-.1-2.7 0-5.4.2-8-.1-1.6-.3-3.2-.3-4.7-.1-3.3 0-6.5.4-9.6v-3.9c0-1.8 0-3.6.1-5.4l-.3-4.5c-.1-2.8 0-5.6.2-8.4 0-.6-.1-1.3-.1-1.9v-3.2c-.1-1.6-.3-3.2-.3-4.8-.1-2.7 0-5.4.2-8.1-.1-1.1-.2-2.2-.2-3.3-.2-4.2.1-8.2.7-12.2-.5-3.1-.8-6.1-1-9.2-2.8 1.2-5.6 2.3-8.5 3.2-6.6 4.5-14 8-21.7 10.4-5.7 4.4-12 8.1-18.7 10.9-5 3.9-10.5 7.3-16.3 10-3.4 3.2-7.2 6.1-11.2 8.7-1.4 1.6-2.9 3.2-4.5 4.6-1.8 1.8-3.6 3.4-5.6 5-1.5 1.7-3.1 3.4-4.8 5-2 2-4.2 4-6.5 5.8-2.6 4.7-5.8 9-9.6 12.9-2.9 5.2-6.6 10-11.1 14.2-2.3 5.7-5.4 11-9.3 15.8-1.9 5.8-4.7 11.2-8.2 16 .1.1.1.2.2.3 4.3-.7 8.5-1.1 12.8-1.1 3.2 0 6.4.2 9.5.6 4.2-.7 8.4-1.1 12.5-1.1 3.2 0 6.3.2 9.4.6 3.7-.6 7.4-.9 11.1-.9 2.4 0 4.8.1 7.2.4 1.3-.1 2.5-.1 3.8-.1 2.6 0 5.1.1 7.6.4 4.7-.9 9.4-1.4 14.1-1.4 5.9 0 11.6.7 17 1.9 2.7-.3 5.3-.4 8-.4 3.2 0 6.4.2 9.5.6 2.3-.2 4.7-.4 7-.4h1.4c2-.4 4-.7 6-.9 0-.8-.1-1.5-.1-2.3-.4-1.8-.4-3.8-.3-5.7z"/><path class="st0" d="M689.1 229.4c.5-1 .5-.9 0 0z"/><path class="st1" d="M718.1 177.9l-.1 119.7"/><path class="st2" d="M55.6 297.6h728.6"/><path class="st3" d="M774.3 306.1l8.4-8.5-8.4-8.4h7.2l8.4 8.4-8.4 8.5z"/><path class="st2" d="M271 297.6V155.9M271 297.6v141.8M583 297.6v141.8M583 297.6V155.9"/><text transform="translate(284 448)" class="st4 st5">1.00</text><text transform="translate(597 448)" class="st4 st5">11.00</text><path class="st6" d="M62 162.4c47.5-6.4 94.8 10.6 131.8 37.6 27.7 29 52.4 59 77.1 93 4 5.5 6.9 8.2 9.2 11 11.6 13.7 28 34.7 48.3 65.8 3 3.6 7.1 8.2 12.5 13.1 0 0 2.3 2.1 4.9 4.1 37 29.7 66.8 37 66.8 37 22.6 7 47.3 6 69.9-3 15.4-7 29.8-17 41.1-30 28.7-33 49.1-68.8 64.7-101 3.4-6.9 12.2-25.6 29.9-45.7 3.9-4.4 7.4-7.9 9.7-10.2 3.4-3.7 7.4-7.6 11.9-11.6 4.6-4.1 9.1-7.5 13.2-10.5 8.2-5 14.4-9 22.6-14 23.5-13.2 46.5-23 71.1-29.4 15.3-4 28.2-5.8 33.8-6.6 7.3-1 13.6-1.5 18.5-1.8"/></svg>