<svg viewBox="0 0 343.183 326.23" xmlns="http://www.w3.org/2000/svg"><path d="m170.297 37.98v253.22" fill="none" stroke="#ddd" stroke-miterlimit="11.474" stroke-width=".8"/><path d="m304.3 487.98c59.47 0 108 16.13 108 36s-48.53 36-108 36-108-16.13-108-36 48.53-36 108-36zm0-253.73c59.47 0 108 16.13 108 36s-48.53 36-108 36-108-16.13-108-36 48.53-36 108-36zm1.08 131.91c59.47 0 108 16.12 108 36s-48.53 36-108 36-108-16.13-108-36 48.53-36 108-36z" fill="none" stroke="#1d1d1b" stroke-miterlimit="11.474" stroke-width="1.5" transform="translate(-134 -234)"/><path d="m304.3 289.98c59.47 0 108 16.13 108 36s-48.53 36-108 36-108-16.13-108-36 48.53-36 108-36z" fill="none" stroke="#bbb" stroke-miterlimit="11.474" stroke-width="1.5" transform="translate(-134 -234)"/><path d="m283.347 314.68a105.753 105.753 0 0 1 20.88-1.95c21.53 0 39.24 5.62 39.89 12.82" fill="none" stroke="#1d1d1b" stroke-miterlimit="11.474" stroke-width="2" transform="translate(-134 -234)"/><path d="m149.277 78.01-4.18 3.53 5.33 1.51z" fill="#1d1d1b" fill-rule="evenodd"/><path d="m169.797 92.48-31.68-16.48" fill="none" stroke="#1d1d1b" stroke-miterlimit="11.474" stroke-width="2"/><path d="m137.317 78.52-3.02-4.54 5.47-.22z" fill="#1d1d1b" fill-rule="evenodd"/><path d="m278.297 91.98-108.5.5" fill="none" stroke="#ddd" stroke-miterlimit="11.474" stroke-width=".8"/><path d="m412.3 271.76v253.23m-216-253.23v253.23" fill="none" stroke="#1d1d1b" stroke-miterlimit="11.474" stroke-width="1.5" transform="translate(-134 -234)"/><path d="m170.297 289.98v-193.68" fill="none" stroke="#1d1d1b" stroke-miterlimit="11.474" stroke-width="2"/><path d="m167.637 96.73 2.66-4.75 2.66 4.75z" fill="#1d1d1b" fill-rule="evenodd"/><text fill="#1d1d1b" font-family="Helvetica Neue" font-size="18" transform="translate(153.344 119.043)">L</text><text fill="#1d1d1b" font-family="Helvetica Neue" font-size="18" transform="translate(176.094 74.05)">H</text><text fill="#1d1d1b" font-family="Helvetica Neue" font-size="18" transform="translate(115.977 74.05)">S</text><g fill-rule="evenodd" stroke="#1d1d1b" stroke-miterlimit="11.474" stroke-width=".8" transform="translate(-134 -234)"><path d="m305.377 262.98a9 9 0 1 1 -9 9 9.046 9.046 0 0 1 9-9z" fill="#fff"/><path d="m304.3 514.98a9 9 0 1 1 -9 9 9.046 9.046 0 0 1 9-9z" fill="#1d1d1b"/><path d="m413.377 393.16a9 9 0 1 1 -9 9 9.046 9.046 0 0 1 9-9z" fill="#e30613"/><path d="m197.377 393.16a9 9 0 1 1 -9 9 9.046 9.046 0 0 1 9-9z" fill="#009fe3"/><path d="m252.457 361.98a8.965 8.965 0 1 1 -9 8.93 8.986 8.986 0 0 1 9-8.93z" fill="#009640"/><path d="m249.217 425.99a8.965 8.965 0 1 1 -9 8.93 8.986 8.986 0 0 1 9-8.93z" fill="#312783"/><path d="m360.387 362.99a8.965 8.965 0 1 1 -9 8.93 8.992 8.992 0 0 1 9-8.93z" fill="#ffed00"/><path d="m357.647 425.2a8.96 8.96 0 1 1 -9 8.92 8.984 8.984 0 0 1 9-8.92z" fill="#e6007e"/></g><g fill="#1d1d1b"><text font-family="Helvetica Neue" font-size="11" transform="translate(314.242 167.636)">Red</text><text font-family="Helvetica Neue" font-size="11" transform="translate(299.844 138.839)">Yellow</text><text font-family="Helvetica Neue" font-size="11" transform="translate(299.844 203.628)">Magenta</text><text font-family="Helvetica Neue" font-size="11" transform="translate(0 167.636)">Cyan</text><text font-family="Helvetica Neue" font-size="11" transform="translate(10.078 138.839)">Green</text><text font-family="Helvetica Neue" font-size="11" transform="translate(20.516 203.628)">Blue</text><text font-family="Helvetica Neue" font-size="11" transform="translate(191.859 30.855)">White</text><text font-family="Helvetica Neue" font-size="11" transform="translate(191.859 304.418)">Black</text></g></svg>