<svg width="481" height="351" viewBox="0 0 481 351" xmlns="http://www.w3.org/2000/svg"><title>Group 21</title><g fill="none" fill-rule="evenodd"><path fill="#FFF" d="M.807 350.25h480.001v-330H.807z"/><path stroke="#CED9E0" stroke-width="1.5" d="M479.808 350.25h-478v-330h478z"/><path fill="#404E60" d="M480.89 50.25H.725v-30H480.89z"/><path fill="#5C6C7A" d="M473.064 43.789h-16.731V27.058h16.731z"/><path fill="#8A9EA8" d="M463.32 38.135l-2.088-2.087v-2.953l2.087-2.086h2.952l2.087 2.087v2.952l-2.087 2.087zM473.064 43.789h-16.731l2.905-3.641h11.386z"/><path fill="#748899" d="M25.644 29.717l-8.386 8.386 2.492 2.492 10.878-10.878z"/><path fill="#9CB0BC" d="M18.253 34.114h-4.984l6.481 6.48 2.492-2.491z"/><path fill="#CED9E0" d="M473.735.25H8.084L.725 7.609V20.25h480.166V7.812z"/><path fill="#9CB0BC" d="M11.547 10.592l2.96-2.96 2.959 2.96-2.96 2.96zM22.465 10.592l2.96-2.96 2.96 2.96-2.96 2.96zM33.384 10.592l2.96-2.96 2.96 2.96-2.96 2.96z"/><path stroke="#60BBEF" stroke-width="1.5" d="M85.95 199.977h-1v-1"/><path d="M84.95 196.987v-90.523" stroke="#60BBEF" stroke-width="1.5" stroke-dasharray="1.99,1.99"/><path stroke="#60BBEF" stroke-width="1.5" d="M84.95 105.47v-1h1"/><path d="M87.989 104.47h88.67" stroke="#60BBEF" stroke-width="1.5" stroke-dasharray="2.038,2.038"/><path stroke="#60BBEF" stroke-width="1.5" d="M177.678 104.47h1v1"/><path d="M178.678 107.459v90.523" stroke="#60BBEF" stroke-width="1.5" stroke-dasharray="1.99,1.99"/><path stroke="#60BBEF" stroke-width="1.5" d="M178.678 198.977v1h-1"/><path d="M175.64 199.977H86.97" stroke="#60BBEF" stroke-width="1.5" stroke-dasharray="2.038,2.038"/><path fill="#CED9E0" d="M471.09 62.99v-6h8.717v6z"/><path fill="#E9EEF2" d="M59.192 350.25h25V50.249h-25zM228.308 350.25h25V50.249h-25zM397.423 350.25h25V50.249h-25z"/><path fill="#60BBEF" d="M84.453 114.976v-12h95.228v12z"/><path fill="#139BD1" d="M84.453 114.975v-12h12.086v12z"/><path fill="#3DAFE2" d="M84.454 120.811v-3h33.98l-.002 3zM120.933 120.811v-3h20.775v3z"/><path fill="#C697E8" d="M84.454 148.165v-12h28.186v12z"/><path fill="#A96AE5" d="M84.454 154v-3h12.085v3zM98.944 154v-3h20.775v3z"/><path fill="#C697E8" d="M422.478 180.994v-12h50.447v12z"/><path fill="#A96AE5" d="M422.478 186.827v-3h22.947v3zM447.354 183.825h16.82v3h-16.82z"/><path fill="#B1E53E" d="M190.578 214.082v-12h37.73v12z"/><path fill="#A1D11F" d="M190.578 219.916v-2.998h19.428v2.998z"/><path fill="#60BBEF" d="M122.282 180.99v-12h52.448v12z"/><path fill="#3DAFE2" d="M122.276 186.834v-3h29.067v3zM153.609 186.833v-3h14.533v3z"/><path fill="#60BBEF" d="M291.397 145.244v-12h52.448v12zM397.424 133.244h-53.579v12h53.58v-12zm-1.5 1.5v9h-50.579v-9h50.58z"/><path fill="#3DAFE2" d="M291.39 151.087v-3h29.067v3zM322.725 151.09v-3h42.961v3z"/><path fill="#60BBEF" d="M84.46 264.759v-12h52.449v12z"/><path fill="#3DAFE2" d="M84.454 270.602v-3h16.99v3zM103.788 270.604v-3h33.12v3z"/><path d="M179.681 252.757h-42.773v12h42.773v-12zm-1.5 10.5h-39.773v-9h39.773v9zM37.88 246.911v-12h21.626v12z" fill="#60BBEF"/><path fill="#3DAFE2" d="M37.875 252.759v-3h14.533v3zM55.208 252.759v-3h14.533v3z"/><path fill="#A1D11F" d="M212.889 216.92h25.403v2.998h-25.403z"/><path fill="#B1E53E" d="M179.681 282.607v-12h111.71v12z"/><path fill="#A6D32D" d="M228.308 282.606v-12h25v12z"/><path fill="#A1D11F" d="M179.681 288.439v-2.998h34.2v2.998zM215.991 288.44v-2.998h25.556v2.998z"/><g stroke="#CED9E0" stroke-width="1.5"><path d="M1.804 89.978H479.81M1.804 69.978H479.81"/></g><path fill="#AABFCE" d="M65.903 83.478v-6h11.578v6z"/><path fill="#CED9E0" d="M94.089 83.478v-6h11.578v6zM122.275 83.478v-6h11.578v6zM150.46 83.478v-6h11.579v6zM133.858 62.99v-6h44.794v6zM178.647 83.478v-6h11.578v6zM206.833 83.478v-6h11.578v6z"/><path fill="#AABFCE" d="M235.019 83.478v-6h11.578v6z"/><path fill="#CED9E0" d="M263.205 83.478v-6h11.578v6zM291.39 83.478v-6h11.579v6zM319.576 83.478v-6h11.578v6zM302.974 62.99v-6h44.794v6zM347.762 83.478v-6h11.578v6zM375.948 83.478v-6h11.578v6z"/><path fill="#AABFCE" d="M404.134 83.478v-6h11.578v6z"/><path fill="#CED9E0" d="M432.32 83.478v-6h11.578v6zM460.506 83.478v-6h11.578v6zM9.684 62.99v-6H.967v6zM49.454 83.478v-6H37.876v6zM21.268 83.478v-6H9.69v6z"/><path d="M354.51 291.292v23.947" stroke="#3DAFE2" stroke-width="1.5"/><path stroke="#AABFCE" stroke-width="1.5" d="M397.423 139.244h31.252v29.75M179.681 108.976h16.994v93.106"/><path stroke="#CED9E0" stroke-width="1.5" d="M112.64 142.165h19.428v26.825"/><path stroke="#AABFCE" stroke-width="1.5" d="M59.507 240.911h30.99v11.848M179.652 258.759h7.276v11.843M291.397 276.606h67.944v11.834"/><path fill="#3DAFE2" d="M367.953 299.916h-13.44v-7.973h13.44l-4.588 3.986z"/><path stroke="#3DAEE1" stroke-width="1.5" d="M367.953 299.916h-13.44v-7.973h13.44l-4.588 3.986z"/></g></svg>