<svg width="661" height="584" viewBox="0 0 661 584" xmlns="http://www.w3.org/2000/svg" xmlns:xlink="http://www.w3.org/1999/xlink"><view viewBox="92 420 92 92"/><svg data-name="Layer 1" viewBox="-1 -1 92 92" width="92" height="92" x="92" y="420"><title>icons-collaborate-calendar</title><path fill="#e7f3ff" d="M11.3 30.68h14v14h-14zm28.56 14h14v14h-14zm0 14h14v14h-14zM54.3 31.14h14v14h-14zM.8 9v12.6h78V9H.8z"/><path fill="none" stroke="#338fec" stroke-miterlimit="10" stroke-width="1.5" d="M.8 21.6h78"/><path fill="none" stroke="#b2c1d2" stroke-miterlimit="10" stroke-width="1.5" d="M.8 22.87v59.5"/><path fill="none" stroke="#338fec" stroke-miterlimit="10" stroke-width="1.5" d="M78.8 74.52V9H.8v74h69.51l8.49-8.48z"/><path fill="#fff" stroke="#338fec" stroke-miterlimit="10" stroke-width="1.5" d="M13.8 5.53h6v9h-6zm46.13 0h6v9h-6zm-23.07 0h6v9h-6z"/><path fill="none" stroke="#338fec" stroke-miterlimit="10" stroke-width="1.5" d="M11.3 30.68h57v42h-57zm-.5 14h57.5m-57.5 14h57.5M25.55 31.14v41.5m14.25-41.5v41.5m14.25-41.5v41.5"/><path fill="none" opacity=".4" d="M0 0h90v90H0z"/></svg><view viewBox="0 420 92 92"/><svg data-name="Layer 1" viewBox="-1 -1 92 92" width="92" height="92" y="420"><title>icons-collaborate-communication</title><path d="M61.9 8v42H15.66l-.88.88-4.88 4.88V50h-6V8h58m3-3H.9v48h6v10l10-10h48V5z" fill="#e7f3ff"/><path d="M77.9 30v42h-6v5.76l-4.88-4.88-.88-.88H19.9V30h58m3-3h-64v48h48l10 10V75h6V27z" fill="#e7f3ff"/><path fill="none" stroke="#338fec" stroke-miterlimit="10" stroke-width="1.5" d="M16.9 53l-10 10V53h-6V5h64v48h-48z"/><path fill="#e7f3ff" stroke="#338fec" stroke-miterlimit="10" stroke-width="1.5" d="M64.9 75l10 10V75h6V27h-64v48h48z"/><path fill="#fff" stroke="#338fec" stroke-miterlimit="10" stroke-width="1.5" d="M16.9 27h48v26h-48z"/><path fill="none" stroke="#338fec" stroke-miterlimit="10" stroke-width="1.5" d="M28.9 38h4v4h-4z"/><path fill="none" stroke="#338fec" stroke-miterlimit="10" stroke-width="1.5" d="M32.9 40l2 2h2v-6l-2-2h-8l-2 2v8l2 2h8l2-2m6-10v12m6-12v12m4-6v6m-10-6h6m4-2v-2m4-2v8m0 2v2"/><path fill="none" opacity=".4" d="M0 0h90v90H0z"/></svg><view viewBox="346 184 92.05 92"/><svg data-name="Layer 1" viewBox="-1 -1 92.05 92" width="92.05" height="92" x="346" y="184"><title>icons-collaborate-email</title><path fill="#e7f3ff" d="M28.75 13.67l8-6.67h8l8 6.67h-24zM12.24 27.42L.75 37l11.49 9V27.42zM67.91 46V26.3L80.75 37l-12.84 9zm-41.83-6.17h17.47V46H26.08z"/><path fill="none" stroke="#338fec" stroke-miterlimit="10" stroke-width="1.5" d="M67.91 26.3L80.75 37v42l-4 4h-72l-4-4V37l11.49-9.58m16.51-13.75l8-6.67h8l8 6.67"/><path fill="none" stroke="#338fec" stroke-miterlimit="10" stroke-width="1.5" d="M67.91 46V13.67H12.24V45"/><path fill="#fff" stroke="#338fec" stroke-miterlimit="10" stroke-width="1.5" d="M34.46 60.97L.75 37m46.29 23.97L80.75 37"/><path fill="none" stroke="#338fec" stroke-miterlimit="10" stroke-width="1.5" d="M2.75 81l35.21-22.75h5.58L78.75 81M25.08 23.25h31m-31 5.25h31m-31 5.25h26m-25 6.08h17.47V46H26.08z"/><path fill="none" opacity=".4" d="M.05 0h90v90h-90z"/></svg><view viewBox="0 328 92.05 92"/><svg data-name="Layer 1" viewBox="-1 -1 92.05 92" width="92.05" height="92" y="328"><title>icons-collaborate-mobile</title><path fill="none" stroke="#338fec" stroke-miterlimit="10" stroke-width="1.5" d="M16.22 49.22l3.25-12.58h17.48l3.25 12.58H16.22zm5.5-16.93l3.52 4.35m9.47-4.35l-3.53 4.35"/><path fill="#338fec" d="M25.1 43.174l-1.245 1.245-1.244-1.245 1.245-1.245zm8.587-.004l-1.245 1.244-1.244-1.244 1.244-1.245z"/><path d="M51.29 10.77H5.15L.76 15.16v63.71l4.39 4.39h46.14l4.39-4.39V15.16zm0 59.32l-2.2 2.2H7.36l-2.2-2.2V17.36l2.2-2.2H49.1l2.2 2.2v52.73z" fill="#e7f3ff"/><path fill="none" stroke="#338fec" stroke-miterlimit="10" stroke-width="1.5" d="M5.14 83.27L.75 78.88V15.16l4.39-4.39h46.14l4.39 4.39v63.72l-4.39 4.39H5.14z"/><path fill="#338fec" d="M27.53 75.18h1.36l1.37 1.37v1.36l-1.37 1.36h-1.36l-1.36-1.36v-1.36l1.36-1.37z"/><path fill="#fff" d="M47.94 37.13l2.19-2.19h21.98l2.19 2.19v43.94l-2.19 2.2H50.13l-2.19-2.2V37.13z"/><path d="M72.11 34.94h-22l-2.2 2.2v43.94l2.2 2.2h22l2.2-2.2V37.14zm0 39.55h-22V41.01h22v33.5z" fill="#e7f3ff"/><path fill="none" stroke="#338fec" stroke-miterlimit="10" stroke-width="1.5" d="M47.94 37.13l2.19-2.19h21.98l2.19 2.19v43.94l-2.19 2.2H50.13l-2.19-2.2V37.13zm10.43 1.1h5.5"/><path fill="#338fec" d="M59.377 78.336l1.74-1.74 1.74 1.74-1.74 1.74z"/><path fill="none" stroke="#338fec" stroke-miterlimit="10" stroke-width="1.5" d="M59.38 61.92l-2.45-2.45V56l2.45-2.46h3.47L65.31 56v3.47l-2.46 2.45h-3.47z"/><path fill="#338fec" d="M63.27 51.45l-1.82.03.03-1.83 1.85-1.85 1.82-.03-.03 1.82-1.85 1.86z"/><path fill="none" opacity=".4" d="M.05 0h90v90h-90z"/></svg><view viewBox="276.08 328 92 92"/><svg data-name="Layer 1" viewBox="-1 -1 92 92" width="92" height="92" x="276.08" y="328"><title>icons-collaborate-mywork</title><path fill="#e7f3ff" stroke="#338fec" stroke-miterlimit="10" stroke-width="1.5" d="M.8 5h80v28H.8z"/><path fill="none" stroke="#338fec" stroke-miterlimit="10" stroke-width="1.5" d="M.8 33h80v26H.8z"/><path fill="none" stroke="#338fec" stroke-miterlimit="10" stroke-width="1.5" d="M.8 5h80v80H.8z"/><path fill="#fff" stroke="#338fec" stroke-miterlimit="10" stroke-width="1.5" d="M5.8 11h8v8h-8z"/><path fill="#e7f3ff" d="M5.8 64h8v8h-8zm17 0h40v16h-40zm44 0h8v4h-8zm-61-26.15h8v8h-8zm17 0h40v16h-40zm44 0h8v4h-8z"/><path fill="#fff" stroke="#338fec" stroke-miterlimit="10" d="M22.56 10.7h24v16h-24z"/><path fill="#fff" stroke="#338fec" stroke-miterlimit="10" stroke-width="1.5" d="M50.8 11h24v16h-24z"/><path fill="#e7f3ff" d="M54.3 15.17v1.66l1.67 1.67h1.66l1.67-1.67v-1.66l-1.67-1.67h-1.66l-1.67 1.67zm-28 0v1.66l1.67 1.67h1.66l1.67-1.67v-1.66l-1.67-1.67h-1.66l-1.67 1.67zM22.8 27l4-4 2 2 4-4 2 2 6-8 6 8v4h-24z"/><path fill="none" stroke="#338fec" stroke-miterlimit="10" stroke-width="1.5" d="M.8 5h80v80H.8z"/><path fill="#e7f3ff" d="M50.8 21h24v6h-24z"/><path fill="none" stroke="#338fec" stroke-miterlimit="10" stroke-width="1.5" d="M22.56 10.7h24v16h-24zm28.24 0h24v16h-24z"/><path fill="none" opacity=".4" d="M0 0h90v90H0z"/></svg><view viewBox="438.15 92 92 92"/><svg data-name="Layer 1" viewBox="-1 -1 92 92" width="92" height="92" x="438.15" y="92"><title>icons-collaborate-stream</title><path fill="#e7f3ff" stroke="#338fec" stroke-miterlimit="10" stroke-width="1.5" d="M.8 5.24h80v28H.8z"/><path fill="none" stroke="#338fec" stroke-miterlimit="10" stroke-width="1.5" d="M80.8 60.04H.8"/><path fill="none" d="M14.8 68.54h2v8h-8v-2"/><path fill="#fff" stroke="#338fec" stroke-miterlimit="10" stroke-width="1.5" d="M5.8 12.54h8v8h-8z"/><path fill="#e7f3ff" d="M5.8 38.54h8v8h-8zm0 27h8v8h-8z"/><path fill="none" stroke="#338fec" stroke-miterlimit="10" stroke-width="1.5" d="M80.8 5.54v80H.8v-80"/><path fill="#fff" stroke="#338fec" stroke-miterlimit="10" stroke-width="1.5" d="M20.8 11.54h44v15h-44zm48 0h6v4h-6z"/><path fill="#e7f3ff" d="M20.8 38.54h44v16h-44zm48 0h6v4h-6zm-48 26h44v15h-44zm48 0h6v4h-6z"/><path fill="none" opacity=".4" d="M0 0h90v90H0z"/></svg><view viewBox="438.15 184 92 92"/><svg data-name="Layer 1" viewBox="-1 -1 92 92" width="92" height="92" x="438.15" y="184"><title>icon-customise-dashboards</title><path fill="#fff" stroke="#338fec" stroke-miterlimit="10" stroke-width="1.5" d="M7.8 70.65h40v-40h-17v6.5h-9v10h-9.5v7.5H7.8v16z"/><path fill="#fff" stroke="#338fec" stroke-miterlimit="10" stroke-width="1.5" d="M7.8 73.65v-8h9v-10h9v-6h9v-8h13v32"/><path fill="#e7f3ff" d="M53.67 15.43h27.14v59.1H53.67z"/><path fill="#fff" stroke="#338fec" stroke-miterlimit="10" stroke-width="1.5" d="M68.8 32.25h-10v-4h10v4zm-4 4h10v4h-10z"/><path fill="none" stroke="#338fec" stroke-miterlimit="10" stroke-width="1.5" d="M72.8 36.25v-6h-4"/><path fill="#fff" stroke="#338fec" stroke-miterlimit="10" stroke-width="1.5" d="M68.8 52.25h-10v-4h10v4zm-4 4h10v4h-10z"/><path fill="none" stroke="#338fec" stroke-miterlimit="10" stroke-width="1.5" d="M72.8 56.25v-6h-4"/><path fill="#e7f3ff" stroke="#338fec" stroke-miterlimit="10" stroke-width="1.5" d="M21.84 74.15l-.04-11.5h8v-5h8v-6h10v22.5"/><path fill="none" stroke="#338fec" stroke-miterlimit="10" stroke-width="1.5" d="M.8 15.43h80v58.96H.8z"/><path fill="none" opacity=".4" d="M0 0h90v90H0z"/></svg><view viewBox="438.15 276 92 92"/><svg data-name="Layer 1" viewBox="-1 -1 92 92" width="92" height="92" x="438.15" y="276"><title>icon-customise-fields</title><path fill="none" stroke="#338fec" stroke-miterlimit="10" stroke-width="1.5" d="M.93 15.52h60v19.65h-60zm60 0h20v19.65h-20zm10 3.65v12"/><path fill="none" stroke="#338fec" stroke-miterlimit="10" stroke-width="1.5" d="M73.43 23.17v-2h-5v4h5v4h-5v-2"/><path fill="#e7f3ff" stroke="#e7f3ff" stroke-miterlimit="10" stroke-width="1.5" d="M7.36 22.17H44.5v5.71H7.36z"/><path fill="none" stroke="#338fec" stroke-miterlimit="10" stroke-width="1.5" d="M.93 35.17h60v19.65h-60zm60 .18h20v19.48h-20zm10 3.65v12"/><path fill="none" stroke="#338fec" stroke-miterlimit="10" stroke-width="1.5" d="M73.43 43v-2h-5v4h5v4h-5v-2"/><path fill="#e7f3ff" stroke="#e7f3ff" stroke-miterlimit="10" stroke-width="1.5" d="M7.36 41.83H49.5v5.71H7.36z"/><path fill="none" stroke="#338fec" stroke-miterlimit="10" stroke-width="1.5" d="M.93 54.83h60v19.65h-60zm60 .17h20v19.48h-20zm10 3.65v12"/><path fill="none" stroke="#338fec" stroke-miterlimit="10" stroke-width="1.5" d="M73.43 62.65v-2h-5v4h5v4h-5v-2"/><path fill="#e7f3ff" stroke="#e7f3ff" stroke-miterlimit="10" stroke-width="1.5" d="M7.36 61.48H33v5.71H7.36z"/><path fill="none" opacity=".4" d="M0 0h90v90H0z"/></svg><view viewBox="92.05 328 92.02 92"/><svg data-name="Layer 1" viewBox="-1 -1 92.02 92" width="92.02" height="92" x="92.05" y="328"><title>icon-customise-usergroups</title><path fill="#e7f3ff" stroke="#338fec" stroke-miterlimit="10" stroke-width="1.5" d="M58.25 14.71h30.81V63.5H58.25z"/><path fill="#fff" stroke="#338fec" stroke-miterlimit="10" stroke-width="1.5" d="M71.09 27.55h5.13l2.57 2.57v5.13l-2.57 2.57h-5.13l-2.57-2.57v-5.13l2.57-2.57zm-5.14 17.97v-2.56l2.57-2.57h10.27l2.57 2.57v2.56"/><path fill="#fff" d="M65.95 50.66h15.41v5.14H65.95z"/><path fill="none" stroke="#338fec" stroke-miterlimit="10" stroke-width="1.5" d="M79.36 19.28l5.13 5.13m0-5.13l-5.13 5.13M.75 14.71h32.08V65.5H.75z"/><path fill="none" stroke="#338fec" stroke-miterlimit="10" stroke-width="1.5" d="M14.12 28.08h5.34l2.68 2.67v5.35l-2.68 2.67h-5.34l-2.68-2.67v-5.35l2.68-2.67zM8.77 46.79v-2.67l2.67-2.68h10.7l2.67 2.68v2.67"/><path fill="#e7f3ff" stroke="#e7f3ff" stroke-miterlimit="10" stroke-width="1.5" d="M8.77 52.13h16.04v5.35H8.77z"/><path fill="none" stroke="#338fec" stroke-miterlimit="10" stroke-width="1.5" d="M20.84 21.06l2.67 2.67 5.34-5.35"/><path fill="#fff" stroke="#338fec" stroke-miterlimit="10" stroke-width="1.5" d="M29.51 24.5h32.08v50.79H29.51z"/><path fill="none" stroke="#338fec" stroke-miterlimit="10" stroke-width="1.5" d="M42.87 37.87h5.35l2.67 2.67v5.34l-2.67 2.68h-5.35l-2.67-2.68v-5.34l2.67-2.67zm-5.34 18.71V53.9l2.67-2.67h10.69l2.68 2.67v2.68"/><path fill="#e7f3ff" stroke="#e7f3ff" stroke-miterlimit="10" stroke-width="1.5" d="M37.53 61.92h16.04v5.35H37.53z"/><path fill="none" stroke="#338fec" stroke-miterlimit="10" stroke-width="1.5" d="M49.89 30.85l2.68 2.67 5.34-5.35"/><path fill="none" opacity=".4" d="M.02 0h90v90h-90z"/></svg><view viewBox="184 420 92 92"/><svg data-name="Layer 1" viewBox="-1 -1 92 92" width="92" height="92" x="184" y="420"><title>icon-customise-workflows</title><path fill="none" stroke="#338fec" stroke-miterlimit="10" stroke-width="1.5" d="M6.88 35.2h8l6 6v8l-6 6h-8l-6-6v-8l6-6z"/><path fill="none" stroke="#338fec" stroke-miterlimit="10" stroke-width="1.5" d="M10.88 39.2v6l4 4m4-26l2 6-6-2-12-12 4-4 12 12zM4.88 9.2h-2l-2 2v2l2 2 4-4-2-2zm14 14l-4 4M1.82 68.14l6.03.03 3.03 3.03 6-6h6l-12 12-9.06-9.06z"/><path fill="none" stroke="#338fec" stroke-miterlimit="10" stroke-width="1.5" d="M10.88 71.2l-3.03-3.03-6.03-.03 9.06 9.06 3-3"/><path fill="#e7f3ff" d="M30.88 11.2H44.4v16H30.88zm0 26H44.4v16H30.88zm0 26H44.4v16H30.88z"/><path fill="none" stroke="#338fec" stroke-miterlimit="10" stroke-width="1.5" d="M30.88 11.2h50v16h-50zm0 26h50v16h-50zm0 26h50v16h-50z"/><path fill="none" opacity=".4" d="M0 0h90v90H0z"/></svg><view viewBox="184.07 328 92.01 92"/><svg data-name="Layer 1" viewBox="-1 -1 92.01 92" width="92.01" height="92" x="184.07" y="328"><title>icons-security-access</title><path fill="#e7f3ff" stroke="#338fec" stroke-miterlimit="10" stroke-width="1.5" d="M6.1 65.9h5.34l2.68 2.67v5.35l-2.68 2.67H6.1l-2.68-2.67v-5.35L6.1 65.9zM.75 85.61v-3.67l2.67-2.67h10.7l2.67 2.67v3.67H.75zM38.1 57.88h5.34l2.68 2.67v5.35l-2.68 2.67H38.1l-2.68-2.67v-5.35l2.68-2.67zm-5.35 19.71v-3.67l2.67-2.67h10.7l2.67 2.67v3.67H32.75zM70.1 65.9h5.34l2.68 2.67v5.35l-2.68 2.67H70.1l-2.68-2.67v-5.35l2.68-2.67zm-5.35 19.71v-3.67l2.67-2.67h10.7l2.67 2.67v3.67H64.75z"/><path fill="none" stroke="#338fec" stroke-miterlimit="10" stroke-width="1.5" d="M8.77 60.79V52.4l32-16 32 16v8.39m-32-7v-25"/><path fill="#e7f3ff" stroke="#338fec" stroke-miterlimit="10" stroke-width="1.5" d="M46.2 15.79l-3.43 3h-14v12h24v-15H46.2z"/><path fill="none" stroke="#338fec" stroke-miterlimit="10" stroke-width="1.5" d="M30.77 18.79v-14H46.2v11m-11.43-5h7.44m-7.44 3h7.44m4.56-6h4.19v8"/><path fill="none" opacity=".4" d="M.01 0h90v90h-90z"/></svg><view viewBox="438.15 0 92 92"/><svg data-name="Layer 1" viewBox="-1 -1 92 92" width="92" height="92" x="438.15"><title>icon-security-authentication</title><path fill="#e7f3ff" d="M63.97 75.84l-9.5.1V52.41l9.5-3.74v27.17zM18.92 12.5l5.42 11-5.58 10.72-9-3.9 9.16-17.82zm35.56-8l-8.89 8H18.92l-.16-8h35.72zM9.76 66.75h36.81l.19-8.99h-37v8.99z"/><path fill="none" stroke="#338fec" stroke-miterlimit="10" stroke-width="1.5" d="M18.76 4.5h35.72l8.81 17.78"/><path fill="none" stroke="#338fec" stroke-miterlimit="10" stroke-width="1.5" d="M45.76 66.5h-36V30.32l9.17-17.82h26.66l9.17 17.82V75.5h-54V30.32l9.17-17.46"/><path fill="none" stroke="#338fec" stroke-miterlimit="10" stroke-width="1.5" d="M.76 84.5h53.72l9.28-9.73V48.5m0-19v9m-17 19V33.96L41.23 23.5H24.34l-5.58 10.72V57.5h18"/><path fill="none" stroke="#338fec" stroke-miterlimit="10" stroke-width="1.5" d="M28.76 39.5v-8h7v8"/><path fill="none" stroke="#338fec" stroke-miterlimit="10" stroke-width="1.5" d="M28.76 39.5v-8h7v8"/><path fill="none" d="M26.75 39.5h11v10h-11z"/><path fill="none" stroke="#338fec" stroke-miterlimit="10" stroke-width="1.5" d="M26.76 39.5h11v10h-11z"/><path fill="#338fec" d="M31.5 43H33v4h-1.5z"/><path fill="none" d="M0 0h90v90H0z"/></svg><view viewBox="346 92 92.15 92"/><svg data-name="Layer 1" viewBox="-1 -1 92.15 92" width="92.15" height="92" x="346" y="92"><title>icons-security-data</title><path fill="none" stroke="#338fec" stroke-miterlimit="10" stroke-width="1.5" d="M11.75 14.65v-6l4.5-4h50.5l4.21 3.74v6.26m-70.21 0h22.5v65H.75z"/><path fill="#e7f3ff" stroke="#338fec" stroke-miterlimit="10" stroke-width="1.5" d="M.75 22.15h9v4.5h-9z"/><path fill="none" stroke="#338fec" stroke-miterlimit="10" stroke-width="1.5" d="M14.25 24.65h9"/><path fill="#e7f3ff" stroke="#338fec" stroke-miterlimit="10" stroke-width="1.5" d="M.75 31.15h9v4.5h-9z"/><path fill="none" stroke="#338fec" stroke-miterlimit="10" stroke-width="1.5" d="M14.25 33.65h9"/><path fill="#e7f3ff" stroke="#338fec" stroke-miterlimit="10" stroke-width="1.5" d="M.75 40.15h9v4.5h-9z"/><path fill="none" stroke="#338fec" stroke-miterlimit="10" stroke-width="1.5" d="M14.25 42.65h9"/><path fill="#e7f3ff" stroke="#338fec" stroke-miterlimit="10" stroke-width="1.5" d="M.75 49.15h9v4.5h-9z"/><path fill="none" stroke="#338fec" stroke-miterlimit="10" stroke-width="1.5" d="M14.25 51.65h9"/><path fill="#e7f3ff" stroke="#338fec" stroke-miterlimit="10" stroke-width="1.5" d="M.75 58.15h9v4.5h-9z"/><path fill="none" stroke="#338fec" stroke-miterlimit="10" stroke-width="1.5" d="M14.25 60.65h9"/><path fill="#e7f3ff" stroke="#338fec" stroke-miterlimit="10" stroke-width="1.5" d="M.75 67.15h9v4.5h-9z"/><path fill="none" stroke="#338fec" stroke-miterlimit="10" stroke-width="1.5" d="M14.25 69.65h9m36.21-55h22.5v65h-22.5z"/><path fill="#e7f3ff" stroke="#338fec" stroke-miterlimit="10" stroke-width="1.5" d="M59.46 22.15h9v4.5h-9z"/><path fill="none" stroke="#338fec" stroke-miterlimit="10" stroke-width="1.5" d="M72.96 24.65h9"/><path fill="#e7f3ff" stroke="#338fec" stroke-miterlimit="10" stroke-width="1.5" d="M59.46 31.15h9v4.5h-9z"/><path fill="none" stroke="#338fec" stroke-miterlimit="10" stroke-width="1.5" d="M72.96 33.65h9"/><path fill="#e7f3ff" stroke="#338fec" stroke-miterlimit="10" stroke-width="1.5" d="M59.46 40.15h9v4.5h-9z"/><path fill="none" stroke="#338fec" stroke-miterlimit="10" stroke-width="1.5" d="M72.96 42.65h9"/><path fill="#e7f3ff" stroke="#338fec" stroke-miterlimit="10" stroke-width="1.5" d="M59.46 49.15h9v4.5h-9z"/><path fill="none" stroke="#338fec" stroke-miterlimit="10" stroke-width="1.5" d="M72.96 51.65h9"/><path fill="#e7f3ff" stroke="#338fec" stroke-miterlimit="10" stroke-width="1.5" d="M59.46 58.15h9v4.5h-9z"/><path fill="none" stroke="#338fec" stroke-miterlimit="10" stroke-width="1.5" d="M72.96 60.65h9"/><path fill="#e7f3ff" stroke="#338fec" stroke-miterlimit="10" stroke-width="1.5" d="M59.46 67.15h9v4.5h-9z"/><path fill="none" stroke="#338fec" stroke-miterlimit="10" stroke-width="1.5" d="M72.96 69.65h9m-29.21 15.5h-22.5v-65h22.5v65z"/><path fill="#e7f3ff" stroke="#338fec" stroke-miterlimit="10" stroke-width="1.5" d="M30.25 27.65h9v4.5h-9z"/><path fill="none" stroke="#338fec" stroke-miterlimit="10" stroke-width="1.5" d="M43.75 30.15h9"/><path fill="#e7f3ff" stroke="#338fec" stroke-miterlimit="10" stroke-width="1.5" d="M30.25 36.65h9v4.5h-9z"/><path fill="none" stroke="#338fec" stroke-miterlimit="10" stroke-width="1.5" d="M43.75 39.15h9"/><path fill="#e7f3ff" stroke="#338fec" stroke-miterlimit="10" stroke-width="1.5" d="M30.25 45.65h9v4.5h-9z"/><path fill="none" stroke="#338fec" stroke-miterlimit="10" stroke-width="1.5" d="M43.75 48.15h9"/><path fill="#e7f3ff" stroke="#338fec" stroke-miterlimit="10" stroke-width="1.5" d="M30.25 54.65h9v4.5h-9z"/><path fill="none" stroke="#338fec" stroke-miterlimit="10" stroke-width="1.5" d="M43.75 57.15h9"/><path fill="#e7f3ff" stroke="#338fec" stroke-miterlimit="10" stroke-width="1.5" d="M30.25 63.65h9v4.5h-9z"/><path fill="none" stroke="#338fec" stroke-miterlimit="10" stroke-width="1.5" d="M43.75 66.15h9"/><path fill="#e7f3ff" stroke="#338fec" stroke-miterlimit="10" stroke-width="1.5" d="M30.25 72.65h9v4.5h-9z"/><path fill="none" stroke="#338fec" stroke-miterlimit="10" stroke-width="1.5" d="M43.75 75.15h9m-15.5-70.5v15.5m8.83-15.5v15.5"/><path fill="none" opacity=".4" d="M.15 0h90v90h-90z"/></svg><view viewBox="346 0 92.15 92"/><svg data-name="Layer 1" viewBox="-1 -1 92.15 92" width="92.15" height="92" x="346"><title>icons-security-protection</title><path fill="#e7f3ff" d="M9.4 23.9h17.34l8.67 9-34.66.06L9.4 23.9z"/><path fill="none" stroke="#338fec" stroke-miterlimit="10" stroke-width="1.5" d="M.75 32.96L9.4 23.9h17.34l8.67 9h34.4l8.34 7.9v44.1H.89L.75 32.96z"/><path fill="#e7f3ff" stroke="#338fec" stroke-miterlimit="10" stroke-width="1.5" d="M32.955 51.362l6.095-6.096 6.095 6.096-6.095 6.095z"/><path d="M39.15 56.9v18h6m-34-51v-19h53v28m-8-21h-39m39 6h-39m39 5h-12m-5 48h5" fill="none" stroke="#338fec" stroke-miterlimit="10" stroke-width="1.5"/><path fill="#e7f3ff" stroke="#3b7ed5" stroke-miterlimit="10" stroke-width="1.5" d="M.75 32.96l34.65-.06"/><path fill="none" opacity=".4" d="M.15 0h90v90h-90z"/></svg><view viewBox="602.15 58 58 58"/><svg data-name="Layer 1" viewBox="-1 -1 58 58" width="58" height="58" x="602.15" y="58"><title>icon-small-collaborate</title><path fill="#ccd5e1" d="M16 16.03h24v18H16z"/><path fill="none" stroke="#8097b1" stroke-miterlimit="10" stroke-width="1.5" d="M16 44.53l-6 6v-6H5.5v-28.5H40v28.5H16z"/><path fill="none" stroke="#8097b1" stroke-miterlimit="10" stroke-width="1.5" d="M40 34.03l6 6v-6h4.5V5.53H16v28.5h24z"/><path fill="none" stroke="#8097b1" stroke-miterlimit="10" stroke-width="1.5" d="M26.502 25.038l1.5-1.5 1.498 1.5-1.5 1.5zM20.5 25.03l1.498-1.5 1.5 1.5-1.5 1.5zm12.005.005l1.5-1.5 1.498 1.5-1.5 1.5z"/><path fill="none" opacity=".4" d="M0 0h56v56H0z"/></svg><view viewBox="368.08 328 58 58"/><svg data-name="Layer 1" viewBox="-1 -1 58 58" width="58" height="58" x="368.08" y="328"><title>icon-small-create</title><path fill="#ccd5e1" d="M4.91 46.234l22.5-22.5 2.998 2.998-22.5 22.5z"/><path fill="none" stroke="#8097b1" stroke-miterlimit="10" stroke-width="1.5" d="M4.905 46.235l30.002-30.002 2.998 2.998L7.903 49.235zM27.4 23.73l3 3m4.5-22.5v6m9 9h6m-30 0h6m9 9v6m6-9l4.5 4.5m-4.5-16.5l4.5-4.5m-21 0l4.5 4.5"/><path fill="none" opacity=".4" d="M0 0h56v56H0z"/></svg><view viewBox="503.65999999999997 512 58 58"/><svg data-name="Layer 1" viewBox="-1 -1 58 58" width="58" height="58" x="503.66" y="512"><title>icon-small-customise</title><path fill="#ccd5e1" d="M14.5 10.2h9l1.5 1.5v6l1.5 1.5H28l1.5-1.5v-6l1.5-1.5 1.5 1.5v4.5l1.5 1.5 1.5-1.5v-4.5l1.5-1.5h4.5V5.7h-27v4.5z"/><path fill="none" stroke="#8097b1" stroke-miterlimit="10" stroke-width="1.5" d="M13 23.7v9l1.5 1.5L25 35.7l-1.5 12 3 3h3l3-3-1.5-12 10.5-1.5 1.5-1.5v-9H13zm0 4.5h30M14.5 5.7h27v18h-27z"/><path fill="none" stroke="#8097b1" stroke-miterlimit="10" stroke-width="1.5" d="M14.5 10.2h9l1.5 1.5v6l1.5 1.5H28l1.5-1.5v-6l1.5-1.5 1.5 1.5v4.5l1.5 1.5 1.5-1.5v-4.5l1.5-1.5h4.5"/><path fill="none" opacity=".4" d="M0 0h56v56H0z"/></svg><view viewBox="602.15 0 58 58"/><svg data-name="Layer 4" viewBox="-1 -1 58 58" width="58" height="58" x="602.15"><title>icon-small-integrate-white</title><path fill="#fff" fill-opacity=".4" d="M27.15 44.09L31 40.2l-15-15-3.85 3.89 15 15zM50.5 13.2L43 5.7h-7.5l-6.75 7.5 15 15 6.75-7.5v-7.5z"/><path fill="none" stroke="#fff" stroke-miterlimit="10" stroke-width="1.5" d="M5.5 43.2l7.5 7.5h7.5L31 40.2l-15-15L5.5 35.7v7.5zm14.25-14.25L25 23.7l1.5 1.5-5.25 5.25"/><path fill="none" stroke="#fff" stroke-miterlimit="10" stroke-width="1.5" d="M25.75 34.95L31 29.7l1.5 1.5-5.25 5.25M5.5 49.2v1.5H7l3-3-1.5-1.5-3 3zm45-42V5.7H49l-3 3 1.5 1.5 3-3zm0 6L43 5.7h-7.5L25 16.2l15 15 10.5-10.5v-7.5zm-19.7 4.9l1.5 1.5m4 4l1.5 1.5"/><path fill="none" opacity=".4" d="M0 0h56v56H0z"/></svg><view viewBox="286 246 58 58"/><svg data-name="Layer 1" viewBox="-1 -1 58 58" width="58" height="58" x="286" y="246"><title>icon-small-plan</title><path fill="#ccd5e1" d="M13 32.43h3l1.5 1.5v3l-1.5 1.5h-3l-1.5-1.5v-3l1.5-1.5zm27-9h3l1.5 1.5v3l-1.5 1.5h-3l-1.5-1.5v-3l1.5-1.5zm3-13.5v7.5h7.5"/><path fill="none" stroke="#8097b1" stroke-miterlimit="10" stroke-width="1.5" d="M50.5 45.93h-45v-36H43l7.5 7.5v28.5z"/><path fill="none" stroke="#8097b1" stroke-miterlimit="10" stroke-width="1.5" d="M43 9.93v7.5h7.5m-39 3l6 6m0-6l-6 6M22 15.93l6 6m0-6l-6 6m10.5 12l6 6m0-6l-6 6M31 23.43l3 3-3 3"/><path fill="none" stroke="#8097b1" stroke-miterlimit="10" stroke-width="1.5" d="M34 26.43h-6l-1.5 1.5v6l-1.5 1.5h-4.5m-7.5-3h3l1.5 1.5v3l-1.5 1.5h-3l-1.5-1.5v-3l1.5-1.5zm27-9h3l1.5 1.5v3l-1.5 1.5h-3l-1.5-1.5v-3l1.5-1.5z"/><path fill="none" opacity=".4" d="M0 0h56v56H0z"/></svg><view viewBox="602.15 116 58 58"/><svg data-name="Layer 1" viewBox="-1 -1 58 58" width="58" height="58" x="602.15" y="116"><title>icon-small-report</title><path fill="#ccd5e1" d="M16.1 34.5h6.13v6.89H16.1zm8.78-13.62h6.23v20.51h-6.23zm9.19 6.98h6.13V41.4h-6.13zM37 5.33v7.5h7.5"/><path fill="none" stroke="#8097b1" stroke-miterlimit="10" stroke-width="1.5" d="M44.5 50.33h-33v-45H37l7.5 7.5v37.5z"/><path fill="none" stroke="#8097b1" stroke-miterlimit="10" stroke-width="1.5" d="M37 5.33v7.5h7.5m-28.5 15h6v13.5h-6zm9-10.5h6v24h-6zm9 6h6v18h-6z"/><path fill="none" opacity=".4" d="M0 0h56v56H0z"/></svg><view viewBox="602.15 174 58 58"/><svg data-name="Layer 1" viewBox="-1 -1 58 58" width="58" height="58" x="602.15" y="174"><title>icon-small-security</title><path fill="#ccd5e1" d="M28 50.7v-45l19.5 7.5L43 41.7l-15 9z"/><path fill="none" stroke="#8097b1" stroke-miterlimit="10" stroke-width="1.5" d="M28 50.7l-15-9-4.5-28.5L28 5.7l19.5 7.5L43 41.7l-15 9z"/><path fill="#fff" stroke="#8097b1" stroke-miterlimit="10" stroke-width="1.5" d="M22.32 32.97l3.72 3.71 16.22-16.21h-7.43l-8.79 8.78"/><path fill="none" stroke="#8097b1" stroke-miterlimit="10" stroke-width="1.5" d="M23.81 27.02h-7.43l9.66 9.66 3.71-3.71-5.94-5.95z"/><path fill="none" opacity=".4" d="M0 0h56v56H0z"/></svg><view viewBox="602.15 232 58 58"/><svg data-name="Layer 1" viewBox="-1 -1 58 58" width="58" height="58" x="602.15" y="232"><title>icon-small-support-white</title><path fill="none" stroke="#fff" stroke-miterlimit="10" stroke-width="1.5" d="M47.44 36.23L35.89 47.64l-16.23-.1L8.26 36l.1-16.23L19.9 8.36l16.23.1L47.53 20l-.09 16.23zm.3-11.04h-7.8m7.8 5.99h-7.8"/><path fill="#fff" fill-opacity=".4" d="M24.95 8.39h5.99v7.8h-5.99zm0 31.1h5.99v7.8h-5.99zm22.492-14.598v5.99h-7.8v-5.99zm-31.104 0v5.99h-7.8v-5.99z"/><path fill="none" stroke="#fff" stroke-miterlimit="10" stroke-width="1.5" d="M39.66 32.96l-6.95 6.86-9.77-.05-6.87-6.96.06-9.77 6.95-6.86 9.77.05 6.87 6.95-.06 9.78zM24.95 8.39v7.8m5.99-7.8v7.8m-5.99 23.62v7.8m5.99-7.8v7.8M16.32 25.19H8.53m7.79 5.99H8.53"/><path fill="none" opacity=".4" d="M0 0h56v56H0z"/></svg><view viewBox="602.15 290 47 47"/><svg data-name="Layer 1" viewBox="-1 -1 47 47" width="47" height="47" x="602.15" y="290"><title>icons-support-languages</title><path fill="#fff" opacity=".2" d="M22.2 43.5l14.85-6.15L43.2 22.5 37.05 7.65 22.2 1.5l7.23 6.33 4.86 14.67-4.86 14.8-7.23 6.2z"/><path fill="none" stroke="#fff" stroke-miterlimit="10" stroke-width="1.5" d="M1.5 22.5L7.65 7.65 22.5 1.5l14.85 6.15L43.5 22.5l-6.15 14.85L22.5 43.5 7.65 37.35 1.5 22.5zm21-21v42"/><path fill="none" stroke="#fff" stroke-miterlimit="10" stroke-width="1.5" d="M22.5 43.5l7.23-6.2 4.86-14.8-4.86-14.67L22.5 1.5m0 42l-7.23-6.2-4.86-14.8 4.86-14.67L22.5 1.5M7.65 7.65h29.7m-29.7 29.7h29.7M1.5 22.5h42"/><path fill="none" opacity=".4" d="M0 0h45v45H0z"/></svg><view viewBox="602.15 337 47 47"/><svg data-name="Layer 1" viewBox="-1 -1 47 47" width="47" height="47" x="602.15" y="337"><title>icons-support-phone</title><path fill="#fff" opacity=".39" d="M11.3 27.75h-7l-2.8-2.8v-7l2.8-2.8h7v12.6zm32.2-2.8l-2.8 2.8h-7v-12.6h7l2.8 2.8v7z"/><path fill="none" stroke="#fff" stroke-miterlimit="10" stroke-width="1.5" d="M11.3 27.75h-7l-2.8-2.8v-7l2.8-2.8h7v12.6zm32.2-2.8l-2.8 2.8h-7v-12.6h7l2.8 2.8v7z"/><path fill="none" stroke="#fff" stroke-miterlimit="10" stroke-width="1.5" d="M7.1 15.15v-5.6l8.4-8.4h14l8.4 8.4v5.6m-29.4 0v12.6m28-12.6v12.6m1.4 0v11.9l-4.2 4.2h-4.8"/><path fill="none" stroke="#fff" stroke-miterlimit="10" stroke-width="1.5" d="M11.3 15.15H9.9l2.8-7 9.8-1.4 2.8 1.4 2.8-1.4 4.2 2.8 2.8 5.6h-1.4v15.4l-7 7h-8.4l-7-7v-15.4z"/><path fill="#fff" opacity=".39" d="M29.5 1.15h-14l-8.4 8.4v5.6h2.8l2.8-7 9.8-1.4 2.8 1.4 2.8-1.4 4.2 2.8 2.8 5.6h2.8v-5.6l-8.4-8.4z"/><path fill="none" stroke="#fff" stroke-miterlimit="10" stroke-width="1.5" d="M22.5 20.75v7m-11.2-8.4l4.2-2.8h7l4.2-1.4 4.2 4.2h2.8m-11.8 21.9h7v2.6h-7z"/><path fill="none" opacity=".4" d="M0 0h45v45H0z"/></svg><view viewBox="102 246 102 82"/><svg data-name="Layer 1" viewBox="-1 -1 102 82" width="102" height="82" x="102" y="246"><title>icon-teams-all</title><path fill="#d8e5f3" d="M24.76 34.69h-7.29l-4.97-4.74-5.05 4.74v-7.18l2.89-2.89h11.54l2.88 2.89v7.18zm-4.97 19.82v3.39l-1.29 1.28h-5.15l-1.29-1.28v-3.39m43.65 3.65v4.94l-1.88 1.88h-7.51l-1.87-1.88v-4.94"/><path fill="none" stroke="#3b7ed5" stroke-miterlimit="10" stroke-width="1.5" d="M72.36 36.16h2.88v2.88h-2.88zM92.55 47.7l-2.89 2.88H78.12l-2.88-2.88V27.51l2.88-2.89h11.54l2.89 2.89V47.7z"/><path fill="#d8e5f3" d="M92.55 32.56H75.24v-5.05l2.88-2.89h11.54l2.89 2.89v5.05z"/><path fill="none" stroke="#3b7ed5" stroke-miterlimit="10" stroke-width="1.5" d="M92.55 36.16h2.88v2.88h-2.88z"/><path fill="#d8e5f3" d="M60.94 18.24H39.21l-4.6 4.6v21.79h3.71V31.5l3.99.04 5.32-5.52v5.52l14.13-.04v13.13h3.78V22.84l-4.6-4.6z"/><path fill="none" stroke="#3b7ed5" stroke-miterlimit="10" stroke-width="1.5" d="M36.48 76.03V61.78l3.91-3.91h19.37l3.91 3.91v14.25H36.48zM4.57 36.16h2.88v2.88H4.57zM24.76 47.7l-2.88 2.88H10.34L7.45 47.7V27.51l2.89-2.89h11.54l2.88 2.89V47.7zM5.06 68.54V57.51l2.89-2.89h15.69l2.89 2.89v11.03H5.06zm68.1-.45V57.06l2.88-2.89h15.7l2.89 2.89v11.03H73.16zm-48.4-31.93h2.88v2.88h-2.88zM11.66 24.6l10.69 10.19M8.85 26.3l3.58 3.58"/><path fill="#d8e5f3" d="M86.98 62.79l-3.09 3.09-3.08-3.09 3.08-4.85 3.09 4.85z"/><path fill="#d8e5f3" d="M86.98 54.27h-6.17l3.08 3.67 3.09-3.67z"/><path fill="none" stroke="#3b7ed5" stroke-miterlimit="10" stroke-width="1.5" d="M13.63 7.02h4.44l3.33 3.32v4.44l-3.33 3.33h-4.44l-3.32-3.33v-4.44l3.32-3.32z"/><path fill="none" stroke="#3b7ed5" stroke-miterlimit="10" stroke-width="1.5" d="M15.85 9.23v3.33l2.22 2.22m69.88 2.81l-1.01-3.02-6.03-6.03-1-1H78.9l-1 1v1.01l2 2.01h.01l5.02 5.02 3.02 1.01zM43.54 6.7l4.18.02 1.41 1.41 4.16-4.16h4.16l-8.32 8.32-5.59-5.59zM15.79 59.54v9m45.97-23.91v4.87l-3.91 3.9H42.23l-3.91-3.9v-4.87m-13.56-9.94h-7.29l-4.97-4.74-5.05 4.74v-7.18l2.89-2.89h11.54l2.88 2.89v7.18zm-4.97 19.82v3.39l-1.29 1.28h-5.15l-1.29-1.28v-3.39m48.88-36.27H39.21l-4.6 4.6v21.79h3.71V31.5l3.99.04 5.32-5.52v5.52l14.13-.04v13.13h3.78V22.84l-4.6-4.6zm-5.23 39.92v4.94l-1.88 1.88h-7.51l-1.87-1.88v-4.94m48.1-25.6H75.24v-5.05l2.88-2.89h11.54l2.89 2.89v5.05zm-5.57 30.23l-3.09 3.09-3.08-3.09 3.08-4.85 3.09 4.85zM86.98 54.27h-6.17l3.08 3.67 3.09-3.67z"/><path fill="none" opacity=".4" d="M0 0h100v80H0z"/></svg><view viewBox="102 164 102 82"/><svg data-name="Layer 4" viewBox="-1 -1 102 82" width="102" height="82" x="102" y="164"><title>icons-teams-all-hover</title><path fill="#c5e0ef" d="M24.76 34.69h-7.29l-4.97-4.74-5.05 4.74v-7.18l2.89-2.89h11.54l2.88 2.89v7.18zm-4.97 19.82v3.39l-1.29 1.28h-5.15l-1.29-1.28v-3.39m43.65 3.65v4.94l-1.88 1.88h-7.51l-1.87-1.88v-4.94"/><path fill="none" stroke="#2069db" stroke-miterlimit="10" stroke-width="1.5" d="M72.36 36.16h2.88v2.88h-2.88zM92.55 47.7l-2.89 2.88H78.12l-2.88-2.88V27.51l2.88-2.89h11.54l2.89 2.89V47.7z"/><path fill="#c5e0ef" d="M92.55 32.56H75.24v-5.05l2.88-2.89h11.54l2.89 2.89v5.05z"/><path fill="none" stroke="#2069db" stroke-miterlimit="10" stroke-width="1.5" d="M92.55 36.16h2.88v2.88h-2.88z"/><path fill="#c5e0ef" d="M60.94 18.24H39.21l-4.6 4.6v21.79h3.71V31.5l3.99.04 5.32-5.52v5.52l14.13-.04v13.13h3.78V22.84l-4.6-4.6z"/><path fill="none" stroke="#2069db" stroke-miterlimit="10" stroke-width="1.5" d="M36.48 76.03V61.78l3.91-3.91h19.37l3.91 3.91v14.25H36.48zM4.57 36.16h2.88v2.88H4.57zM24.76 47.7l-2.88 2.88H10.34L7.45 47.7V27.51l2.89-2.89h11.54l2.88 2.89V47.7zM5.06 68.54V57.51l2.89-2.89h15.69l2.89 2.89v11.03H5.06zm68.1-.45V57.06l2.88-2.89h15.7l2.89 2.89v11.03H73.16zm-48.4-31.93h2.88v2.88h-2.88zM11.66 24.6l10.69 10.19M8.85 26.3l3.58 3.58"/><path fill="#c5e0ef" d="M86.98 62.79l-3.09 3.09-3.08-3.09 3.08-4.85 3.09 4.85z"/><path fill="#c5e0ef" d="M86.98 54.27h-6.17l3.08 3.67 3.09-3.67z"/><path fill="none" stroke="#2069db" stroke-miterlimit="10" stroke-width="1.5" d="M13.63 7.02h4.44l3.33 3.32v4.44l-3.33 3.33h-4.44l-3.32-3.33v-4.44l3.32-3.32z"/><path fill="none" stroke="#2069db" stroke-miterlimit="10" stroke-width="1.5" d="M15.85 9.23v3.33l2.22 2.22m69.88 2.81l-1.01-3.02-6.03-6.03-1-1H78.9l-1 1v1.01l2 2.01h.01l5.02 5.02 3.02 1.01zM43.54 6.7l4.18.02 1.41 1.41 4.16-4.16h4.16l-8.32 8.32-5.59-5.59zM15.79 59.54v9m45.97-23.91v4.87l-3.91 3.9H42.23l-3.91-3.9v-4.87m-13.56-9.94h-7.29l-4.97-4.74-5.05 4.74v-7.18l2.89-2.89h11.54l2.88 2.89v7.18zm-4.97 19.82v3.39l-1.29 1.28h-5.15l-1.29-1.28v-3.39m48.88-36.27H39.21l-4.6 4.6v21.79h3.71V31.5l3.99.04 5.32-5.52v5.52l14.13-.04v13.13h3.78V22.84l-4.6-4.6zm-5.23 39.92v4.94l-1.88 1.88h-7.51l-1.87-1.88v-4.94m48.1-25.6H75.24v-5.05l2.88-2.89h11.54l2.89 2.89v5.05zm-5.57 30.23l-3.09 3.09-3.08-3.09 3.08-4.85 3.09 4.85zM86.98 54.27h-6.17l3.08 3.67 3.09-3.67z"/><path fill="none" opacity=".4" d="M0 0h100v80H0z"/></svg><view viewBox="244 0 102 82"/><svg data-name="Layer 1" viewBox="-1 -1 102 82" width="102" height="82" x="244"><title>icon-teams-mc</title><path fill="#d8e5f3" d="M6.05 2.36h71.53v11H6.05zm7.11 40.43V40.8l10.43-9.83 4.91 4.92 9.83-9.83 10.62 10.43v6.45l-35.79-.15z"/><path fill="none" stroke="#3b7ed5" stroke-miterlimit="10" stroke-width="1.5" d="M62.72 8.06h10.22M13 8.06h7.22m-7.37 11.2h36.19v23.16H12.85z"/><path fill="none" stroke="#3b7ed5" stroke-miterlimit="10" stroke-width="1.5" d="M12.93 40.86l10.53-10.03 5 5 9.99-10 10.58 10.58"/><path fill="#e7f1fa" d="M16.172 25.97l3.288-3.288 3.288 3.288-3.288 3.288z"/><path fill="none" stroke="#3b7ed5" stroke-miterlimit="10" stroke-width="1.5" d="M73.48 74.64h8.58v3h-8.58zm-1.79-7.83l-4.45-4.46v-8.91l5.94-6.1h8.91l5.61 6.1v8.91l-4.29 4.46"/><path fill="none" stroke="#3b7ed5" stroke-miterlimit="10" stroke-width="1.5" d="M71.69 66.81l-4.45-4.46v-8.91l5.94-6.1h8.91l5.61 6.1v8.91l-4.29 4.46"/><path fill="#d8e5f3" d="M75.95 66.49v-5.62l-2.64-4.29h8.91l-2.97 4.29v5.62"/><path fill="none" stroke="#3b7ed5" stroke-miterlimit="10" stroke-width="1.5" d="M71.72 66.64H83.6v4H71.72zm0 4H83.6v4H71.72zm16.31-24.76l4.29-4.28M91 57.9h5.95M67.24 45.95l-4.29-4.28m.98 16.23h-5.94M13.1 49.74h15.88M13.1 54.37h15.88m4.54-4.63h15.89m-15.89 4.63h15.89m-16.33 9.04h20.47m-20.47 4.67h17.17"/><path fill="#d8e5f3" d="M13.52 62h12v6h-12z"/><path fill="none" stroke="#3b7ed5" stroke-miterlimit="10" stroke-width="1.5" d="M77.58 41.94v-6.06m0-5.14V2.36H6.05v72.19h62.4"/><path fill="none" stroke="#3b7ed5" stroke-miterlimit="10" stroke-width="1.5" d="M56.19 22.12h3.47v9.34h-3.47zm3.47 8.36h7.54l2.05-7.41h-4.5l1.67-3.81h-2.43l-2.62 3.92h-1.71M13.52 62h12v6h-12zm2.652-36.03l3.288-3.288 3.288 3.288-3.288 3.288zM75.95 66.49v-5.62l-2.64-4.29h8.91l-2.97 4.29v5.62"/><path fill="none" opacity=".4" d="M0 0h100v80H0z"/></svg><view viewBox="204 164 102 82"/><svg data-name="Layer 4" viewBox="-1 -1 102 82" width="102" height="82" x="204" y="164"><title>icons-teams-mc-hover</title><path fill="#c5e0ef" d="M6.05 2.36h71.53v11H6.05zm7.11 40.43V40.8l10.43-9.83 4.91 4.92 9.83-9.83 10.62 10.43v6.45l-35.79-.15z"/><path fill="none" stroke="#2069db" stroke-miterlimit="10" stroke-width="1.5" d="M62.72 8.06h10.22M13 8.06h7.22m-7.37 11.2h36.19v23.16H12.85z"/><path fill="none" stroke="#2069db" stroke-miterlimit="10" stroke-width="1.5" d="M12.93 40.86l10.53-10.03 5 5 9.99-10 10.58 10.58"/><path fill="#c5e0ef" d="M16.17 25.983l3.287-3.288 3.288 3.288-3.288 3.29z"/><path fill="none" stroke="#2069db" stroke-miterlimit="10" stroke-width="1.5" d="M73.48 74.64h8.58v3h-8.58zm-1.79-7.83l-4.45-4.46v-8.91l5.94-6.1h8.91l5.61 6.1v8.91l-4.29 4.46"/><path fill="none" stroke="#2069db" stroke-miterlimit="10" stroke-width="1.5" d="M71.69 66.81l-4.45-4.46v-8.91l5.94-6.1h8.91l5.61 6.1v8.91l-4.29 4.46"/><path fill="#c5e0ef" d="M75.95 66.49v-5.62l-2.64-4.29h8.91l-2.97 4.29v5.62"/><path fill="none" stroke="#2069db" stroke-miterlimit="10" stroke-width="1.5" d="M71.72 66.64H83.6v4H71.72zm0 4H83.6v4H71.72zm16.31-24.76l4.29-4.28M91 57.9h5.95M67.24 45.95l-4.29-4.28m.98 16.23h-5.94M13.1 49.74h15.88M13.1 54.37h15.88m4.54-4.63h15.89m-15.89 4.63h15.89m-16.33 9.04h20.47m-20.47 4.67h17.17"/><path fill="#c5e0ef" d="M13.52 62h12v6h-12z"/><path fill="none" stroke="#2069db" stroke-miterlimit="10" stroke-width="1.5" d="M77.58 41.94v-6.06m0-5.14V2.36H6.05v72.19h62.4"/><path fill="none" stroke="#2069db" stroke-miterlimit="10" stroke-width="1.5" d="M56.19 22.12h3.47v9.34h-3.47zm3.47 8.36h7.54l2.05-7.41h-4.5l1.67-3.81h-2.43l-2.62 3.92h-1.71M13.52 62h12v6h-12zm2.65-36.017l3.287-3.288 3.288 3.288-3.288 3.29zM75.95 66.49v-5.62l-2.64-4.29h8.91l-2.97 4.29v5.62"/><path fill="none" opacity=".4" d="M0 0h100v80H0z"/></svg><view viewBox="0 0 122 82"/><svg data-name="Layer 1" viewBox="-1 -1 122 82" width="122" height="82"><title>icon-teams-mc-scaled</title><path fill="#d8e5f3" d="M21.05 2.36h71.53v11H21.05zm7.11 40.43V40.8l10.43-9.83 4.91 4.92 9.83-9.83 10.62 10.43v6.45l-35.79-.15z"/><path fill="none" stroke="#3b7ed5" stroke-miterlimit="10" stroke-width="1.5" d="M77.72 8.06h10.22M28 8.06h7.22m-7.37 11.2h36.19v23.16H27.85z"/><path fill="none" stroke="#3b7ed5" stroke-miterlimit="10" stroke-width="1.5" d="M27.93 40.86l10.53-10.03 5 5 9.99-10 10.58 10.58"/><path fill="#d8e5f3" d="M31.163 25.97l3.288-3.287 3.29 3.288-3.29 3.29z"/><path fill="none" stroke="#3b7ed5" stroke-miterlimit="10" stroke-width="1.5" d="M88.48 74.64h8.58v3h-8.58zm-1.79-7.83l-4.45-4.46v-8.91l5.94-6.1h8.91l5.61 6.1v8.91l-4.29 4.46"/><path fill="none" stroke="#3b7ed5" stroke-miterlimit="10" stroke-width="1.5" d="M86.69 66.81l-4.45-4.46v-8.91l5.94-6.1h8.91l5.61 6.1v8.91l-4.29 4.46"/><path fill="#d8e5f3" d="M90.95 66.49v-5.62l-2.64-4.29h8.91l-2.97 4.29v5.62"/><path fill="none" stroke="#3b7ed5" stroke-miterlimit="10" stroke-width="1.5" d="M86.72 66.64H98.6v4H86.72zm0 4H98.6v4H86.72zm16.31-24.76l4.29-4.28M106 57.9h5.95M82.24 45.95l-4.29-4.28m.98 16.23h-5.94M28.1 49.74h15.88M28.1 54.37h15.88m4.54-4.63h15.89m-15.89 4.63h15.89m-16.33 9.04h20.47m-20.47 4.67h17.17"/><path fill="#d8e5f3" d="M28.52 62h12v6h-12z"/><path fill="none" stroke="#3b7ed5" stroke-miterlimit="10" stroke-width="1.5" d="M92.58 41.94v-6.06m0-5.14V2.36H21.05v72.19h62.4"/><path fill="none" stroke="#3b7ed5" stroke-miterlimit="10" stroke-width="1.5" d="M71.19 22.12h3.47v9.34h-3.47zm3.47 8.36h7.54l2.05-7.41h-4.5l1.67-3.81h-2.43l-2.62 3.92h-1.71M28.52 62h12v6h-12zm2.643-36.03l3.288-3.287 3.29 3.288-3.29 3.29zM90.95 66.49v-5.62l-2.64-4.29h8.91l-2.97 4.29v5.62"/><path fill="none" opacity=".4" d="M0 0h120v80H0z"/></svg><view viewBox="244 82 102 82"/><svg data-name="Layer 1" viewBox="-1 -1 102 82" width="102" height="82" x="244" y="82"><title>icon-teams-pd</title><path fill="#d8e5f3" d="M1.8 12.5V5.97l3.99-4.03H72.2l3.55 4.03v6.53H1.8zm70.4 47.54H5.79L1.8 56.35v-4.24h73.95v4.24l-3.55 3.69zm10.15-5.28H98.2v5.28H82.35z"/><path fill="none" stroke="#3b7ed5" stroke-miterlimit="10" stroke-width="1.5" d="M90.28 60.04v7.92h-28.4V75m-38.32.39l2.64-16.01h25.59l2.64 15.94"/><path fill="none" stroke="#3b7ed5" stroke-miterlimit="10" stroke-width="1.5" d="M72.2 59.38H5.79L1.8 55.92V6.57L5.79 2.6H72.2l3.55 3.97v49.35l-3.55 3.46z"/><circle cx="8.76" cy="7.48" r="1.25" fill="#2069db"/><circle cx="13.3" cy="7.48" r="1.25" fill="#2069db"/><circle cx="17.84" cy="7.48" r="1.25" fill="#2069db"/><circle cx="38.99" cy="55.57" r="1.25" fill="#2069db"/><path fill="none" stroke="#3b7ed5" stroke-miterlimit="10" stroke-width="1.5" d="M11.71 18.62h19.81v6.6H11.71zm0 10.57h19.81v6.6H11.71zm0 10.56h19.81v6.6H11.71zm26.41-21.13h27.73v27.73H38.12z"/><path fill="none" stroke="#3b7ed5" stroke-miterlimit="10" stroke-width="1.5" d="M46.5 27.58l-4.48 4.47 4.22 4.22m11.34 0l4.47-4.48-4.22-4.21m-3.21-3.03l-6.11 15.52M62.54 7.22h7.27m12.54 27.07H98.2v25.75H82.35z"/><circle cx="90.28" cy="57.01" r="1" fill="#2069db"/><path fill="none" stroke="#3b7ed5" stroke-miterlimit="10" stroke-width="1.5" d="M86.31 41.51h7.93m-7.93 3.84h7.93M75.09 75.32l-72.63.08"/><path fill="none" opacity=".4" d="M0 0h100v80H0z"/></svg><view viewBox="0 164 102 82"/><svg data-name="Layer 4" viewBox="-1 -1 102 82" width="102" height="82" y="164"><title>icons-teams-pd-hover</title><path fill="#c5e0ef" d="M1.8 12.5V5.97l3.99-4.03H72.2l3.55 4.03v6.53H1.8zm70.4 47.54H5.79L1.8 56.35v-4.24h73.95v4.24l-3.55 3.69zm10.15-5.28H98.2v5.28H82.35z"/><path fill="none" stroke="#2069db" stroke-miterlimit="10" stroke-width="1.5" d="M90.28 60.04v7.92h-28.4V75m-38.32.39l2.64-16.01h25.59l2.64 15.94"/><path fill="none" stroke="#2069db" stroke-miterlimit="10" stroke-width="1.5" d="M72.2 59.38H5.79L1.8 55.92V6.57L5.79 2.6H72.2l3.55 3.97v49.35l-3.55 3.46z"/><circle cx="8.76" cy="7.48" r="1.25" fill="#2069db"/><circle cx="13.3" cy="7.48" r="1.25" fill="#2069db"/><circle cx="17.84" cy="7.48" r="1.25" fill="#2069db"/><circle cx="38.99" cy="55.57" r="1.25" fill="#2069db"/><path fill="none" stroke="#2069db" stroke-miterlimit="10" stroke-width="1.5" d="M11.71 18.62h19.81v6.6H11.71zm0 10.57h19.81v6.6H11.71zm0 10.56h19.81v6.6H11.71zm26.41-21.13h27.73v27.73H38.12z"/><path fill="none" stroke="#2069db" stroke-miterlimit="10" stroke-width="1.5" d="M46.5 27.58l-4.48 4.47 4.22 4.22m11.34 0l4.47-4.48-4.22-4.21m-3.21-3.03l-6.11 15.52M62.54 7.22h7.27m12.54 27.07H98.2v25.75H82.35z"/><circle cx="90.28" cy="57.01" r="1" fill="#2069db"/><path fill="none" stroke="#2069db" stroke-miterlimit="10" stroke-width="1.5" d="M86.31 41.51h7.93m-7.93 3.84h7.93M75.09 75.32l-72.63.08"/><path fill="none" opacity=".4" d="M0 0h100v80H0z"/></svg><view viewBox="0 82 122 82"/><svg data-name="Layer 1" viewBox="-1 -1 122 82" width="122" height="82" y="82"><title>icon-teams-pd-scaled</title><path fill="#d8e5f3" d="M22.8 12.5V5.97l3.99-4.03H93.2l3.55 4.03v6.53H22.8zm70.4 47.54H26.79l-3.99-3.69v-4.24h73.95v4.24l-3.55 3.69zm10.15-5.28h15.85v5.28h-15.85z"/><path fill="none" stroke="#3b7ed5" stroke-miterlimit="10" stroke-width="1.5" d="M111.28 60.04v7.92h-28.4V75m-38.32.39l2.64-16.01h25.59l2.64 15.94"/><path fill="none" stroke="#3b7ed5" stroke-miterlimit="10" stroke-width="1.5" d="M93.2 59.38H26.79l-3.99-3.46V6.57l3.99-3.97H93.2l3.55 3.97v49.35l-3.55 3.46z"/><circle cx="29.76" cy="7.48" r="1.25" fill="#2069db"/><circle cx="34.3" cy="7.48" r="1.25" fill="#2069db"/><circle cx="38.84" cy="7.48" r="1.25" fill="#2069db"/><circle cx="59.99" cy="55.57" r="1.25" fill="#2069db"/><path fill="none" stroke="#3b7ed5" stroke-miterlimit="10" stroke-width="1.5" d="M32.71 18.62h19.81v6.6H32.71zm0 10.57h19.81v6.6H32.71zm0 10.56h19.81v6.6H32.71zm26.41-21.13h27.73v27.73H59.12z"/><path fill="none" stroke="#3b7ed5" stroke-miterlimit="10" stroke-width="1.5" d="M67.5 27.58l-4.48 4.47 4.22 4.22m11.34 0l4.47-4.48-4.22-4.21m-3.21-3.03l-6.11 15.52M83.54 7.22h7.27m12.54 27.07h15.85v25.75h-15.85z"/><circle cx="111.28" cy="57.01" r="1" fill="#2069db"/><path fill="none" stroke="#3b7ed5" stroke-miterlimit="10" stroke-width="1.5" d="M107.31 41.51h7.93m-7.93 3.84h7.93M96.09 75.32l-72.63.08"/><path fill="none" opacity=".4" d="M0 0h120v80H0z"/></svg><view viewBox="0 246 102 82"/><svg data-name="Layer 1" viewBox="-1 -1 102 82" width="102" height="82" y="246"><title>icon-teams-pm</title><path fill="#d8e5f3" d="M9.19 50.69H67.7v6.6H9.19z"/><path fill="none" stroke="#3b7ed5" stroke-miterlimit="10" stroke-width="1.5" d="M53.62 28.03l-5.46-5.47h-4.52"/><path fill="#d8e5f3" d="M7.21 2.5h75.27v4.62H7.21z"/><path fill="none" stroke="#3b7ed5" stroke-miterlimit="10" stroke-width="1.5" d="M16.79 45.91l7.25-7.25 3.45 3.45 9.2-9.2 6.72 6.72 11.67-11.67 4.16 4.16 15.21-15.5"/><path fill="none" stroke="#3b7ed5" stroke-miterlimit="10" stroke-width="1.5" d="M70.67 16.62h4.01v3.84M21.64 37.64l-3.86-3.85h-4.51M35.5 31.7l-3.85-3.85h-4.51m.61 33.4H57.5m-.58-3.62l2.91 18.9m-33.93.09l2.91-18.99"/><circle cx="23.34" cy="38.82" r="1.71" fill="#d8e5f3"/><circle cx="36.44" cy="32.85" r="1.71" fill="#d8e5f3"/><circle cx="54.59" cy="28.38" r="1.71" fill="#d8e5f3"/><path fill="none" stroke="#3b7ed5" stroke-miterlimit="10" stroke-width="1.5" d="M67.63 57.3H9.19V7.12H80.5v27.07"/><path fill="none" stroke="#3b7ed5" stroke-miterlimit="10" stroke-width="1.5" d="M67.7 36.17h25.09v33.01H67.7zm4.62 10.56h15.85M72.32 51.9h15.85m-15.85 5.16h15.85"/><path fill="#d8e5f3" d="M73.97 34.19h12.54v3.96H73.97z"/><path fill="none" stroke="#3b7ed5" stroke-miterlimit="10" stroke-width="1.5" d="M73.97 34.19h12.54v3.96H73.97zM7.21 2.5h75.27v4.62H7.21z"/><circle cx="23.34" cy="38.82" r="1.71" fill="none" stroke="#3b7ed5" stroke-miterlimit="10" stroke-width="1.5"/><circle cx="36.44" cy="32.85" r="1.71" fill="none" stroke="#3b7ed5" stroke-miterlimit="10" stroke-width="1.5"/><circle cx="54.59" cy="28.38" r="1.71" fill="none" stroke="#3b7ed5" stroke-miterlimit="10" stroke-width="1.5"/><path fill="none" opacity=".4" d="M0 0h100v80H0z"/></svg><view viewBox="122 82 102 82"/><svg data-name="Layer 4" viewBox="-1 -1 102 82" width="102" height="82" x="122" y="82"><title>icons-teams-pm-hover</title><path fill="#c5e0ef" d="M9.19 50.69H67.7v6.6H9.19z"/><path fill="none" stroke="#2069db" stroke-miterlimit="10" stroke-width="1.5" d="M53.62 28.03l-5.46-5.47h-4.52"/><path fill="#c5e0ef" d="M7.21 2.5h75.27v4.62H7.21z"/><path fill="none" stroke="#2069db" stroke-miterlimit="10" stroke-width="1.5" d="M16.79 45.91l7.25-7.25 3.45 3.45 9.2-9.2 6.72 6.72 11.67-11.67 4.16 4.16 15.21-15.5"/><path fill="none" stroke="#2069db" stroke-miterlimit="10" stroke-width="1.5" d="M70.67 16.62h4.01v3.84M21.64 37.64l-3.86-3.85h-4.51M35.5 31.7l-3.85-3.85h-4.51m.61 33.4H57.5m-.58-3.62l2.91 18.9m-33.93.09l2.91-18.99"/><circle cx="23.34" cy="38.82" r="1.71" fill="#c5e0ef"/><circle cx="36.44" cy="32.85" r="1.71" fill="#c5e0ef"/><circle cx="54.59" cy="28.38" r="1.71" fill="#c5e0ef"/><path fill="none" stroke="#2069db" stroke-miterlimit="10" stroke-width="1.5" d="M67.63 57.3H9.19V7.12H80.5v27.07"/><path fill="none" stroke="#2069db" stroke-miterlimit="10" stroke-width="1.5" d="M67.7 36.17h25.09v33.01H67.7zm4.62 10.56h15.85M72.32 51.9h15.85m-15.85 5.16h15.85"/><path fill="#c5e0ef" d="M73.97 34.19h12.54v3.96H73.97z"/><path fill="none" stroke="#2069db" stroke-miterlimit="10" stroke-width="1.5" d="M73.97 34.19h12.54v3.96H73.97zM7.21 2.5h75.27v4.62H7.21z"/><circle cx="23.34" cy="38.82" r="1.71" fill="none" stroke="#2069db" stroke-miterlimit="10" stroke-width="1.5"/><circle cx="36.44" cy="32.85" r="1.71" fill="none" stroke="#2069db" stroke-miterlimit="10" stroke-width="1.5"/><circle cx="54.59" cy="28.38" r="1.71" fill="none" stroke="#2069db" stroke-miterlimit="10" stroke-width="1.5"/><path fill="none" opacity=".4" d="M0 0h100v80H0z"/></svg><view viewBox="122 0 122 82"/><svg data-name="Layer 1" viewBox="-1 -1 122 82" width="122" height="82" x="122"><title>icon-teams-pm-scaled</title><path fill="#d8e5f3" d="M24.19 50.69H82.7v6.6H24.19z"/><path fill="none" stroke="#3b7ed5" stroke-miterlimit="10" stroke-width="1.5" d="M68.62 28.03l-5.46-5.47h-4.52"/><path fill="#d8e5f3" d="M22.21 2.5h75.27v4.62H22.21z"/><path fill="none" stroke="#3b7ed5" stroke-miterlimit="10" stroke-width="1.5" d="M31.79 45.91l7.25-7.25 3.45 3.45 9.2-9.2 6.72 6.72 11.67-11.67 4.16 4.16 15.21-15.5"/><path fill="none" stroke="#3b7ed5" stroke-miterlimit="10" stroke-width="1.5" d="M85.67 16.62h4.01v3.84M36.64 37.64l-3.86-3.85h-4.51M50.5 31.7l-3.85-3.85h-4.51m.61 33.4H72.5m-.58-3.62l2.91 18.9m-33.93.09l2.91-18.99"/><circle cx="38.34" cy="38.82" r="1.71" fill="#d8e5f3"/><circle cx="51.44" cy="32.85" r="1.71" fill="#d8e5f3"/><circle cx="69.59" cy="28.38" r="1.71" fill="#d8e5f3"/><path fill="none" stroke="#3b7ed5" stroke-miterlimit="10" stroke-width="1.5" d="M82.63 57.3H24.19V7.12H95.5v27.07"/><path fill="none" stroke="#3b7ed5" stroke-miterlimit="10" stroke-width="1.5" d="M82.7 36.17h25.09v33.01H82.7zm4.62 10.56h15.85M87.32 51.9h15.85m-15.85 5.16h15.85"/><path fill="#d8e5f3" d="M88.97 34.19h12.54v3.96H88.97z"/><path fill="none" stroke="#3b7ed5" stroke-miterlimit="10" stroke-width="1.5" d="M88.97 34.19h12.54v3.96H88.97zM22.21 2.5h75.27v4.62H22.21z"/><circle cx="38.34" cy="38.82" r="1.71" fill="none" stroke="#3b7ed5" stroke-miterlimit="10" stroke-width="1.5"/><circle cx="51.44" cy="32.85" r="1.71" fill="none" stroke="#3b7ed5" stroke-miterlimit="10" stroke-width="1.5"/><circle cx="69.59" cy="28.38" r="1.71" fill="none" stroke="#3b7ed5" stroke-miterlimit="10" stroke-width="1.5"/><path fill="none" opacity=".4" d="M0 0h120v80H0z"/></svg><view viewBox="530.15 432 72 72"/><svg data-name="Layer 1" viewBox="-1 -1 72 72" width="72" height="72" x="530.15" y="432"><title>icon-top-collaborate</title><path fill="#3b7ed5" opacity=".3" d="M19 18.68h32v24H19z"/><path fill="none" stroke="#3b7ed5" stroke-miterlimit="10" stroke-width="1.5" d="M19 56.68l-8 8v-8H5v-38h46v38H19z"/><path fill="none" stroke="#3b7ed5" stroke-miterlimit="10" stroke-width="1.5" d="M51 42.68l8 8v-8h6v-38H19v38h32z"/><path fill="#e0f0ff" stroke="#3b7ed5" stroke-miterlimit="10" stroke-width="1.5" d="M32.994 30.68l2-2.002 2.003 2-2.002 2.002zm-7.997-.004l2.002-2 2 2-2 2zM41 30.682l2.002-2 2 2-2 2z"/><path fill="none" opacity=".4" d="M0 0h70v70H0z"/></svg><view viewBox="0 512 72 72"/><svg data-name="Layer 3" viewBox="-1 -1 72 72" width="72" height="72" y="512"><title>icon-top-collaborate-hover</title><path fill="#136dbf" opacity=".3" d="M19 18.68h32v24H19z"/><path fill="none" stroke="#2069db" stroke-miterlimit="10" stroke-width="1.5" d="M19 56.68l-8 8v-8H5v-38h46v38H19z"/><path fill="none" stroke="#2069db" stroke-miterlimit="10" stroke-width="1.5" d="M51 42.68l8 8v-8h6v-38H19v38h32z"/><path fill="none" stroke="#2069db" stroke-miterlimit="10" stroke-width="1.5" d="M33 30.686l2.002-2 2 2-2 2zm-7.996-.004l2-2 2.003 2-2.002 2.002zm15.994-.002l2-2.002 2.002 2-2 2.002z"/><path fill="none" opacity=".4" d="M0 0h70v70H0z"/></svg><view viewBox="72 512 72 72"/><svg data-name="Layer 1" viewBox="-1 -1 72 72" width="72" height="72" x="72" y="512"><title>icon-top-create</title><path fill="#3b7ed5" opacity=".3" d="M5.008 61L35.01 30.996 39.013 35 9.01 65z"/><path fill="none" stroke="#3b7ed5" stroke-miterlimit="10" stroke-width="1.5" d="M5.002 61.004l40-40 4.003 4.002-40 40zM35 31l4 4m6-30v8m12 12h8m-40 0h8m12 12v8m8-12l6 6m-6-22l6-6m-28 0l6 6"/><path fill="none" opacity=".4" d="M0 0h70v70H0z"/></svg><view viewBox="144 512 72 72"/><svg data-name="Layer 3" viewBox="-1 -1 72 72" width="72" height="72" x="144" y="512"><title>icon-top-create-hover</title><path fill="#136dbf" opacity=".3" d="M4.998 61L35 30.995 39.002 35 9 65z"/><path fill="none" stroke="#2069db" stroke-miterlimit="10" stroke-width="1.5" d="M4.99 61.004l40.002-40 4.003 4-40 40.002zM35 31l4 4m6-30v8m12 12h8m-40 0h8m12 12v8m8-12l6 6m-6-22l6-6m-28 0l6 6"/><path fill="none" opacity=".4" d="M0 0h70v70H0z"/></svg><view viewBox="276 420 72 72"/><svg data-name="Layer 1" viewBox="-1 -1 72 72" width="72" height="72" x="276" y="420"><title>icon-top-customise</title><path fill="#3b7ed5" opacity=".3" d="M17 11h12l2 2v8l2 2h2l2-2v-8l2-2 2 2v6l2 2 2-2v-6l2-2h6V5H17v6z"/><path fill="none" stroke="#3b7ed5" stroke-miterlimit="10" stroke-width="1.5" d="M15 29v12l2 2 14 2-2 16 4 4h4l4-4-2-16 14-2 2-2V29H15zm0 6h40M17 5h36v24H17z"/><path fill="none" stroke="#3b7ed5" stroke-miterlimit="10" stroke-width="1.5" d="M17 11h12l2 2v8l2 2h2l2-2v-8l2-2 2 2v6l2 2 2-2v-6l2-2h6"/><path fill="none" opacity=".4" d="M0 0h70v70H0z"/></svg><view viewBox="288 512 72 72"/><svg data-name="Layer 3" viewBox="-1 -1 72 72" width="72" height="72" x="288" y="512"><title>icon-top-customise-hover</title><path fill="#136dbf" opacity=".3" d="M17 11h12l2 2v8l2 2h2l2-2v-8l2-2 2 2v6l2 2 2-2v-6l2-2h6V5H17v6z"/><path fill="none" stroke="#2069db" stroke-miterlimit="10" stroke-width="1.5" d="M15 29v12l2 2 14 2-2 16 4 4h4l4-4-2-16 14-2 2-2V29H15zm0 6h40M17 5h36v24H17z"/><path fill="none" stroke="#2069db" stroke-miterlimit="10" stroke-width="1.5" d="M17 11h12l2 2v8l2 2h2l2-2v-8l2-2 2 2v6l2 2 2-2v-6l2-2h6"/><path fill="none" opacity=".4" d="M0 0h70v70H0z"/></svg><view viewBox="360 512 72 72"/><svg data-name="Layer 1" viewBox="-1 -1 72 72" width="72" height="72" x="360" y="512"><title>icon-top-integrate</title><path fill="#3b7ed5" opacity=".3" d="M14.917 35.08l4.08-4.08 19.997 19.997-4.08 4.08zM65 15L55 5H45l-10 9 20 20 10-9V15z"/><path fill="none" stroke="#3b7ed5" stroke-miterlimit="10" stroke-width="1.5" d="M5 55l10 10h10l14-14-20-20L5 45v10z"/><path fill="none" stroke="#3b7ed5" stroke-miterlimit="10" stroke-width="1.5" d="M24 36l7-7 2 2-7 7m6 6l7-7 2 2-7 7M5 63v2h2l4-4-2-2-4 4zM65 7V5h-2l-4 4 2 2 4-4z"/><path fill="none" stroke="#3b7ed5" stroke-miterlimit="10" stroke-width="1.5" d="M65 15L55 5H45L31 19l20 20 14-14V15zm-26.6 6.6l2 2m5.3 5.3l2 2"/><path fill="none" opacity=".4" d="M0 0h70v70H0z"/></svg><view viewBox="216 512 72 72"/><svg data-name="Layer 3" viewBox="-1 -1 72 72" width="72" height="72" x="216" y="512"><title>icon-top-integrate-hover</title><path fill="#136dbf" opacity=".3" d="M14.917 35.08l4.08-4.08 19.997 19.997-4.08 4.08zM65 15L55 5H45l-10 9 20 20 10-9V15z"/><path fill="none" stroke="#2069db" stroke-miterlimit="10" stroke-width="1.5" d="M5 55l10 10h10l14-14-20-20L5 45v10z"/><path fill="none" stroke="#2069db" stroke-miterlimit="10" stroke-width="1.5" d="M24 36l7-7 2 2-7 7m6 6l7-7 2 2-7 7M5 63v2h2l4-4-2-2-4 4zM65 7V5h-2l-4 4 2 2 4-4z"/><path fill="none" stroke="#2069db" stroke-miterlimit="10" stroke-width="1.5" d="M65 15L55 5H45L31 19l20 20 14-14V15zm-26.6 6.6l2 2m5.3 5.3l2 2"/><path fill="none" opacity=".4" d="M0 0h70v70H0z"/></svg><view viewBox="530.15 360 72 72"/><svg data-name="Layer 1" viewBox="-1 -1 72 72" width="72" height="72" x="530.15" y="360"><title>icon-top-plan</title><path fill="#3b7ed5" opacity=".3" d="M15 40.68h4l2 2v4l-2 2h-4l-2-2v-4l2-2zm36-12h4l2 2v4l-2 2h-4l-2-2v-4l2-2zm4-18v10h10"/><path fill="none" stroke="#3b7ed5" stroke-miterlimit="10" stroke-width="1.5" d="M65 58.68H5v-48h50l10 10v38z"/><path fill="none" stroke="#3b7ed5" stroke-miterlimit="10" stroke-width="1.5" d="M55 10.68v10h10m-52 4l8 8m0-8l-8 8m14-14l8 8m0-8l-8 8m14 16l8 8m0-8l-8 8m-2-22l4 4-4 4"/><path fill="none" stroke="#3b7ed5" stroke-miterlimit="10" stroke-width="1.5" d="M43 32.68h-8l-2 2v8l-2 2h-6m-10-4h4l2 2v4l-2 2h-4l-2-2v-4l2-2zm36-12h4l2 2v4l-2 2h-4l-2-2v-4l2-2z"/><path fill="none" opacity=".4" d="M0 0h70v70H0z"/></svg><view viewBox="530.15 288 72 72"/><svg data-name="Layer 3" viewBox="-1 -1 72 72" width="72" height="72" x="530.15" y="288"><title>icon-top-plan-hover</title><path fill="#136dbf" opacity=".3" d="M15 40.68h4l2 2v4l-2 2h-4l-2-2v-4l2-2zm36-12h4l2 2v4l-2 2h-4l-2-2v-4l2-2zm4-18v10h10"/><path fill="none" stroke="#2069db" stroke-miterlimit="10" stroke-width="1.5" d="M65 58.68H5v-48h50l10 10v38z"/><path fill="none" stroke="#2069db" stroke-miterlimit="10" stroke-width="1.5" d="M55 10.68v10h10m-52 4l8 8m0-8l-8 8m14-14l8 8m0-8l-8 8m14 16l8 8m0-8l-8 8m-2-22l4 4-4 4"/><path fill="none" stroke="#2069db" stroke-miterlimit="10" stroke-width="1.5" d="M43 32.68h-8l-2 2v8l-2 2h-6m-10-4h4l2 2v4l-2 2h-4l-2-2v-4l2-2zm36-12h4l2 2v4l-2 2h-4l-2-2v-4l2-2z"/><path fill="none" opacity=".4" d="M0 0h70v70H0z"/></svg><view viewBox="530.15 216 72 72"/><svg data-name="Layer 1" viewBox="-1 -1 72 72" width="72" height="72" x="530.15" y="216"><title>icon-top-report</title><path fill="#3b7ed5" opacity=".3" d="M19 43.68h8v9h-8zm12-17.79h8v26.79h-8zM43 35h8v17.68h-8zm4-30.32v10h10"/><path fill="none" stroke="#3b7ed5" stroke-miterlimit="10" stroke-width="1.5" d="M57 64.68H13v-60h34l10 10v50z"/><path fill="none" stroke="#3b7ed5" stroke-miterlimit="10" stroke-width="1.5" d="M47 4.68v10h10m-38 20h8v18h-8zm12-14h8v32h-8zm12 8h8v24h-8z"/><path fill="none" opacity=".4" d="M0 0h70v70H0z"/></svg><view viewBox="530.15 144 72 72"/><svg data-name="Layer 3" viewBox="-1 -1 72 72" width="72" height="72" x="530.15" y="144"><title>icon-top-report-hover</title><path fill="#136dbf" opacity=".3" d="M19 43.68h8v9h-8zm12-17.79h8v26.79h-8zM43 35h8v17.68h-8zm4-30.32v10h10"/><path fill="none" stroke="#2069db" stroke-miterlimit="10" stroke-width="1.5" d="M57 64.68H13v-60h34l10 10v50z"/><path fill="none" stroke="#2069db" stroke-miterlimit="10" stroke-width="1.5" d="M47 4.68v10h10m-38 20h8v18h-8zm12-14h8v32h-8zm12 8h8v24h-8z"/><path fill="none" opacity=".4" d="M0 0h70v70H0z"/></svg><view viewBox="530.15 72 72 72"/><svg data-name="Layer 1" viewBox="-1 -1 72 72" width="72" height="72" x="530.15" y="72"><title>icon-top-security</title><path fill="#3b7ed5" opacity=".3" d="M35 65V5l26 10-6 38-20 12z"/><path fill="none" stroke="#3b7ed5" stroke-miterlimit="10" stroke-width="1.5" d="M35 65L15 53 9 15 35 5l26 10-6 38-20 12z"/><path fill="#e0f0ff" stroke="#3b7ed5" stroke-miterlimit="10" stroke-width="1.5" d="M44.1 24.69L27.43 41.36l4.96 4.95 21.62-21.62H44.1z"/><path fill="#e0f0ff" stroke="#3b7ed5" stroke-miterlimit="10" stroke-width="1.5" d="M29.41 33.43H19.5l12.89 12.88 4.95-4.95-7.93-7.93z"/><path fill="none" opacity=".4" d="M0 0h70v70H0z"/></svg><view viewBox="530.15 0 72 72"/><svg data-name="Layer 3" viewBox="-1 -1 72 72" width="72" height="72" x="530.15"><title>icon-top-security-hover</title><path fill="#136dbf" opacity=".3" d="M35 65V5l26 10-6 38-20 12z"/><path fill="none" stroke="#2069db" stroke-miterlimit="10" stroke-width="1.5" d="M35 65L15 53 9 15 35 5l26 10-6 38-20 12z"/><path fill="#e0f0ff" stroke="#2069db" stroke-miterlimit="10" stroke-width="1.5" d="M44.1 24.69L27.43 41.36l4.96 4.95 21.62-21.62H44.1z"/><path fill="#e0f0ff" stroke="#2069db" stroke-miterlimit="10" stroke-width="1.5" d="M29.41 33.43H19.5l12.89 12.88 4.95-4.95-7.93-7.93z"/><path fill="none" opacity=".4" d="M0 0h70v70H0z"/></svg><view viewBox="420 420 72 72"/><svg data-name="Layer 1" viewBox="-1 -1 72 72" width="72" height="72" x="420" y="420"><title>icon-top-support</title><path fill="#3b7ed5" opacity=".3" d="M30.93 8.82h7.99v10.4h-7.99zm0 42h7.99v10.4h-7.99zm30.19-19.79v7.99h-10.4v-7.99zm-42 0v7.99H8.72v-7.99z"/><path fill="none" stroke="#3b7ed5" stroke-miterlimit="10" stroke-width="1.5" d="M60.92 45.94l-15.4 15.21-21.63-.13L8.68 45.63l.13-21.64L24.2 8.78l21.64.13L61.05 24.3l-.13 21.64z"/><path fill="none" stroke="#3b7ed5" stroke-miterlimit="10" stroke-width="1.5" d="M50.55 41.57l-9.27 9.16-13.03-.08-9.15-9.27.08-13.02 9.26-9.16 13.03.08 9.16 9.27-.08 13.02zM30.93 8.82v10.4m7.99-10.4v10.4m-7.99 31.49v10.4m7.99-10.4v10.4m22.4-29.89h-10.4m10.4 7.99h-10.4m-31.49-7.99H9.04m10.39 7.99H9.04"/><path fill="none" opacity=".4" d="M0 0h70v70H0z"/></svg><view viewBox="348 420 72 72"/><svg data-name="Layer 3" viewBox="-1 -1 72 72" width="72" height="72" x="348" y="420"><title>icon-top-support-hover</title><path fill="#136dbf" opacity=".3" d="M30.93 8.82h7.99v10.4h-7.99zm0 42h7.99v10.4h-7.99zm30.2-19.79v7.99h-10.4v-7.99zm-42 0v7.99H8.73v-7.99z"/><path fill="none" stroke="#2069db" stroke-miterlimit="10" stroke-width="1.5" d="M60.92 45.94l-15.4 15.21-21.63-.13L8.68 45.63l.13-21.64L24.2 8.78l21.64.13L61.05 24.3l-.13 21.64z"/><path fill="none" stroke="#2069db" stroke-miterlimit="10" stroke-width="1.5" d="M50.55 41.57l-9.27 9.16-13.03-.08-9.15-9.27.08-13.02 9.26-9.16 13.03.08 9.16 9.27-.08 13.02zM30.93 8.82v10.4m7.99-10.4v10.4m-7.99 31.49v10.4m7.99-10.4v10.4m22.4-29.89h-10.4m10.4 7.99h-10.4m-31.49-7.99H9.04m10.39 7.99H9.04"/><path fill="none" opacity=".4" d="M0 0h70v70H0z"/></svg><view viewBox="432 512 71.66 68.82"/><svg data-name="Layer 1" viewBox="-1 -1 71.66 68.82" width="71.66" height="68.82" x="432" y="512"><title>logo-canucksNHL</title><path d="M34.02 40.27l15.92-7.92c10.73 3.02 13.88 6.29 13.88 6.29l4.93-5.54a3.82 3.82 0 0 0 .92-2.73c0-1.73-2.68-3.56-4.1-4.58-2.95-8-19.23-9.4-21-13.14-.71-1.51-1.65-5.1-3-9.48C40.49 0 37.31 0 35.72 0a26.43 26.43 0 0 0-3.49.32c0 3.23-.61 12.63-2.12 14.27-.38.47-3.15 1.58-6.17 2.75l.9.61-.13.13c2.64-1.27 4.85-1.83 6.2-3 2.22-2.22 2.51-12.89 2.51-14.1 0 0 4.39-.6 6.1.71s3.11 9.88 4 11.24c3.36 4.88 18.31 5.44 21 13.23-7.07-.79-9-2.49-9-3.58a.57.57 0 0 1 .7-.52 7.79 7.79 0 0 1 4.93 2.43c-.7-1.85-5-4-7.72-4a1.08 1.08 0 0 0-1.28 1c0 1.74 2.63 4 9.38 4.49 3.62.86 7.38 2.86 6.65 5.48a1.62 1.62 0 0 1-.35.48c-3-2.06-6.52-4.51-9-4.51-2 0-5 1.26-9 3.27-4.19 2.09-9.53 5-16.19 8.07-2.12.6-10.75.23-10.75.23L38.6 27.23c-12.62.74-18.51 11.56-18.83 12.17.9 4.52 5.32 13.82 20.9 13.82a53.76 53.76 0 0 0 20-3.92l4 9a50.4 50.4 0 0 1-26.53 7.34c-32.75 0-36.91-25.66-36.91-25.66 4.52-12 12.12-17.31 17-19.54l-1.52-.17-.13-.45a36.82 36.82 0 0 0-16.53 20s3.88 27 38.15 27c17.53 0 28.14-8.1 28.14-8.1l-5-11a54 54 0 0 1-20.67 4.29c-16.91 0-19.4-11.5-19.4-11.5s9.67.59 12.75-.24zm25.65-11.51c2.31.42 7.74 4 7.74 4l-2.45 3c-2-1.76-11.36-5.51-11.36-5.51s3.74-1.91 6.07-1.49z" fill="#fff" fill-rule="evenodd"/><path d="M68.46 30.33c0-1.6-2.12-2.67-3.91-4.11-7.09-.79-9-2.49-9-3.58a.57.57 0 0 1 .7-.52 7.75 7.75 0 0 1 4.92 2.42c-.7-1.85-5-4-7.72-4a1.08 1.08 0 0 0-1.28 1c0 1.74 2.63 3.94 9.38 4.49 3.62.86 7.38 2.86 6.65 5.47a2.41 2.41 0 0 0 .26-1.13m-13.27-.06l2.63.93a6.45 6.45 0 0 0 1.05-.52.19.19 0 0 0-.07-.23c-.07-.07-1.25-.51-2-.77zm2.22-.83c.7.28 1.66.67 1.75.68a1.29 1.29 0 0 0 .41 0c.1-.02.65-.31 1.1-.52a4.94 4.94 0 0 0-1.78-.58 4.55 4.55 0 0 0-1.46.42m2.57.9c0 .06 0 .09.09.16a15.89 15.89 0 0 0 1.58.79.73.73 0 0 0 .31 0 7.61 7.61 0 0 0 .88-.54l-1.82-1a9.31 9.31 0 0 0-1 .58m1.26 1.45a.26.26 0 0 0 0-.17 10.23 10.23 0 0 0-1.59-.81.66.66 0 0 0-.38 0l-1 .57 2.11 1a7.58 7.58 0 0 0 .88-.58m2.58.73a1.06 1.06 0 0 0 .34-.07 4.86 4.86 0 0 0 .6-.45l-1.63-1a7.58 7.58 0 0 0-.85.58.3.3 0 0 0 .09.17zm.67.16c0 .09-.06.13 0 .16l1.47 1 .59-.71-1.46-.93a5.89 5.89 0 0 0-.6.48m-.9.28a.17.17 0 0 0 0-.19 13.42 13.42 0 0 0-1.49-.8.85.85 0 0 0-.42 0 7 7 0 0 0-.79.54l2 .93a5.58 5.58 0 0 0 .7-.48m.32.26a7.05 7.05 0 0 0-.71.52l1.81 1.12.67-.74c-.55-.38-1.34-.92-1.41-.94a1 1 0 0 0-.35 0m-3.95 17.42a55.71 55.71 0 0 1-19.31 3.55c-18 0-22.48-12.25-22.48-16.88a20.76 20.76 0 0 1 .16-2.59l-4.14 1.35.54 1.16-3.22 1.16-2.77 1.82 5.65 1-1.17 4 2.42-.71 2.32 5.89 2.79-.36.92 4.14s5.24 3.62 14.09 4.4a56 56 0 0 0 22.19-2.94s-12.5 4.88-23.85 3.68a36.65 36.65 0 0 1-14.33-4.43l-.07-3.74h-3.43l-1.62-5.71-3 1.42 1.34-5.12-5.85-.71 1.2-3.58 1.39-2.79H7.95l7.82-5.8-3.47-1.21 5.56-1-1.94-3.88 3.43 1.95 1.32-4.27c-4.11 1.42-13 6-18.09 19.29.63 3.05 6 24.22 35.54 24.22a50.69 50.69 0 0 0 24.98-6.51zM21.77 20.2l1.69-2.26-8.25-5.69 2.37 6.92 4.19 1.03zm19.52-5.7a10.32 10.32 0 0 1-2.9-1.74c-.61-.77-1.34-8.53-1.34-8.53s-.13 7.91-.58 8.62a13 13 0 0 1-2.74 2 20.71 20.71 0 0 1 3.76-.89 25.65 25.65 0 0 1 3.81.54" fill="#fff" fill-rule="evenodd"/><path fill="#fff" fill-rule="evenodd" d="M29.48 27.71l-3.09-1.79-2.19 1.15 5.28.64zm-5.67-6.17l.58 2.57 3.71-4.98-4.29 2.41zm-2.19 5.95l-6.35 4.29 5.75-.9.6-3.39z"/></svg><view viewBox="204 246 82 65.5"/><svg data-name="Layer 1" viewBox="-1 -1 82 65.5" width="82" height="65.5" x="204" y="246"><title>report_bubble</title><path fill="#dfe6ea" d="M0 0h80v55H0z"/><path fill="#aabfce" d="M10 22.5h21.38v21.38H10z"/><path fill="#ebf1f2" d="M18.93 36.66l-2.67-2.67v-3.77l2.67-2.67h3.77l2.67 2.67v3.77l-2.67 2.67h-3.77zm12.45 7.22H10l3.71-4.65h14.56l3.11 4.65z"/><path fill="#8a9ea8" d="M44.86 8.52v6H10v-6z"/><path fill="#aabfce" d="M73.02 22.5v4H35.49v-4zm-12.01 7.19v4H35.48v-4z"/><path fill="#dfe6ea" d="M65.39 54v9.5l-11.83-9.33L65.39 54z"/></svg></svg>