<svg xmlns="http://www.w3.org/2000/svg" viewBox="0 0 71 43"><path fill="#fff" d="M32.23 32.64l18.14-5.9L52.9 8.7l-18.13 5.9-2.54 18.04zm5.89-15.82l10.45-3.39-.65 3.78-10.46 3.4.66-3.79zm-1.02 7.26l10.46-3.4-.67 3.86-10.46 3.4.67-3.86zm-11.01-3.33l1.55-.52-2.05 14.57 3.85-1.25 2.53-18.04-6.7 2.2.82 3.04zm-7.65-.84l-7.03 14.91-3.2-11.59-6.59 2.14.84 3.08L.42 42.98l3.85-1.25 1.76-12.55L9.1 40.16 12.68 39l6.44-14.21-1.81 12.71 3.84-1.25 2.53-18.04-5.24 1.7zM71 2.89l-6.24 2L63.63.16l-2.72 5.96-6.24 2 4.56 1.69-2.72 5.96 5.53-4.92 4.56 1.68-1.14-4.73L71 2.89z"/></svg>