<svg height="21" width="64" xmlns="http://www.w3.org/2000/svg" viewBox="0 0 64 21"><path fill="#fff" fill-rule="evenodd" d="M10.86 4.26L7.15 15.4 3.76 4.31H0l5.52 16.54h2.99l3.66-10.97 3.6 10.97h2.99L24.3 4.31h-3.69L17.23 15.4 13.49 4.26h-2.63zm0 0M24.52 20.85V9.13h3.31v2.58c1.02-3.03 4.47-2.58 4.47-2.58v3.25s-4.47-.33-4.47 3.3v5.17h-3.31zm0 0M33.85 20.85v-7.22l3.31-3.16v10.38h-3.31zm0 0M39.94 20.85V7.9l3.31-3.3v8.8l4.04-4.27h4.07l-5.1 5.29 5.9 6.43h-4.28l-4.63-5.05v5.05h-3.31zm0 0"/><path fill="#fff" fill-rule="evenodd" d="M59.79 13.72c-.07-1.28-.98-2.32-2.44-2.32-1.48 0-2.48.95-2.64 2.32h5.08zm-6.48 5.61c-1.23-1.11-1.85-2.6-1.85-4.43 0-1.72.56-3.16 1.67-4.32 1.11-1.18 2.57-1.76 4.36-1.76 1.69 0 3.02.6 4.01 1.79 1 1.18 1.51 2.62 1.51 4.34v.85h-8.3c.34 1.58 1.83 2.42 3.87 2.42 1.3 0 2.53-.35 3.71-1.02v2.62c-1.04.79-2.5 1.18-4.41 1.18-1.8 0-3.34-.56-4.57-1.67zm0 0"/><path fill="#00a551" fill-rule="evenodd" d="M40.58.38l-7.41 7.41 2.2 2.21L44.99.38h-4.41zm0 0"/><path fill="#a5cd39" fill-rule="evenodd" d="M34.05 4.27h-4.4l5.72 5.72 2.21-2.2-3.53-3.52zm0 0"/></svg>