<svg xmlns="http://www.w3.org/2000/svg" viewBox="0 0 262.03262 467.10406" version="1"><defs><clipPath id="a"><path d="M17 819h560V22H17v797z"/></clipPath></defs><path d="M137.21 3.565V15.06h11.322v11.435h-11.467V42.1c.636.52 1.535.52 2.23.984 7.238 3.3 12.16 10.944 11.697 18.993-.29 5.616-2.723 10.771-7.122 14.593 9.728-1.216 19.746-2.375 29.937-2.375 5.675.173 11.118.81 15.924 3.359 3.3-.173 6.253-.463 9.495-.58 12.394-.463 24.901 0 36.31 3.302 3.705 1.157 7.989 3.82 8.511 8.106.347 3.88-.812 7.528-1.449 11.291-.52 2.953-1.33 5.792-1.853 8.688 1.1.52 2.49.637 3.649 1.157.347.29 1.563.173.926 1.043-5.038 17.66-9.728 35.177-12.39 53.823h27.098c.06 6.08-.463 12.131-.58 18.096-.577 14.938-1.39 29.995-2.546 44.876l-1.564 18.183c-4.632 45.745-12.68 90.97-36.133 129.362-10.481 17.66-24.378 32.484-39.029 47.714-15.287 15.112-31.79 29.705-49.857 40.823-7.469-4.633-14.303-10.075-21.252-15.404-15.344-11.87-29.068-26.058-42.155-40.475-14.302-15.924-25.94-33.064-34.454-51.651-7.99-17.257-13.608-35.497-17.66-54.316l-3.07-15.52-2.2-14.187-2.316-19.167-1.506-15.75c-.81-9.149-1.333-18.067-1.91-27.446l-1.16-24.205L2 163.848h27.042c.059.057.349-.146.173-.26-1.1-7.934-2.604-15.75-4.226-23.452l-3.763-15.81c-1.276-4.979-2.665-9.958-4.112-14.94 1.39-.694 3.126-1.1 4.69-1.563-1.217-5.849-2.49-11.812-3.243-17.777-.405-3.473 1.622-6.716 4.518-8.569 6.253-3.416 13.838-3.88 20.96-4.691 9.614-.578 19.11-.29 28.607.522 9.612-4.865 21.773-3.07 32.484-2.375 4.517.463 9.035 1.159 13.435 1.68-6.312-5.327-8.686-14.302-5.966-21.947 1.796-5.559 7.239-10.712 12.682-12.508l.175-.29V26.352H114.28a373.786 373.786 0 0 1 0-11.321h11.32V3.565h11.612zM98.589 83.214c-4.343.057-9.324-.753-13.03 1.506-1.563 1.04-2.78 2.49-2.837 4.4l.58 7.412.173.406c13.028-1.796 27.272-2.26 40.707-2.316l-.231-8.108-.173-.23c-8.339-1.45-16.677-2.723-25.19-3.07zm64.969.173c-8.743.52-16.734 1.447-25.19 3.013l-.346 8.279c13.724-.057 27.215.81 40.65 2.49.348-2.143.579-4.284.752-6.486.174-.927.06-1.967-.23-2.837-1.74-3.763-6.139-4.459-9.904-4.459-1.967-.116-3.937.233-5.732 0zM43.981 86.4c-3.533.52-7.239.983-10.308 2.663-1.506.869-2.663 2.432-2.663 4.169.406 5.502 1.447 10.77 2.433 16.097 1.563 1.1 2.142 2.953 2.432 4.575 10.075-8.338 22.06-12.103 34.568-14.707l.06-.116c-.58-4.112-1.044-8.398-1.68-12.798-8.398-.406-16.387-.522-24.842.117zm174.933.636c-8.628-.87-16.793-.696-25.535-.29l-1.68 12.855c12.508 2.606 24.783 6.545 34.974 14.94.233-1.68.927-3.475 2.433-4.632.753-3.763 1.506-7.645 2.026-11.465.23-1.796.637-3.533.464-5.386-.407-1.506-1.68-3.012-3.127-3.706-2.953-1.39-6.371-1.853-9.555-2.316"/><path d="M135.588 5.331a381.546 381.546 0 0 0 0 11.436h11.35v7.962c-3.648.059-7.7 0-11.407 0v17.14c-1.563-.057-3.359-.29-5.038-.29-1.157 0-2.257.233-3.417.406l-.057-.406V24.788h-11.06v-8.05c3.475-.115 7.441.175 11.147-.058V5.272c2.78.06 5.762 0 8.482.06M135.531 43.548c-.406 1.1-1.216 2.143-1.736 3.243l-.06 13.897h15.52c.057 1.506-.116 3.04-.347 4.489h-35.323c-.233-1.39-.406-2.983-.349-4.489h15.2V46.675c-.52-1.041-1.186-2.027-1.59-3.184 2.78-.696 5.846-.58 8.685.057" fill="#fceb66"/><path d="M127.366 47.37l-.057 12.045c-4.575.057-9.44.057-13.957 0 .464-6.37 5.155-12.624 11.118-14.997.407-.06 1.043-.927 1.276-.174l1.62 3.127M148.908 57.562l.347 1.91c-4.749.116-9.612-.057-14.303 0l.059-12.391 1.91-3.127c5.849 1.91 10.944 7.527 11.987 13.608M148.56 66.391c-1.505 6.198-7.354 11.497-13.435 12.77-6.08 1.506-12.681-.522-16.907-5.27-1.913-2.258-3.65-4.661-4.229-7.5l34.513.03.057-.03M123.95 79.798c-.057 1.68.057 3.242.057 4.922-11.232-1.853-22.64-3.706-34.047-3.07-3.302.521-7.008 1.737-8.455 5.154-.753 2.085.057 4.518 0 6.658l1.1 11.467c-3.127-.232-6.602-.29-9.149 1.504l-.173-.347c-.927-6.889-2.2-13.724-2.953-20.672-.117-2.43 1.214-4.863 3.416-6.196 5.963-3.763 14.07-3.243 21.077-3.07 9.901.29 19.63 1.68 29.127 3.65M181.335 76.959c2.837.406 5.616 1.333 7.99 3.186 2.143 1.622 3.012 4.285 2.49 7.008l-2.953 19.803c-.694-.29-1.274-.696-1.91-.986-2.086-.867-5.096-.81-7.412-.52.463-5.676 1.273-11.061 1.563-16.734-.233-3.302-3.474-5.445-6.312-6.312-2.953-.813-6.253-.58-9.496-.637-9.324.114-18.126 1.62-26.984 2.953-.29-.637.116-1.506 0-2.375.057-.868 0-1.678.057-2.49 12.74-2.606 25.652-3.937 39.145-3.473 1.216.173 2.606.29 3.822.577M70.734 79.392c-.984 1.68-1.967 3.302-1.853 5.385-6.716-.23-13.434-.58-20.267-.23-4.575.114-9.322.753-13.55 2.026-2.547.867-5.27 2.78-5.673 5.616 0 4.053.924 8.165 1.62 12.044l.696 3.88c-2.375-1.043-5.155-1.043-7.702-.753-1.332-5.733-2.49-11.755-3.302-17.604 0-3.356 2.723-6.195 5.733-7.469 7.644-3.126 16.04-3.359 24.438-3.763 6.773-.116 13.2.347 19.86.868M233.796 82.057c3.476.983 7.876 3.59 8.108 7.7.23 1.852-.406 3.532-.58 5.269-.752 4.459-1.795 8.803-2.722 13.203-2.49-.463-5.616-.29-7.759.637.81-5.153 2.086-10.308 2.49-15.634-.29-3.07-3.3-5.329-6.022-6.08-9.845-2.838-20.383-2.318-30.574-2.085l-3.357.116c.057-2.085-.812-3.765-1.853-5.385 12.68-1.217 25.94-1.217 38.043 1.1l4.226 1.159M136.574 80.377c.288 1.91-.233 3.88-.06 6.08a283.427 283.427 0 0 1-.866 17.14c-2.896-.87-6.372-.87-9.325.057a244.05 244.05 0 0 1-.753-23.393c3.65.926 7.298.926 11.004.116" fill="#fceb66"/><path d="M138.658 108.113c2.836 5.212-2.374 9.265-4.633 13.377.406.926.986 1.853 1.563 2.72 1.623-1.1 2.78-2.72 4.576-3.763 2.083-1.506 4.459-3.243 7.179-2.373 3.592 2.083 4.518 6.312 4.112 10.305-.29 2.723-1.563 5.619-4.226 6.661-4.692 1.217-8.165-3.185-11.292-6.081l-.812-.753c-.81.812-1.273 1.912-1.91 2.839 2.547 4.979 4.69 10.132 8.28 14.65 2.895 1.737 6.311 1.853 9.67 2.316 4.633.288 9.555.347 14.071-.173 2.433-.29 4.865-.753 6.949-2.029 2.665-3.126 4.053-6.89 5.965-10.422l1.506-3.302c-.637-.924-1.216-2.026-1.912-2.953-2.663 3.129-5.906 6.255-10.192 6.429-1.563 0-2.953-1.043-3.88-2.26-1.91-3.356-1.795-7.989-.579-11.638.813-2.316 3.302-3.475 5.676-3.416 3.648 1.043 6.601 4.112 9.38 6.775l.174-.059 1.333-3.126c-2.549-3.706-7.122-7.818-4.17-12.681 2.2-3.07 6.6-2.953 9.96-2.374 2.026.578 4.342 2.141 4.805 4.343.753 4.11-2.026 7.643-4.806 10.595l1.333 3.243h.29c3.532-2.78 7.236-6.369 11.985-5.153 3.128 1.564 3.765 5.153 3.822 8.339-.057 3.3-2.083 6.369-5.095 7.701-4.576 1.564-7.645-2.779-10.539-5.732-.29-.349-.522-.753-.926-1.1-.753.81-1.276 1.91-1.853 2.837 2.316 4.516 4.516 8.975 7.526 13.144 1.796 2.027 4.459 2.26 7.008 2.722 7.238 1.1 15.23 1.041 22.293-.636 1.159-.464 2.606-.64 3.359-1.853 2.606-3.592 4.632-7.355 6.716-11.118-.404-1.043-1.04-1.912-1.563-2.896h-.29c-2.72 2.49-5.673 4.632-9.09 5.5-2.491.29-4.865-.637-6.138-2.72-1.91-3.766-1.506-8.802.463-12.451 1.62-2.316 4.69-2.373 7.065-1.68 3.357 1.217 5.963 4.113 8.28 6.892.812-.87 1.563-1.737 2.375-2.663-2.376-3.36-5.618-7.528-3.36-11.814 2.317-3.473 7.296-3.183 10.829-2.316 1.16.233 2.316.696 3.416 1.1l-3.183 10.654-4.402 16.967c-1.97 8.455-3.59 16.967-4.923 25.422H31.358c-.463-2.086-.694-4.576-1.1-6.545a361.318 361.318 0 0 0-11.002-47.25c4.17-1.505 9.612-2.895 13.375.405 1.217 1.333 1.853 3.012 1.506 4.865-.577 3.01-2.316 5.383-4.169 7.759l2.26 2.78h.173c2.316-2.78 4.749-5.386 7.932-6.833 1.796-.58 4.17-.696 5.792.404 3.069 2.316 3.069 6.545 2.953 10.018-.29 2.433-1.447 5.039-3.823 5.965-2.083.984-4.459.463-6.312-.58-2.2-1.216-4.342-2.895-6.136-4.632l-.176.057-1.736 2.78c1.796 3.648 3.88 7.181 6.081 10.597 1.1 2.49 3.88 2.433 5.963 3.07 7.645 1.446 16.33 1.446 23.973-.58 3.765-1.043 4.808-5.212 7.007-8.049l3.65-6.716c-.523-1.043-1.16-1.97-1.74-2.955-3.183 3.243-6.485 7.992-11.464 6.949-3.01-1.1-5.096-4.457-5.153-7.643-.06-3.069.52-6.138 2.953-8.222 1.853-1.043 4.11-.522 5.906.114 2.606 1.217 4.806 3.129 7.065 4.866l.173-.117 1.274-3.126c-2.837-3.36-6.602-7.702-4.053-12.218 2.257-3.186 6.601-3.475 10.075-2.78 1.622.29 3.3 1.217 4.112 2.837.637 1.506 1.1 3.649.23 5.212-1.042 2.547-3.01 4.69-4.632 7.006.463 1.043.753 2.26 1.39 3.243 2.722-2.547 5.328-5.327 8.685-6.602 1.16-.347 2.376.116 3.475.349 3.59 1.447 3.88 5.616 3.823 9.149-.233 2.779-.87 5.905-3.65 7.179-4.921 1.739-8.8-2.49-11.81-6.02h-.117l-1.853 3.01c1.97 4.342 3.936 8.744 6.485 12.854 1.217 1.623 3.127 1.97 4.923 2.433 8.048 1.506 17.37 1.332 25.305-.696 2.836-.984 3.53-4.226 5.095-6.426l4.46-8.975c-.523-.986-1.16-1.913-1.74-2.84-3.242 3.013-6.601 7.588-11.521 6.892-2.953-.926-4.519-3.995-4.75-6.948-.346-3.706.521-7.875 3.88-10.018 2.663-1.216 5.329.637 7.47 2.2 1.679 1.159 2.895 2.606 4.458 3.88.58-.927 1.16-1.852 1.506-2.837-2.432-4.227-7.644-8.918-3.879-14.071 2.722-3.243 7.643-3.243 11.465-1.97 1.332.58 2.432 1.564 3.243 2.78" fill="#fceb66"/><path d="M124.18 96.648l.117.173c.06 2.664.233 5.04.347 7.586-2.43 1.97-4.053 4.692-3.53 7.875.81 3.36 2.952 6.196 5.036 8.975-.116.233-.116.463-.29.58-2.78-2.606-5.675-5.096-9.322-5.733-2.316-.347-4.343 1.274-5.559 3.186-2.375 3.763-2.78 9.785-.347 13.722 1.04 1.97 3.067 3.706 5.327 3.765 4.226-.06 7.411-3.533 10.48-6.255.233.116.29.406.464.639-2.026 4.167-3.88 8.453-6.543 12.391-1.39 1.91-3.822 1.62-5.791 2.257-7.18 1.217-14.477 1.1-21.426-.347-3.936-.636-4.747-4.979-6.485-7.759l-2.663-6.138c.059-.174.173-.347.346-.52 2.896 3.3 6.661 6.312 11.294 5.5 3.183-.927 4.98-4.227 5.383-7.413.406-4.342.176-9.552-4.053-11.928-2.026-1.157-4.922-.926-6.832.347-2.259 1.333-3.996 3.186-5.965 5.039-.81-.694.173-1.157.463-1.737 2.376-3.185 5.443-6.775 3.996-11.001-.637-1.913-2.433-3.592-4.286-4.286-.346-.29-.173-.753-.287-1.1a151.318 151.318 0 0 1-.466-5.559c13.088-1.68 26.465-2.549 40.015-2.316l.578.057M178.497 99.197c-.23 2.2-.174 4.4-.694 6.543-2.086.693-4.17 2.779-4.749 4.922-.926 4.69 2.606 8.106 5.037 11.58-.115.231-.115.464-.288.638-3.592-3.243-7.702-8.108-12.914-5.502-4.459 2.665-4.4 8.281-3.822 12.97.463 2.664 2.202 5.445 4.922 6.37 4.633.926 8.571-2.084 11.524-5.384.347.23.463.81.174 1.157-1.737 3.533-3.186 7.239-5.27 10.539-1.39 2.432-4.112 2.665-6.544 3.185-4.633.52-9.265.81-13.955.347-3.069-.347-6.428-.753-9.265-2.026-2.663-2.837-4.053-6.253-5.906-9.496l-1.795-3.822c.059-.29.232-.52.463-.696 3.706 3.07 7.702 7.992 12.97 5.675 3.476-2.2 4.75-6.252 4.576-10.191-.173-3.763-1.506-7.759-5.096-9.555-3.822-.926-7.122 1.563-10.018 3.823l-1.68 1.622-.405-.58c2.665-3.648 6.544-7.528 5.095-12.507-.636-1.68-1.91-3.127-3.357-4.286.115-2.549.347-5.153.405-7.818 6.08-.288 12.16.06 18.066.29 7.355.463 15.23 1.273 22.526 2.202M71.834 107.592c-1.853 2.027-2.257 4.864-1.39 7.353.87 2.606 2.78 4.922 4.575 6.892l-.347.81c-3.475-2.837-7.818-6.543-12.623-4.633-3.764 2.202-4.053 6.661-4.113 10.655.117.639.117 1.216.29 1.853.58 2.433 2.143 5.271 4.806 6.196 5.155 2.202 9.381-2.374 12.567-5.963.29.116.23.463.404.636-2.2 4.227-4.343 8.572-7.469 12.335-2.084 1.736-4.98 1.853-7.47 2.373-5.558.58-11.407.58-17.082-.347-2.143-.58-4.806-.694-6.08-3.07-1.969-2.895-3.532-6.021-5.211-9.09-.06-.348.173-.521.346-.81h.233c3.184 2.836 6.833 5.79 11.349 4.689 2.549-.52 4.922-3.07 5.442-5.56.87-3.589.58-7.411-.867-10.71-1.333-2.55-4.112-4.17-7.065-3.823-3.996.463-7.006 3.59-9.785 6.544-.233 0-.233-.29-.406-.463 1.39-2.202 2.952-4.285 3.705-6.834 10.018-8.802 22.293-13.145 35.15-15.46l1.04 6.427M226.674 117.147c.81 2.49 2.317 4.69 3.823 6.89-.058.173-.117.406-.347.522-3.36-3.475-7.412-7.875-12.624-6.428-1.1.29-1.97.87-2.896 1.506-3.127 3.532-3.473 8.628-2.433 13.087.637 2.43 2.78 4.747 5.212 5.326 4.516 1.16 8.512-1.969 11.928-4.69.753.58-.057 1.331-.23 1.91-1.912 3.303-3.533 6.776-6.312 9.613-3.937 1.738-8.106 1.97-12.508 2.085-5.442-.059-11.291-.116-16.156-2.142-2.49-1.853-3.53-4.75-5.096-7.239l-3.01-5.675.29-.867c3.126 3.357 6.775 7.932 11.754 6.369 3.474-.87 5.676-4.46 5.963-7.818.233-4.11-.114-8.916-3.993-11.118-4.75-1.967-9.092 1.565-12.567 4.518-1.157-1.216 1.159-2.086 1.506-3.129 2.026-2.546 3.763-5.848 2.78-9.205-.231-1.043-.927-1.853-1.507-2.663.29-2.143.753-4.345 1.16-6.429 12.911 2.433 25.072 6.776 35.263 15.577M258.234 165.932s-3.822 90.479-12.334 132.634c-6.545 31.731-17.546 61.726-36.596 88.19-17.777 23.393-39.956 45.572-63.177 63.696-5.27 3.938-10.306 7.644-15.808 10.887-5.385-3.012-10.248-7.298-15.287-10.771-16.618-12.45-32.137-27.738-46.208-43.429-13.26-14.767-24.612-30.69-32.834-47.888-13.607-28.143-20.903-58.832-25.072-90.739l-2.26-19.283c-2.836-27.562-4.052-55.908-4.746-83.297h254.322" fill="#e4474a"/><path d="M139.12 174.937c1.274-.927 3.013-.753 4.286 0 .927.983 1.796 2.259 1.39 3.763-.233 1.159-1.273 2.085-2.259 2.49-.463.232-1.043.116-1.506.116-.114.81.406 1.622 1.102 2.142 1.737.696 3.763.927 5.616 1.16.753-.06 1.333-.58 1.853-1.16-.694-.81-1.853-1.157-2.316-2.2-.694-1.446-.057-3.069.926-4.169 1.043-.753 2.547-.636 3.706-.29.87-.752 1.97-1.446 3.127-1.446 1.39 0 2.663.694 3.416 1.794.463.522.232 1.736 1.332 1.506.81.23 1.737.636 2.084 1.446.522.813.463 1.74.29 2.666-.347 1.1-1.1 2.2-2.257 2.49-.523.346-1.68-.523-1.563.577.404 2.202 2.952 1.622 4.516 2.259 1.043.116 2.316.58 3.069-.58l.057-.173c-1.157-.867-1.97-2.143-1.68-3.59.117-.926.58-1.68 1.217-2.373 1.1-.639 2.606-1.043 3.822-.406.637.406.927 1.157 1.506 1.447 1.68-.694 3.937-.694 5.5-.057l-.116.406c-2.43 3.59-5.096 7.236-7.353 10.885 1.273.81 2.663 1.506 3.763 2.606-.057 2.316.349 5.153-1.794 6.718l-2.549 2.837c.117 11.697-3.069 22.466-8.165 32.253l-7.816 13.898c-1.68 3.069-2.142 6.775-2.202 10.305-1.214-.347-2.257-1.157-3.53-1.446-.176 4.112-.35 7.818-.35 11.813l-.346 16.387c-.116 7.006-.233 13.665-.347 20.787 2.953 3.243 4.863 7.008 6.602 10.828l6.542 14.42c4.806 9.902 8.976 20.324 16.214 29.185 3.822 3.88 8.745 5.269 14.128 5.385 6.371-.406 12.334-4.053 15.463-9.728 3.936-9.15-1.853-17.72-5.85-25.421l-11.117-18.936c-5.792-11.002-12.797-25.013-5.675-37.523 3.763-6.6 10.481-11.812 16.33-16.502l22.872-17.546c8.28-6.659 15.75-15.403 15.634-26.405-.232-5.442-.81-10.597-4.69-14.477-4.228-4.4-10.19-6.252-16.099-5.036-4.516 1.157-9.205 5.036-9.901 9.842 0 1.16.059 2.55.463 3.706 2.375.463 5.038.463 7.238 1.45 2.606 3.183 4.17 7.005 5.386 10.884-.174 5.965-1.043 11.814-2.78 17.314-.58.116-1.273.233-1.91.173-.232-1.1-.059-2.373-.232-3.53-.52-3.533-.984-7.298-3.65-9.96.176 3.185.754 6.485-.81 9.38-2.316 3.01-5.675 5.616-8.628 7.876-7.932 6.195-16.327 11.407-22.64 19.513l-.463.696c-.81.057-1.332.116-2.085.057.636-4.863 3.012-9.091 5.385-13.318 4.343-7.065 9.728-13.897 14.94-20.442.117-1.33-.29-2.49-.52-3.647l-.233.058c-3.185 2.316-6.138 5.269-8.685 8.397-.463.114-1.043.174-1.563.114.637-2.49 1.563-4.922 2.49-7.295 2.083-4.922 4.459-9.728 7.815-14.128-.346-5.618.927-11.06 4.17-15.463 5.212-7.006 13.26-9.728 21.772-9.495 8.977.87 18.126 6.542 20.963 15.403 2.78 7.875 2.836 17.081-.057 24.9-2.376 6.427-6.082 12.45-10.771 17.719v.173l-.58.404c-5.5 6.312-12.912 12.047-17.487 18.993l.173.117 3.65-.404c3.532.463 6.832 1.214 10.364 1.736 2.084-.116 4.17-.406 6.312-.522.23.406.404.926.347 1.332l-18.413 8.745c-3.65 1.794-7.298 3.647-10.945 5.27-.406.52-.463 1.156-.58 1.795 2.84-.463 5.733-1.16 8.686-1.506l10.54 2.143 4.922-.35c.231.464.462.927.52 1.45-2.026 1.1-4.168 2.083-6.254 3.126-6.543 3.07-12.97 6.543-19.57 9.322-.29.463 0 .986-.117 1.506l.29.117 3.88-.407 9.844 2.2 4.806-.52c.52.29.577.984.636 1.563l-17.66 8.628-.116.29c1.157 7.645 4.285 14.65 6.658 21.889 3.186 9.149 4.633 20.383-.463 29.185-5.212 9.032-15.287 13.723-25.478 13.607-9.845-.58-18.3-6.602-23.973-14.593l-12.507-18.297-.117.29c.174 5.326.29 10.711.52 16.097.464 5.502.697 11.001 2.49 16.04l3.012 3.996c.117 3.763-.232 7.469-1.506 10.711-.52.986-1.853 1.447-2.026 2.606-.637 10.655-2.896 21.6-2.143 32.544.174 1.62.29 3.183.753 4.69l-2.026 1.622-.233-.06c-1.504-1.562-3.183-3.01-5.096-4.052-.926-.406-1.68.29-2.43.58-1.506 1.157-3.07 1.91-4.112 3.532.87 2.257 1.506 4.632 2.2 6.89-.463 1.042-1.563 1.39-2.2 2.142l-2.722 1.737c-.347 2.665.29 5.212 1.042 7.644-.81.058-1.736.058-2.49-.346-2.2-3.592-4.805-7.065-4.864-11.582.232-2.432.869-4.922 1.332-7.297l-.057-.115c-2.2 2.257-4.286 4.4-6.602 6.196-1.97-.29-3.706-1.333-5.153-2.839-2.259.523-4.518 1.16-6.254 2.896h-.117l-.347-2.143c1.853-3.069 4.343-6.079 7.355-8.222 3.126-.693 6.312-1.216 9.555-1.622-2.896-1.967-6.371-3.01-9.324-4.98-.29-2.373.29-4.748.81-7.005-1.388-2.26-3.82-3.476-5.847-4.98l2.374-1.275c4.169.349 7.642 2.316 11.001 4.632 1.97 2.84 3.416 5.965 4.982 9.035.463.926 1.62.173 2.373.173 1.043-.29 2.026-.696 2.953-1.332.87-12.565-.58-25.883-3.127-38.044-2.142-3.416-5.154-6.542-7.76-9.728-3.241-3.649-6.484-7.585-9.96-10.828-2.489 3.126-5.095 6.312-6.601 9.902-.116 1.446-.057 2.953-.116 4.459-3.357 2.2-7.122 3.359-10.886 4.575-1.91-1.333-3.648-2.839-5.616-4.171-9.091-1.794-17.603-4.284-26.694-6.08-1.68-.173-3.59 0-5.212.523-.58-.639-1.274-1.45-1.333-2.316 1.39-1.217 2.665-2.143 3.706-3.592.173-2.663-1.62-4.573-2.837-6.716-1.796.29-3.359 1.33-5.153 1.68-3.995.056-8.165-.754-11.697-2.666l-.406-2.14c1.736.403 3.59.577 5.385.287 1.043-.577.927-1.794 1.39-2.72.233-.696.463-1.563 1.333-1.796l5.559-.116 2.432-.23v-.117c-2.838-2.027-6.198-2.78-9.265-4.227-.116-1.68.464-3.242 1.388-4.632-.461-1.216-1.737-1.853-2.777-2.663l-4.113-.927c.231-.753.984-1.332 1.564-1.853l7.528.404c2.083.927 4.343 1.623 6.138 3.127 1.968 2.549 3.417 5.155 5.153 7.76l.174-.405c.29-2.723.463-5.502 1.043-8.106 1.273-.87 3.069-.812 4.573-1.16 1.332-2.142 1.739-4.922 1.159-7.528.81.233 1.68.696 2.316 1.276 1.796 4.4 2.26 9.959.52 14.418-1.446 2.316-3.356 4.169-5.095 6.252.463 2.55 1.159 4.923 1.853 7.355 2.202.29 4.749.406 7.065.694l15.924 1.392c-.464-1.912-1.91-3.708-1.794-5.849.924-10.077 2.953-19.456 6.08-28.664 6.368-4.632 13.664-7.238 20.845-10.075l.174-.233c-.406-5.095-1.796-10.075-3.012-14.997-2.027-3.649-5.557-6.486-8.163-9.669-1.102-2.316-2.086-4.749-3.129-7.065l-2.836 3.07-15.518 17.717c-2.086 2.606-4.402 5.096-6.312 7.76-.696-.232-1.39-.812-1.853-1.389.347-1.39.347-2.896-.116-4.286-1.737-1.91-4.17-2.316-6.37-3.301-2.316 3.185-4.922 6.601-8.048 9.091-.929-.114-1.68-.463-2.665-.404l-.115.29-.465 16.387-.288.114c-2.432 0-4.285.116-6.718-.114 0-5.155.174-10.424.057-15.404-1.214.984-2.663 1.737-3.763 2.896h-.173l-.87-1.796c.523-1.91 1.39-3.649 2.317-5.385l2.722-3.243c.057-2.837.233-5.673.174-8.569-.637-.349-1.447-.349-2.143-.58l-2.257-5.616c-1.623-.58-3.476-.059-5.155.058-.347.116-.81.116-1.216.173.175-.87.522-1.68.812-2.547 1.794-.985 3.59-2.143 5.616-2.665l4.402-.057.173-.233.29-15.69c.057-4.633.114-9.499.23-14.188l.29-16.677-.057-.116c-.985.406-1.738 1.1-2.665 1.563-1.447-.52-2.894-.984-4.11-1.967-1.449.23-2.606 1.563-3.706 2.49l-1.16 1.91h-.115l-.927-2.027c.812-3.533 2.665-6.775 4.982-9.612 2.373-1.796 5.095-2.839 7.815-3.938.233-.52.117-1.274.174-1.968-2.373-.58-5.383 0-7.296-1.796l-1.796-4.865c-2.083-.636-4.4-1.04-6.716-.753.347-.81.984-1.677 1.623-2.373 2.373-.927 4.573-1.97 7.353-1.853 2.259.406 4.806.347 6.891 1.273l.174-.287.057-9.265v-3.592c-2.894-.29-5.906-.29-8.743.406-4.632 1.447-8.338 5.443-11.814 8.859-1.91 2.086-3.936 4.285-5.848 6.545-4.633-7.761-7.992-16.214-9.612-25.305-1.1-6.66-1.91-13.784-1.043-20.847l.06-.173c11 7.99 21.713 17.544 36.19 16.907.406-.057.983.233 1.216-.116v-5.036l.926-.06c2.084 0 4.227.117 6.37.06.116 1.68.173 3.473-.058 5.095l.23.23 2.723.117c-.057 4.227 0 8.918-.173 13.145-1.043.116-1.912.116-2.953.173-.116 5.443-.233 10.308-.233 15.924.87-1.737 1.274-3.88 2.2-5.673 1.102-1.16 2.955-1.043 4.402-1.506a24.603 24.603 0 0 0 1.91-3.94l.29-3.125 1.853 1.736c.983 3.706.87 7.875.116 11.581-1.563 2.376-3.416 4.576-5.038 6.835.58.636 1.449 1.04 2.202 1.447.983.693 2.257 1.042 3.473.869.637.057 1.273-.233 1.853.057.406.81.694 1.68.926 2.606 6.312 3.416 12.74 6.486 19.167 9.612.58-.58.696-1.563 1.333-2.2 6.312-7.412 14.244-12.681 22.119-17.95 3.763-1.97 7.759-3.416 12.044-4.229l8.108-1.446c.52-.407.52-1.043.694-1.623l-.347-.23c-4.169-.29-8.224-.347-12.393-.927 1.159-1.97 2.259-4.112 3.475-6.196-1.273-1.853-2.722-3.416-3.706-5.444l-.58-6.6c2.78-2.606 5.733-4.749 8.629-7.296.06-4.634-.694-9.38-.753-14.013 1.68.23 3.012 1.39 4.459 2.2"/><path d="M138.658 176.443c.52 0 .81-.696 1.332-.81 1.04-.176 2.257-.06 2.953.81.347.636.694 1.39.404 2.2-.288.753-.983 1.216-1.62 1.68-.696.056-1.333.056-1.91-.29-.29 0-.35.29-.464.463.405 1.332.405 2.836 1.447 3.879 2.49.87 5.27 1.622 7.876 1.506 1.446-.753 2.259-2.026 3.416-3.186.059-.23.116-.58-.174-.753-.636.29-1.563.523-2.2.117a2.667 2.667 0 0 1-1.332-2.606c.347-.868.985-1.794 2.026-1.794.753-.06 1.333.463 1.97.694.753-.984 1.679-1.796 2.952-1.68.986.29 2.143 1.043 2.374 2.086.116.23-.057.58.175.694.984.059 2.084-.23 2.663.753.58.696.58 1.736.29 2.49-.29.869-1.216 1.273-2.026 1.622-1.043.116-1.796-.637-2.316-1.333-.29.057-.464.347-.58.58.173 1.506.637 2.896 1.273 4.169 2.26 1.157 4.866 1.447 7.412 1.853 1.45-.233 2.49-1.563 3.706-2.373.117-.06.06-.29.06-.464-.35-.349-.986 0-1.392-.29a2.141 2.141 0 0 1-1.388-1.505c-.116-.637 0-1.333.23-1.853.754-.637 1.333-1.333 2.374-1.217 1.043.174 1.912 1.043 2.202 1.97.577.173 1.04-.464 1.563-.523a3.212 3.212 0 0 1 2.084-.173c-2.027 3.302-4.284 6.718-6.6 9.844-1.97.637-4.17.753-5.908 1.853.116.463.637.753.986 1.1 1.91-.29 3.59-1.794 5.616-.983 1.043.81 3.07 1.216 2.836 2.952.637 3.243-2.49 4.75-4.169 7.123.233 15.344-5.5 28.894-13.375 41.228-2.2 4.227-4.806 8.396-4.865 13.435-1.216-.347-2.316-1.217-3.473-1.506-.463 18.009-.696 34.627-1.043 52.406 5.386 5.442 7.296 12.448 10.424 18.817l7.586 15.983c3.356 6.486 6.369 13.028 11.117 18.936 5.384 6.37 14.475 8.28 22.063 5.21 5.326-2.14 10.712-6.659 11.58-12.622.405-1.275.115-2.839.232-4.285-.117-.753-.231-1.68-.347-2.433-1.853-9.728-8.05-17.72-12.624-26.346-5.096-8.57-10.308-17.142-12.914-26.81-.578-2.607-.867-4.866-.867-7.76.23-.753 0-1.68.23-2.49 1.333-11.756 13.087-19.515 21.483-26.52l15.346-11.755c7.816-6.082 16.504-13.377 19.397-23.048 1.623-6.253 1.853-14.012-1.33-19.744-3.765-6.312-10.598-10.482-18.126-9.265-5.153.983-10.655 4.4-12.332 9.611-.639 2.143-.523 4.517.057 6.602 2.663.52 5.732.578 8.165 1.737 2.2 3.357 4.226 6.775 4.69 10.828-.464 4.863-1.043 9.785-2.26 14.36-.114-5.442-1.563-10.654-5.269-14.65-.577-.116-1.157-.29-1.736-.173l-.057.29c.753 3.59 1.273 7.526.173 11.117-4.053 5.21-9.612 8.57-14.534 12.335-5.675 4.226-11.871 9.032-16.157 14.474 2.143-7.701 7.182-14.36 11.988-20.96 2.373-3.359 5.095-6.545 7.469-9.904.406-2.373-.174-4.342-.637-6.542-3.532 1.853-6.602 5.096-9.265 8.048 2.2-6.485 5.039-12.797 9.612-18.356-.927-6.89 1.333-13.607 6.718-18.124 6.312-5.385 15.808-7.412 23.626-4.169 5.906 2.084 11.811 7.18 13.724 13.377 2.606 7.586 2.663 17.197-.523 24.552-2.953 8.28-9.091 15.577-15.577 22.003-5.442 5.616-11.058 10.539-14.997 17.024 2.259-.23 4.518-.81 6.659-.983 4.169.346 8.165 1.39 12.16 2.2l-3.822 1.795-21.31 10.132c-.52 1.566-1.273 3.07-1.33 4.75 3.357-.521 6.833-1.621 10.249-1.968l1.333.114 10.595 2.26-22.989 11.001c-.23 1.273 0 2.663.233 3.996 1.97.173 3.763-.87 5.906-.347 3.416.694 6.718 1.506 10.191 2.257a478.945 478.945 0 0 1-14.591 7.065c0 1.506.347 3.012.637 4.459 2.663 11.987 9.091 22.468 9.032 35.437-.637 8.804-5.21 17.49-13.724 21.426-7.063 3.592-16.214 4.285-23.51.696-5.558-2.49-10.48-7.298-13.837-12.508-4.345-6.485-8.861-12.74-12.971-19.4-.174-6.485-.174-12.737-1.913-18.933-.346-1.043-.693-2.029-1.216-2.955h-.114l-.927 1.912c2.894 7.586 2.084 17.14 2.606 25.362.058 9.265.231 18.76 1.91 27.679.58 2.606 2.26 4.806 3.996 6.832.23 2.78-.406 5.445-.753 8.165-.52 1.39-1.853 2.202-2.663 3.416-.986 8.571-1.39 16.736-2.202 25.365-.288 4.342 0 8.395.406 12.621-2.026-1.446-3.936-3.59-6.369-3.993-2.665 1.1-4.981 3.126-7.355 5.036l.057.753c.58 2.374 1.68 4.46 2.143 6.833-1.273 1.506-3.01 2.202-4.69 3.128-.346 1.853-.056 3.647 0 5.5-1.679-2.43-3.185-4.98-3.473-7.992.23-2.604.637-5.21 1.215-7.758-.464-.754-1.215-1.853-2.257-1.68-1.853 2.026-3.823 4.112-5.906 5.849-1.97-.23-3.36-1.68-4.808-2.953-1.504.173-2.78.983-4.17 1.506 1.39-2.26 3.417-4.806 5.85-6.08 2.895-.695 5.732-1.102 8.685-1.506.406-.81.522-1.795.349-2.606-2.723-1.563-5.676-2.663-8.282-4.459-.463-2.316.637-4.342.927-6.542-1.157-1.506-2.606-3.07-4.112-4.112 3.418.29 6.428 2.143 9.034 4.342 1.737 3.07 3.359 6.196 5.153 9.265l.349.347c2.43-.114 4.632-1.04 6.716-2.142l.347-.578c.87-13.55-.578-26.521-3.07-39.145-.577-1.563-1.853-2.78-2.893-4.17l-17.777-20.033c-1.449-1.855-2.955-3.708-3.706-5.85-1.216-5.095-1.506-10.827-1.333-16.213 4.863-7.412 13.377-11.987 18.01-19.689 1.04-1.853 2.143-3.706 2.604-5.79-.404-.348-1.041-.175-1.62-.289-.464.694-.52 1.62-.927 2.373-3.649 8.686-12.565 13.377-18.3 20.616l-1.503 2.316c-.29 5.326.463 10.945 1.273 16.038.58 3.592 3.476 6.312 5.443 9.265-2.2 3.533-4.806 6.892-6.716 10.54-.464 1.39-.174 2.896-.233 4.4-1.157 1.1-2.72 1.39-4.053 2.086-1.62.52-3.126 1.216-4.806 1.563-1.68-1.043-3.126-2.432-4.575-3.765l-7.816-1.62-17.952-4.343c-2.2-.463-4.517-.753-6.716-.057 1.33-1.565 3.416-2.606 3.473-4.865-1.04-2.723-2.084-5.443-3.82-7.818-2.492.232-4.519 2.085-7.125 2.085-2.663 0-4.979-.58-7.352-1.39 1.216-.29 2.49-.29 3.59-.81.636-1.159.579-2.432 1.216-3.591 2.49-.637 5.212-.404 7.932-.637.522-.867.87-1.737 1.216-2.663-2.836-1.796-6.136-2.49-9.032-4.227 0-1.506.753-2.838 1.737-3.938-.637-1.043-1.796-1.62-2.664-2.374-.463-.232-.81-.695-1.216-.926l.29-.116c1.62.116 3.359.116 4.749.81l3.416 2.143c2.083 2.549 4.283 5.155 5.673 8.048.927.174 1.796-.173 2.665-.347.753-2.722.29-5.616 1.041-8.281 1.506-.404 3.012-.81 4.518-.81l.347-.404 1.1-3.765c1.216 3.185.81 6.891-.29 10.018-1.563 2.432-3.473 4.632-5.501 6.832a64.352 64.352 0 0 1 2.202 8.745c2.316.346 4.459.463 6.889.693 6.834.58 13.32 1.276 19.979 1.796l.116-.116c-1.043-2.2-1.97-4.4-2.432-6.775.753-9.786 2.546-19.457 5.848-28.373 6.543-4.342 13.898-7.008 21.02-9.96.29-1.217.114-2.606-.117-3.764-.81-4.575-1.62-9.264-3.126-13.607-2.086-3.706-5.502-6.486-8.108-9.788-.983-2.49-2.373-4.748-2.836-7.411l.116-.347 15.17-17.198 1.564-1.853c-.116-.522-.753-.926-1.043-1.332l-.463.406-20.556 23.276-20.614 24.032-.406.463-.116-.116c.116-1.794-.29-3.532-1.506-4.863-2.374-1.216-4.806-2.375-7.41-3.07-2.202 3.243-4.633 6.833-7.818 9.323-1.274-.117-2.55-.52-3.763-.81l-.35 17.43-4.226-.06c.057-5.559 0-10.769.23-16.444-.75-.057-1.562.463-2.256.81-.753.35-1.333 1.1-2.086 1.563.406-2.72 2.839-4.573 4.46-6.716.056-2.779 0-5.558.173-8.28-.117-.695.173-1.564-.117-2.258l-2.316-.522c-.983-1.91-1.504-4.11-2.547-6.023-1.446-.346-2.895-.404-4.402-.463 1.45-.577 2.896-1.157 4.46-1.506 1.795-.23 3.301.06 5.038-.114l.116-.29.058-8.222.406-21.136c.116-7.644.23-14.187.347-21.658l-.29.06-4.053 2.72c-1.39-.637-2.837-1.215-4.112-2.141-1.39.52-2.606 1.62-3.763 2.663.81-2.433 2.373-4.633 3.88-6.775 2.432-2.143 5.501-3.127 8.338-4.402.463-1.274.057-2.72.173-4.053-2.433-.174-4.863-.29-7.006-1.157-1.159-1.506-1.506-3.476-1.912-5.386-.463-.347-1.1-.29-1.68-.463l-2.952-.637c1.159-.753 2.779-.926 4.228-1.216 3.3.116 6.716.347 9.265 2.49l.173-.117c0-5.21.347-10.48.347-15.577a50.718 50.718 0 0 1 4.17 0c0 5.85-.117 11.988-.231 18.24.463.233 1.214.29 1.677.117 1.333-2.316 2.202-4.806 3.302-7.239 1.274-.404 2.606-.636 3.937-.867.986-1.216 1.563-2.606 2.202-3.939.983 1.97.114 4.229.057 6.429l-.52 2.083c-1.853 2.492-3.533 4.982-5.56 7.298v.288c1.794 1.102 3.59 2.142 5.443 3.012 1.043.173 2.084 0 3.184.116l.87 2.143c6.485 3.647 13.203 6.659 19.688 10.249-.986 4.748-1.39 9.728-2.086 14.59l-2.546-1.91-20.036-15.693c-1.217-.287-2.663 0-3.996-.114-.406-.173-.81-.463-.984-.87.29-1.1 1.157-2.142 1.33-3.3-1.33-1.099-2.952-1.679-4.458-2.489-.637.463-1.157 1.04-1.62 1.62l-.174 2.2-.233 15.577c-.29 12.567-.404 26.579-.636 39.262 1.736 1.388 3.765 2.49 5.675 3.59.58-.696 2.316-.87 1.794-2.086l-2.43-6.426c.23-2.027 1.62-3.533 2.895-5.039.174-1.506-.58-2.896-.87-4.342 2.2 1.33 3.36 3.879 4.343 6.079l.231.87c.116 4.168.176 8.511.406 12.39 1.97 1.217 3.88 2.374 5.965 3.36l2.257-3.36 12.218-19.63 8.918-14.186v-.117c-2.72 0-4.98.812-7.642.406 1.736-7.005 1.736-14.94 4.11-21.715 3.302-5.5 9.207-9.496 14.246-13.318 5.21-3.473 10.018-7.702 16.154-8.975 4.112-.87 8.339-1.563 12.45-2.316.405-.29.754-.87.984-1.39.35-1.1.754-2.143.927-3.359l-.29-.116c-3.936-.288-8.222-.115-11.985-.927l2.43-4.573c-1.33-1.912-2.546-3.939-3.82-5.849l-.173-1.796c.694-.636 1.563-1.273 2.257-1.967-.114-.349-.463-.696-.753-.926l-1.678 1.157c-.175-.637-.29-1.447-.175-2.26 2.665-2.256 5.445-4.69 8.338-6.715L143 189.24l16.504 3.763c.81-.173 1.506-.52 2.259-.81l-.347-.233c-8.34-1.68-16.214-3.706-24.554-5.385-.23-4.11-.52-7.875-.578-11.928.984.347 1.794.926 2.374 1.796" fill="#fceb66"/><path d="M50.988 192.25c4.459.233 9.034.174 13.55.406l.117.057c-.117 3.186-.117 6.95-.29 10.251-5.327.057-10.828 0-15.75.057-6.602.81-11.002 6.08-15.808 10.712-1.216 1.333-2.316 2.665-3.592 3.88-5.096-9.612-8.628-19.977-9.379-31.328-.173-2.953-.463-6.369-.06-9.322 9.615 6.832 18.994 14.767 31.212 15.287" fill="#fff"/><path d="M61.528 187.27c.174 1.158-.06 2.374 0 3.59l-4.343-.057c-.059-1.159.058-2.316.058-3.475l.116-.174 4.17.117" fill="#f9e027"/><path d="M152.671 193.873v1.62l-7.008-1.91c-.287 1.157-.52 2.432-1.62 3.07-1.447.23-2.953.52-4.4.056-1.39-.926-1.102-2.722-1.68-4.169-1.158-.057-2.201.753-3.185 1.273-.406-.23-.753-.58-.696-1.042l2.955-2.2c5.386.636 10.365 2.259 15.634 3.302"/><path d="M144.043 193.293c-.057.694-.116 1.447-.463 1.97-.927.52-2.143.52-3.01 0-.696-.697-.812-1.74-.696-2.607.057-.232.406-.059.58-.173l3.59.81" fill="#e4474a"/><path d="M168.189 198.272c.463 1.506-.867 2.49-1.794 3.36-.347-.637-.29-1.45-.522-2.2l-1.737-1.39c.057-.406.696-.29.986-.463l1.214-.29c.637.23 1.39.347 1.853.983M118.158 202.558l9.788.926 1.043 1.62c-1.102.117-2.26-.173-3.419-.23l-9.265-.87c-1.446-.346-2.72-1.273-3.993-2.083-.06-.463 0-.87.347-1.159.347-.23.693-.057.983.116 1.39.927 2.78 1.68 4.516 1.68M145.839 202.674c.52 1.563.81 3.243 1.04 4.923-4.11-.233-8.048-.407-12.1-.696l-1.333-4.633c.059-.173-.115-.347.116-.52 3.996.404 8.108.52 12.277.926"/><path d="M144.217 204.064c.406.52.463 1.216.58 1.853-3.127 0-5.56-.349-8.686-.463l-.58-1.739.174-.23 8.512.579" fill="#e4474a"/><path d="M126.21 233.652c0 .523-.176 1.043-.35 1.507l-13.085 2.026c-1.796.406-2.78 2.2-3.708 3.59l-6.426 10.25c-.464 0-.81-.463-1.333-.58l7.759-12.507c2.259-2.953 6.198-2.49 9.324-3.243 2.49-.406 5.212-.696 7.818-1.043"/><path d="M65.118 235.855c0 1.1-.984 1.91-1.274 2.893.347 1.043 1.447 1.39 2.084 2.26l3.706.056c4.459 2.953 8.338 6.372 12.624 9.555l10.481 8.571c-.233 1.91-.81 3.647-1.273 5.443l.173.23c1.967.06 4.226-.114 6.196-.23-1.912 3.59-4.17 7.006-6.312 10.422l-10.365 16.62c-1.333 1.91-2.433 3.995-3.822 5.848-1.39-.406-2.664-1.216-3.88-1.969l-.52-12.044c-.812-1.97-1.565-4.053-2.955-5.79l-3.473-3.186-2.086.174-.114.173c.983 1.796 1.736 3.65 1.967 5.676-1.62 1.68-2.43 3.649-3.01 5.79l.057.638c.986 2.2 1.853 4.459 2.722 6.716-1.506-1.043-3.185-1.97-4.516-3.07l.23-17.313c.117-12.101.407-25.825.58-38.217l.637-.29 2.143 1.044" fill="#e4474a"/><path d="M65.175 299.897c.406.812.29 1.796.406 2.665v.288a719.154 719.154 0 0 1-5.849 3.416c-.173-2.316.117-4.4.057-6.833l.117-.116c1.853.116 3.532.406 5.269.58"/><path d="M63.785 301.17c.117.463.117 1.043-.114 1.392-.812.404-1.622.867-2.433 1.214-.059-.984-.059-1.91 0-2.836l.23-.117 2.317.347" fill="#e4474a"/></svg>