<svg xmlns="http://www.w3.org/2000/svg" viewBox="0 0 80.03 90.01"><path fill="none" stroke="#585a5d" stroke-miterlimit="10" stroke-width="4" d="M56 2H24a2 2 0 0 0-2 2v7.73h36V4a2 2 0 0 0-2-2zM20.01 79.76h40v8.25h-40zM63 11.73H17a15 15 0 0 0-15 15v38a15 15 0 0 0 15 15h46a15 15 0 0 0 15-15v-38a15 15 0 0 0-15-15z"/><path fill="none" stroke="#585a5d" stroke-linecap="round" stroke-miterlimit="10" stroke-width="4" d="M25.76 59.33h28.5"/><path d="M33.79 44.93a1.83 1.83 0 0 1 0 2.59 1.83 1.83 0 0 1-2.59 0l-7-7a1.83 1.83 0 0 1 0-2.59 1.83 1.83 0 0 1 2.59 0z" fill="#585a5d"/><path d="M31.19 38a1.83 1.83 0 0 1 2.59 0 1.83 1.83 0 0 1 0 2.59l-7 7a1.83 1.83 0 0 1-2.59 0 1.83 1.83 0 0 1 0-2.59zm24.6 6.93a1.83 1.83 0 0 1 0 2.59 1.83 1.83 0 0 1-2.59 0l-7-7a1.83 1.83 0 0 1 0-2.59 1.83 1.83 0 0 1 2.59 0z" fill="#585a5d"/><path d="M53.19 38a1.84 1.84 0 0 1 2.59 0 1.84 1.84 0 0 1 0 2.59l-7 7a1.83 1.83 0 0 1-2.59 0 1.83 1.83 0 0 1 0-2.59z" fill="#585a5d"/></svg>