<svg xmlns="http://www.w3.org/2000/svg" viewBox="0 0 75 75"><path d="M0 10.5V21h21V0H0zm18 0V18H3V3h15zm-12 0V15h9V6H6zM24 3q0 3 1.5 3A1.54 1.54 0 0 1 27 7.5a1.5 1.5 0 0 0 3 0A1.54 1.54 0 0 0 28.5 6 1.54 1.54 0 0 1 27 4.5Q27 3 30 3t3 1.5A1.54 1.54 0 0 0 34.5 6Q36 6 36 3V0H24zm15 3c0 4.7.3 6 1.5 6a1.54 1.54 0 0 1 1.5 1.5 1.5 1.5 0 0 0 3 0 1.5 1.5 0 0 1 3 0 1.5 1.5 0 1 0 1.5-1.5 1.54 1.54 0 0 1-1.5-1.5Q48 9 45 9c-2.9 0-3-.2-3-4.5 0-3.3-.4-4.5-1.5-4.5S39 1.3 39 6zm15 4.5V21h21V0H54zm18 0V18H57V3h15zm-12 0V15h9V6h-9zm-12-6a1.5 1.5 0 0 0 3 0 1.5 1.5 0 0 0-3 0zM33 12q0 3 1.5 3c1.1 0 1.5 1.2 1.5 4.5s-.4 4.5-1.5 4.5-1.5 1-1.5 3c0 2.7-.3 3-3 3q-3 0-3 1.5a1.54 1.54 0 0 0 1.5 1.5 1.5 1.5 0 1 1-1.5 1.5q0-1.5-3-1.5t-3 1.5a1.54 1.54 0 0 1-1.5 1.5 1.5 1.5 0 0 0 0 3 1.54 1.54 0 0 1 1.5 1.5c0 1.1-1.2 1.5-4.5 1.5s-4.5-.4-4.5-1.5S11 39 9 39c-2.7 0-3-.3-3-3q0-3 1.5-3A1.54 1.54 0 0 0 9 31.5a1.5 1.5 0 0 1 3 0c0 1.1 1.2 1.5 4.5 1.5s4.5-.4 4.5-1.5-1-1.5-3-1.5-3-.5-3-1.5 1-1.5 3-1.5 3 .5 3 1.5 1 1.5 3 1.5 3-.5 3-1.5a1.54 1.54 0 0 1 1.5-1.5q1.5 0 1.5-3t-1.5-3a1.5 1.5 0 1 1 1.5-1.5 1.54 1.54 0 0 0 1.5 1.5q1.5 0 1.5-3c0-2.7-.3-3-3-3q-3 0-3-1.5a1.54 1.54 0 0 0-1.5-1.5c-1.2 0-1.5 1.5-1.5 7.5s-.3 7.5-1.5 7.5a1.54 1.54 0 0 1-1.5-1.5q0-1.5-3-1.5t-3 1.5-3 1.5-3-1.5C9 24.4 7.8 24 4.5 24H0v7.5c0 6 .3 7.5 1.5 7.5a1.5 1.5 0 0 1 0 3A1.54 1.54 0 0 0 0 43.5Q0 45 3 45t3 1.5Q6 48 3 48t-3 1.5C0 50.7 1.3 51 6 51s6-.3 6-1.5q0-1.5 3-1.5t3 1.5a1.5 1.5 0 1 0 1.5-1.5 1.54 1.54 0 0 1-1.5-1.5q0-1.5 3-1.5t3 1.5a1.5 1.5 0 0 0 3 0 1.54 1.54 0 0 1 1.5-1.5 1.54 1.54 0 0 0 1.5-1.5 1.5 1.5 0 0 1 3 0 1.54 1.54 0 0 0 1.5 1.5 1.54 1.54 0 0 1 1.5 1.5q0 1.5-3 1.5t-3 1.5a1.54 1.54 0 0 0 1.5 1.5c1.2 0 1.5 1.3 1.5 6v6h-3q-3 0-3 1.5a1.54 1.54 0 0 1-1.5 1.5c-1.1 0-1.5 1.2-1.5 4.5 0 4.3.1 4.5 3 4.5 2.7 0 3-.3 3-3q0-3-1.5-3a1.54 1.54 0 0 1-1.5-1.5q0-1.5 3-1.5t3 1.5a1.54 1.54 0 0 0 1.5 1.5 1.5 1.5 0 0 1 0 3 1.54 1.54 0 0 0-1.5 1.5q0 1.5 3 1.5c2.7 0 3-.3 3-3q0-3-1.5-3a1.5 1.5 0 0 1 0-3 1.5 1.5 0 0 0 0-3c-1.1 0-1.5-1.2-1.5-4.5s.4-4.5 1.5-4.5a1.54 1.54 0 0 1 1.5 1.5 1.54 1.54 0 0 0 1.5 1.5 1.54 1.54 0 0 1 1.5 1.5 1.54 1.54 0 0 0 1.5 1.5 1.54 1.54 0 0 1 1.5 1.5 1.54 1.54 0 0 0 1.5 1.5 1.5 1.5 0 1 1-1.5 1.5 1.54 1.54 0 0 0-1.5-1.5Q42 63 42 66t1.5 3a1.54 1.54 0 0 1 1.5 1.5 1.54 1.54 0 0 0 1.5 1.5 1.54 1.54 0 0 1 1.5 1.5q0 1.5 3 1.5t3-1.5c0-1.1 1.2-1.5 4.5-1.5s4.5.4 4.5 1.5a1.5 1.5 0 1 0 1.5-1.5Q63 72 63 69c0-2.7.3-3 3-3q3 0 3 1.5t3 1.5q3 0 3-1.5a1.54 1.54 0 0 0-1.5-1.5 1.54 1.54 0 0 1-1.5-1.5q0-1.5-3-1.5t-3-1.5a1.54 1.54 0 0 0-1.5-1.5 1.5 1.5 0 0 1 0-3 1.54 1.54 0 0 0 1.5-1.5 1.54 1.54 0 0 1 1.5-1.5 1.54 1.54 0 0 0 1.5-1.5 1.54 1.54 0 0 1 1.5-1.5q1.5 0 1.5 3t1.5 3q1.5 0 1.5-3t-1.5-3a1.54 1.54 0 0 1-1.5-1.5 1.5 1.5 0 0 0-3 0 1.54 1.54 0 0 1-1.5 1.5 1.54 1.54 0 0 0-1.5 1.5 1.54 1.54 0 0 1-1.5 1.5Q63 54 63 51t-1.5-3a1.54 1.54 0 0 1-1.5-1.5 1.54 1.54 0 0 0-1.5-1.5 1.5 1.5 0 0 1 0-3 1.5 1.5 0 0 0 0-3 1.54 1.54 0 0 1-1.5-1.5 1.5 1.5 0 0 0-3 0 1.54 1.54 0 0 1-1.5 1.5 1.5 1.5 0 0 0 0 3q1.5 0 1.5 3t-1.5 3a1.54 1.54 0 0 1-1.5-1.5 1.5 1.5 0 0 0-3 0 1.5 1.5 0 0 1-3 0 1.54 1.54 0 0 0-1.5-1.5Q42 45 42 48t1.5 3a1.54 1.54 0 0 1 1.5 1.5 1.54 1.54 0 0 0 1.5 1.5 1.54 1.54 0 0 1 1.5 1.5q0 1.5-3 1.5c-2.7 0-3-.3-3-3s-.3-3-3-3q-3 0-3-1.5a1.54 1.54 0 0 1 1.5-1.5 1.5 1.5 0 0 0 0-3 1.5 1.5 0 0 1 0-3c1.1 0 1.5-1.2 1.5-4.5s-.4-4.5-1.5-4.5-1.5 1-1.5 3-.5 3-1.5 3-1.5-1-1.5-3 .5-3 1.5-3a1.54 1.54 0 0 0 1.5-1.5q0-1.5 3-1.5t3-1.5a1.54 1.54 0 0 0-1.5-1.5c-1.2 0-1.5-1.5-1.5-7.5s-.3-7.5-1.5-7.5a1.54 1.54 0 0 1-1.5-1.5A1.54 1.54 0 0 0 34.5 9Q33 9 33 12zM6 28.5A1.54 1.54 0 0 1 4.5 30a1.5 1.5 0 0 1 0-3A1.54 1.54 0 0 1 6 28.5zm21 12a1.5 1.5 0 1 1-1.5-1.5 1.54 1.54 0 0 1 1.5 1.5zM12 45q0 3-1.5 3T9 45q0-3 1.5-3t1.5 3zm48 10.5V60h-9v-9h9zM60 66c0 2.7-.3 3-3 3q-3 0-3-1.5a1.54 1.54 0 0 0-1.5-1.5 1.54 1.54 0 0 1-1.5-1.5c0-1.1 1.2-1.5 4.5-1.5 4.3 0 4.5.1 4.5 3zm-6-10.5a1.5 1.5 0 1 0 1.5-1.5 1.54 1.54 0 0 0-1.5 1.5zm-12-36a1.5 1.5 0 1 0 1.5-1.5 1.54 1.54 0 0 0-1.5 1.5zm6 3c0 3.3-.4 4.5-1.5 4.5S45 28 45 30s-.5 3-1.5 3a1.54 1.54 0 0 0-1.5 1.5q0 1.5 3 1.5t3 1.5q0 1.5-3 1.5t-3 1.5a1.54 1.54 0 0 0 1.5 1.5 1.54 1.54 0 0 1 1.5 1.5 1.54 1.54 0 0 0 1.5 1.5q1.5 0 1.5-3t1.5-3 1.5-3-1.5-3a1.5 1.5 0 0 1 0-3 1.54 1.54 0 0 0 1.5-1.5 1.5 1.5 0 0 1 3 0 1.54 1.54 0 0 0 1.5 1.5 1.54 1.54 0 0 1 1.5 1.5 1.54 1.54 0 0 0 1.5 1.5q1.5 0 1.5-3t1.5-3c1.1 0 1.5 1.2 1.5 4.5s.4 4.5 1.5 4.5a1.54 1.54 0 0 0 1.5-1.5 1.54 1.54 0 0 1 1.5-1.5 1.5 1.5 0 0 0 0-3 1.54 1.54 0 0 1-1.5-1.5 1.54 1.54 0 0 0-1.5-1.5 1.54 1.54 0 0 1-1.5-1.5c0-1.2-1.3-1.5-6-1.5h-6v-3q0-3-1.5-3c-1.1 0-1.5 1.2-1.5 4.5zM69 27q0 3 1.5 3a1.54 1.54 0 0 1 1.5 1.5 1.54 1.54 0 0 0 1.5 1.5c1.1 0 1.5-1.2 1.5-4.5 0-4.3-.1-4.5-3-4.5-2.7 0-3 .3-3 3zm3 10.5a1.54 1.54 0 0 1-1.5 1.5 1.54 1.54 0 0 0-1.5 1.5q0 1.5-3 1.5t-3 1.5q0 1.5 3 1.5t3-1.5a1.5 1.5 0 0 1 3 0 1.54 1.54 0 0 0 1.5 1.5c1.1 0 1.5-1.2 1.5-4.5s-.4-4.5-1.5-4.5a1.54 1.54 0 0 0-1.5 1.5zm-48 15a1.54 1.54 0 0 0 1.5 1.5 1.5 1.5 0 0 1 0 3 1.5 1.5 0 1 0 1.5 1.5 1.54 1.54 0 0 1 1.5-1.5 1.5 1.5 0 0 0 0-3 1.54 1.54 0 0 1-1.5-1.5 1.5 1.5 0 0 0-3 0zm-24 12V75h21V54H0zm18 0V72H3V57h15zm-12 0V69h9v-9H6zm66 9a1.5 1.5 0 1 0 1.5-1.5 1.54 1.54 0 0 0-1.5 1.5z"/></svg>