<svg id="Layer_9" xmlns="http://www.w3.org/2000/svg" viewBox="0 0 480.5 365" enable-background="new 0 0 480.5 365"><style>.st0{fill:#fff}.st1{fill:none;stroke:#ced9e0;stroke-width:1.5;stroke-miterlimit:10}.st2{fill:#ced9e0}.st3{opacity:.8;fill:none;stroke:#ced9e0;stroke-width:1.5;stroke-miterlimit:10;enable-background:new}.st4{fill:#9fb4c1}.st5{fill:#aabfce}.st6{fill:#d4e1e8}.st7{fill:#bfe29c}.st8{fill:#3fa4e8}.st9{fill:#8a9ea8}.st10{fill:#748899}.st11{fill:#ebf1f2}.st12{fill:#65b71d}.st13{fill:#c5d6e2}.st14{fill:#e6ebef}.st15{fill:#404e60}.st16{fill:#5c6c7a}.st17{fill:#9cb0bc}.st18{fill:#79c7f2}.st19{filter:url(#AI_GaussianBlur_7)}.st20{fill:#5baff4}.st21{stroke:#3fa4e8;stroke-width:1.5;stroke-miterlimit:10}.st21,.st22{fill:none}</style><filter id="AI_GaussianBlur_7"><feGaussianBlur stdDeviation="6"/></filter><title>interface-plan-timetracking</title><path class="st0" d="M.1 43.5h480v306.9H.1z"/><path class="st1" d="M1.3 57.7h199.4v291.6H1.3zm207.3 0h271.1v292.4H208.6z"/><path class="st2" d="M232.7 317.2h44.6v4.8h-44.6z"/><path class="st1" d="M220.6 307.6h247.1v23.9H220.6z"/><path class="st3" d="M208.6 287.5h271.1"/><path class="st4" d="M220.7 75.9h150.7v12H220.7z"/><path class="st2" d="M220.7 97.8h44.2v8h-44.2zm52.4 0h58.7v8h-58.7z"/><path class="st3" d="M262.7 123h217.4m0 22.7h-207m207 31.5H208.6"/><path class="st5" d="M275.8 126.7h16v16h-16z"/><path class="st6" d="M282.4 137.2l-2-2v-2.8l2-2h2.9l1.9 2v2.8l-1.9 2zm9.4 5.4h-16l2.7-3.4h10.9z"/><path class="st7" d="M210 122.2h63v23.9h-63z"/><path class="st8" d="M273.1 145.2h80.4v32.9h-80.4z"/><path class="st0" d="M231.5 129.2l-7.4 7.4 2.2 2.2 7.5-7.4z"/><path class="st0" d="M222.9 131l-2.3 2.1 5.7 5.7 2.2-2.2z"/><path class="st2" d="M18.3 127.8h3.2v12.8h-3.2z"/><path class="st2" d="M13.5 132.6h12.8v3.2H13.5zm.1-56.7h87.7v12H13.6zm-.1 25.1h31.6v4.8H13.5zm37.8 0h15.8v4.8H51.3z"/><path class="st3" d="M1.3 123h199.4"/><path class="st1" d="M200.7 145.7H1.3"/><path class="st9" d="M13.5 156.2h17v17.1h-17z"/><path class="st10" d="M20.6 167.5l-2.1-2.1v-3l2.1-2.2h3l2.2 2.2v3l-2.2 2.1z"/><path class="st5" d="M18.4 160.2h17.1v17.1H18.4z"/><path class="st11" d="M25.5 171.5l-2.1-2.1v-3l2.1-2.2h3l2.1 2.2v3l-2.1 2.1zm9.9 5.7h-17l2.9-3.7H33z"/><path class="st2" d="M43.8 172.5h31.9v4.8H43.8z"/><path class="st4" d="M43.8 160.2h45.7v6.4H43.8z"/><path class="st9" d="M13.5 241.1h17v17h-17z"/><path class="st10" d="M20.6 252.4l-2.1-2.1v-3l2.1-2.2h3l2.2 2.2v3l-2.2 2.1z"/><path class="st5" d="M18.4 245.1h17.1v17.1H18.4z"/><path class="st11" d="M25.5 256.4l-2.1-2.1v-3l2.1-2.2h3l2.1 2.2v3l-2.1 2.1zm9.9 5.7h-17l2.9-3.7H33z"/><path class="st2" d="M43.8 257.4h47.8v4.8H43.8z"/><path class="st4" d="M43.8 245.1h56.3v6.4H43.8z"/><path class="st9" d="M13.5 285.3h17v17h-17z"/><path class="st10" d="M20.6 296.6l-2.1-2.2v-3l2.1-2.1h3l2.2 2.1v3l-2.2 2.2z"/><path class="st5" d="M18.4 289.3h17.1v17H18.4z"/><path class="st11" d="M25.5 300.5l-2.1-2.1v-3l2.1-2.1h3l2.1 2.1v3l-2.1 2.1zm9.9 5.8h-17l2.9-3.7H33z"/><path class="st2" d="M43.8 301.5h63.8v4.8H43.8z"/><path class="st4" d="M43.8 289.3h22.9v6.4H43.8z"/><path class="st12" d="M208 122.2h3.2v23.9H208z"/><path class="st4" d="M.9 190H201v42.3H.9z"/><path class="st13" d="M13.5 198.9h17V216h-17z"/><path class="st10" d="M20.6 210.1l-2.1-2.1v-3l2.1-2.1h3l2.2 2.1v3l-2.2 2.1z"/><path class="st0" d="M18.4 202.9h17.1V220H18.4z"/><path class="st13" d="M25.5 214.1l-2.1-2.1v-3l2.1-2.1h3l2.1 2.1v3l-2.1 2.1zm9.9 5.8h-17l2.9-3.7H33z"/><path class="st14" d="M43.9 215.1h45.7v4.8H43.9z"/><path class="st0" d="M70.6 202.9h70.1v6.4H70.6z"/><path class="st7" d="M43.8 202.9h20.7v6.4H43.8z"/><path class="st15" d="M0 20h480.2v30H0z"/><path class="st16" d="M455.6 26.8h16.7v16.7h-16.7z"/><path class="st9" d="M462.6 37.9l-2.1-2.1v-3l2.1-2h2.9l2.1 2v3l-2.1 2.1zm9.7 5.6h-16.7l2.9-3.6h11.4z"/><path class="st10" d="M24.9 29.5l-8.4 8.3 2.5 2.5 10.9-10.8z"/><path class="st17" d="M17.5 33.9h-5l6.5 6.4 2.5-2.5z"/><path class="st2" d="M473 0H7.4L0 7.4V20h480.2V7.6z"/><path transform="rotate(-45.001 13.781 10.35)" class="st17" d="M11.7 8.3h4.2v4.2h-4.2z"/><path transform="rotate(-45.001 24.707 10.345)" class="st17" d="M22.6 8.2h4.2v4.2h-4.2z"/><path transform="rotate(-45.001 35.615 10.346)" class="st17" d="M33.5 8.3h4.2v4.2h-4.2z"/><path class="st0" d="M287.2 155.8l11.2 5.8-11.2 5.9z"/><path class="st18" d="M311.6 157.4h26.3v10h-26.3z"/><path class="st19 st20" d="M203.2 190.4h228v165h-228z"/><path class="st0" d="M208.4 194.9h218v155h-218z"/><path class="st0" d="M300.8 205.5l16.4-19.8 16.3 19.8z"/><path class="st21" d="M221.9 246.9h190v54.7h-190z"/><path class="st1" d="M221.9 210.8h18.5v23.9h-18.5zm31.5 0H282v23.9h-28.6z"/><path class="st8" d="M221.7 315.3h90v22h-90z"/><path class="st2" d="M295.8 219.2H309v7h-13.2zm-64.9 37.4h70.6v7h-70.6z"/><path class="st0" d="M264.8 324.2h22.9v4h-22.9zm-19.1.1h14.2v4h-14.2z"/><path class="st2" d="M246.2 217.6h2v3h-2zm0 7.5h2v3h-2z"/><path class="st8" d="M313 219.1h23.2v7H313z"/><path class="st15" d="M235.1 228.3h-7.7v-1.4l3-3c.6-.6 1.2-1.2 1.7-1.9.3-.3.5-.7.6-1.1.1-.3.2-.7.2-1.1 0-.5-.1-.9-.5-1.2-.4-.3-.8-.5-1.3-.4-.4 0-.9.1-1.3.2-.5.2-1 .5-1.4.9l-1-1.2c.5-.5 1.2-.9 1.9-1.1.6-.2 1.3-.3 1.9-.3.9 0 1.8.3 2.5.8.7.6 1 1.4 1 2.2 0 .5-.1 1-.3 1.5-.2.5-.5 1-.9 1.4-.6.7-1.2 1.4-1.9 2l-2 1.9v.1h5.4l.1 1.7zm31.9-5.7c.1 1.5-.3 3.1-1 4.4-1.2 1.6-3.4 2-5 .8-.3-.2-.6-.5-.8-.8-.7-1.3-1.1-2.8-1-4.4-.1-1.6.2-3.1 1-4.5 1.2-1.6 3.5-1.9 5.1-.7.3.2.5.5.7.8.8 1.4 1.1 2.9 1 4.4zm-5.9 0c-.1 1.1.1 2.3.5 3.3.4.9 1.4 1.2 2.2.9.4-.2.7-.5.9-.9.6-2.2.6-4.5 0-6.6-.4-.9-1.3-1.3-2.2-.9-.4.2-.7.5-.9.9-.4 1-.5 2.2-.5 3.3zm15 0c.1 1.5-.3 3.1-1 4.4-1.2 1.6-3.4 2-5 .8-.3-.2-.6-.5-.8-.8-.7-1.3-1.1-2.8-1-4.4-.1-1.6.2-3.1 1-4.5 1.2-1.6 3.5-1.9 5.1-.7.3.2.5.5.7.8.8 1.4 1.1 2.9 1 4.4zm-5.9 0c-.1 1.1.1 2.3.5 3.3.4.9 1.4 1.2 2.2.9.4-.2.7-.5.9-.9.6-2.2.6-4.5 0-6.6-.4-.9-1.3-1.3-2.2-.9-.4.2-.7.5-.9.9-.4 1-.5 2.2-.5 3.3z"/><path class="st22" d="M.5 0h480v365H.5z"/></svg>