<svg xmlns="http://www.w3.org/2000/svg" viewBox="0 0 58 10" fill="#00b9bb"><path d="M5.478.872a.174.174 0 0 0-.055-.128L4.67.117a.156.156 0 0 0-.104-.04.163.163 0 0 0-.135.075c-.003-.001.003-.003 0 0a8.306 8.306 0 0 1-.215.308c-.076.102-.15.185-.22.247A.917.917 0 0 1 3.8.843c-.117.058-.257.07-.424-.05a13.596 13.596 0 0 1-.31-.224L2.776.34a1.743 1.743 0 0 0-.58-.295 1.222 1.222 0 0 0-.816.058 2.308 2.308 0 0 0-.5.286 3.303 3.303 0 0 0-.832.884c-.006.01-.015.017-.02.027l-.002.002a.162.162 0 0 0-.026.09.17.17 0 0 0 .071.14l.802.566a.162.162 0 0 0 .099.036.165.165 0 0 0 .137-.08s-.002.005 0 0a2.08 2.08 0 0 1 .387-.503c.128-.11.243-.167.343-.167.076 0 .148.014.214.043.072.032.141.071.207.116a3 3 0 0 1 .211.167c.077.067.155.131.233.187.114.094.255.178.419.25a1.352 1.352 0 0 0 1.073.001c.171-.072.339-.173.496-.3a2.89 2.89 0 0 0 .437-.436c.113-.139.221-.289.32-.443.003-.005 0 0 0 0a.21.21 0 0 0 .029-.097"/><path xmlns="http://www.w3.org/2000/svg" fill="#000" d="M37.297 3.953c.025-.161.063-.31.115-.441a1.27 1.27 0 0 1 .236-.39c.098-.106.208-.188.334-.25a.991.991 0 0 1 .846.012c.13.068.241.157.33.266.089.11.158.242.206.393.042.131.066.269.073.41h-2.14zm3.436-.726a2.542 2.542 0 0 0-.522-.893 2.189 2.189 0 0 0-.778-.54 2.505 2.505 0 0 0-.957-.181c-.39 0-.756.074-1.085.219a2.52 2.52 0 0 0-.86.618c-.24.266-.43.595-.564.978-.133.381-.2.816-.2 1.292 0 .469.071.894.213 1.264.142.372.342.692.594.953.253.261.558.463.909.6.349.136.73.205 1.136.205.83 0 1.54-.328 2.106-.974a.17.17 0 0 0-.006-.237l-.61-.622h-.001a.162.162 0 0 0-.116-.049.167.167 0 0 0-.122.057c0 .002.002-.001 0 0-.045.05-.103.11-.175.177a1.615 1.615 0 0 1-.363.249c-.383.185-.796.227-1.182.083a1.168 1.168 0 0 1-.415-.269 1.61 1.61 0 0 1-.32-.463 2.09 2.09 0 0 1-.166-.595h3.482c.081 0 .15-.067.162-.147l.017-.202c.008-.099.012-.197.012-.296 0-.46-.063-.872-.19-1.227zm-5.975 3.329l.003-.006-.655-.765-.005.005a.158.158 0 0 0-.124-.066.16.16 0 0 0-.12.057s-.001-.003-.002-.002c-.09.101-.18.19-.268.265a1.72 1.72 0 0 1-.344.226 1.468 1.468 0 0 1-.343.121c-.328.069-.644.035-.897-.1a1.421 1.421 0 0 1-.444-.381 1.824 1.824 0 0 1-.293-.57 2.326 2.326 0 0 1-.1-.662 2.33 2.33 0 0 1 .1-.663 1.84 1.84 0 0 1 .293-.57c.126-.16.275-.288.444-.38.253-.136.569-.17.897-.102.11.023.225.064.343.122.118.058.234.134.344.226.089.075.179.163.268.265l.002-.002a.16.16 0 0 0 .12.057.157.157 0 0 0 .124-.066l.005.005.655-.765-.003-.006a.167.167 0 0 0 .042-.102.167.167 0 0 0-.05-.118v-.002a2.991 2.991 0 0 0-1.008-.722 3.155 3.155 0 0 0-1.228-.242 2.88 2.88 0 0 0-1.157.23 2.69 2.69 0 0 0-.906.636 2.95 2.95 0 0 0-.591.965c-.143.371-.216.78-.216 1.215l.002.019-.002.018c0 .435.073.844.216 1.215.141.372.34.696.59.965.25.269.555.483.907.636.35.152.74.23 1.157.23.431 0 .844-.082 1.228-.242.36-.151.699-.394 1.009-.722v-.002a.165.165 0 0 0 .049-.118.17.17 0 0 0-.042-.102m-7.634-.84c-.03.067-.084.148-.159.24a1.962 1.962 0 0 1-.275.277 1.49 1.49 0 0 1-.379.226 1.228 1.228 0 0 1-.485.091.814.814 0 0 1-.3-.055.908.908 0 0 1-.247-.141.659.659 0 0 1-.162-.192.468.468 0 0 1-.059-.232c0-.103.023-.206.068-.305a.676.676 0 0 1 .247-.267c.123-.084.3-.15.525-.196.197-.04.444-.062.736-.062l.148.002.434.01a2.91 2.91 0 0 1-.024.361.7.7 0 0 1-.068.243m1.388-2.75a2.011 2.011 0 0 0-.486-.77 1.907 1.907 0 0 0-.777-.445 3.586 3.586 0 0 0-1.139-.136c-.78.022-1.52.348-2.069.889l-.005.004a.164.164 0 0 0-.049.115v.004c0 .034.014.07.033.096l.586.749a.17.17 0 0 0 .135.069h.003c.048 0 .09-.02.121-.052h.001c.21-.218.665-.602 1.321-.648.339-.024.59.09.744.267.147.17.23.443.246.815h-.654c-.479 0-.908.05-1.277.15a2.804 2.804 0 0 0-.94.427 1.945 1.945 0 0 0-.582.662 1.788 1.788 0 0 0-.202.842c0 .228.041.451.124.662.082.214.21.403.38.56.168.157.384.284.641.377.258.093.564.139.911.139.314 0 .631-.061.943-.182.252-.099.476-.227.67-.384v.286c0 .09.074.164.165.167h1.15a.17.17 0 0 0 .172-.17V4.05a3.21 3.21 0 0 0-.166-1.084m-7.558 2.503c-.073.215-.166.39-.28.521a1.05 1.05 0 0 1-.368.283.91.91 0 0 1-.808-.01.795.795 0 0 1-.312-.305 1.845 1.845 0 0 1-.207-.57 4.252 4.252 0 0 1-.076-.863c0-.225.013-.444.041-.65.027-.2.08-.38.154-.535a.935.935 0 0 1 .3-.357.831.831 0 0 1 .483-.13c.384 0 .669.149.872.454.207.311.312.765.312 1.348 0 .323-.038.597-.11.814m1.41-2.107a2.812 2.812 0 0 0-.522-.97 2.207 2.207 0 0 0-.782-.583 2.35 2.35 0 0 0-.951-.196 1.83 1.83 0 0 0-.363.037c-.125.025-.25.067-.371.125-.12.057-.239.131-.355.222a1.424 1.424 0 0 0-.178.165v-.276a.173.173 0 0 0-.166-.154h-1.116a.165.165 0 0 0-.161.161v.002l.011 7.942c0 .09.074.163.165.163h1.162c.09 0 .165-.073.165-.163V7.154c.14.118.304.216.488.294.565.238 1.14.185 1.657-.03a2.19 2.19 0 0 0 .78-.546c.221-.239.4-.541.53-.898.131-.356.198-.776.198-1.248 0-.52-.064-.979-.19-1.364m-6.419 1.327c-.315-.306-.808-.557-1.466-.746a8.927 8.927 0 0 1-.547-.162 2.432 2.432 0 0 1-.38-.16.604.604 0 0 1-.21-.166.351.351 0 0 1-.062-.214c0-.073.018-.133.056-.185a.45.45 0 0 1 .166-.135.938.938 0 0 1 .266-.078c.221-.032.468-.037.722.028.135.036.265.081.387.136a1.59 1.59 0 0 1 .56.429l.108.14c.003.004 0 .002.003.004a.16.16 0 0 0 .127.066.156.156 0 0 0 .13-.072l.517-.802a.246.246 0 0 0 .032-.08v-.001c.006-.045-.003-.076-.042-.12.001 0 .001.002 0 0l-.009-.008-.003-.004a2.694 2.694 0 0 0-.956-.71 3.003 3.003 0 0 0-1.188-.236c-.32 0-.62.052-.892.156a2.5 2.5 0 0 0-.706.4 1.908 1.908 0 0 0-.47.562 1.36 1.36 0 0 0-.172.643c0 .21.033.405.099.58.064.173.16.33.284.466.121.135.271.258.443.365.171.107.366.203.58.285a11.143 11.143 0 0 0 .638.208c.194.056.358.11.486.161.126.05.228.106.304.166a.63.63 0 0 1 .162.178.415.415 0 0 1 .05.21c0 .157-.072.272-.219.351-.16.087-.394.131-.692.131-.133 0-.276-.023-.424-.07a2.356 2.356 0 0 1-.433-.182 2.148 2.148 0 0 1-.367-.252c-.107-.092-.271-.231-.387-.396a.169.169 0 0 0-.135-.076.169.169 0 0 0-.14.088L11.62 6.61a.166.166 0 0 0 .03.2v.001c.336.321.698.557 1.077.702a3.62 3.62 0 0 0 1.302.229c.358 0 .689-.052.984-.156.296-.103.552-.248.762-.432a2 2 0 0 0 .486-.63c.115-.236.172-.492.172-.761 0-.4-.163-.761-.486-1.074M8.378 6.936a.806.806 0 1 1 1.612-.002.806.806 0 0 1-1.612.002" opacity=".9"/><path d="M58 .159A.158.158 0 0 0 57.842 0l-.002.001V0h-4.19v.001L53.647 0a.158.158 0 0 0-.158.159v.972c0 .087.07.157.155.162h2.573L54.04 7.2c-.04.108.04.221.154.22h1.149c.106 0 .208-.024.245-.123l2.364-6.52.047-.61h-.003c0-.002.004-.004.004-.007m-6.499 4.515a2.633 2.633 0 0 1-.088.663c-.06.217-.148.409-.259.57a1.314 1.314 0 0 1-.392.38.935.935 0 0 1-.369.128h-.003c-.04.005-.082.004-.123.004-.041 0-.084.001-.123-.003h-.004a.947.947 0 0 1-.209-.053l1.484-3.949c.055.199.082.419.086.652v1.608zm-2.47-1.608c.005-.237.033-.461.09-.662.06-.218.148-.41.258-.571.111-.161.243-.29.392-.38a.93.93 0 0 1 .369-.128h.004c.04-.006.082-.004.123-.004.04 0 .083-.002.123.003a.953.953 0 0 1 .187.043l-1.469 3.909a2.679 2.679 0 0 1-.076-.602V3.067zm3.623-1.234a3.022 3.022 0 0 0-.522-.966 2.38 2.38 0 0 0-.8-.637 2.289 2.289 0 0 0-1.02-.23c-.016 0-.03.005-.045.005-.016 0-.03-.005-.045-.005-.368 0-.711.078-1.021.23-.31.153-.58.368-.8.637a3.03 3.03 0 0 0-.522.966c-.126.37-.19.78-.19 1.216v1.644c0 .436.064.845.19 1.217.125.372.3.696.522.965.22.27.49.484.8.637.31.152.653.23 1.021.23.015 0 .03-.005.045-.005s.03.005.044.005c.368 0 .712-.078 1.022-.23.31-.153.58-.368.8-.637.22-.269.396-.593.52-.965a3.78 3.78 0 0 0 .191-1.217V3.05c0-.436-.064-.845-.19-1.216zM46.4 5.446c0 .34-.054.654-.161.936a1.924 1.924 0 0 1-.48.727c-.211.2-.474.356-.781.467a3.13 3.13 0 0 1-1.054.166 2.71 2.71 0 0 1-1.112-.232 2.405 2.405 0 0 1-.892-.712.178.178 0 0 1 .002-.203l.606-.766a.152.152 0 0 1 .12-.056.161.161 0 0 1 .106.041l.005.004c.072.066.168.149.276.234.4.31.652.363.956.394.14 0 .275-.018.391-.067a.896.896 0 0 0 .323-.202c.094-.098.168-.215.225-.36.055-.14.083-.303.083-.486a.989.989 0 0 0-.092-.432.905.905 0 0 0-.259-.321 1.241 1.241 0 0 0-.4-.203 1.766 1.766 0 0 0-.516-.073c-.012 0-.45.022-.522.023-.002 0 .001 0 0 0a.161.161 0 0 1-.16-.16V3.3a.165.165 0 0 1 .153-.162s-.001 0 0 0c.29-.004.54-.03.742-.079a1.57 1.57 0 0 0 .528-.215.735.735 0 0 0 .276-.327c.055-.134.083-.286.083-.452a.88.88 0 0 0-.056-.315.834.834 0 0 0-.159-.255.72.72 0 0 0-.254-.174c-.232-.097-.55-.09-.878.079-.165.085-.338.236-.518.45a.156.156 0 0 1-.116.053.157.157 0 0 1-.122-.06l-.593-.693a.168.168 0 0 1-.041-.109.17.17 0 0 1 .032-.097l.054-.066c.23-.284.491-.5.782-.64A2.48 2.48 0 0 1 44.058 0a2.4 2.4 0 0 1 .877.155c.263.104.495.249.69.431.195.184.35.404.457.656.107.25.162.531.162.834 0 .193-.03.378-.087.55a1.617 1.617 0 0 1-.24.462 2.045 2.045 0 0 1-.569.512 1.804 1.804 0 0 1 .677.606 2.168 2.168 0 0 1 .375 1.24M8.858 0H7.705C7.6 0 7.496.025 7.46.128L4.844 7.515c-.04.11.04.228.154.227H6.15c.106 0 .21-.025.246-.127L9.012.227c.04-.11-.04-.228-.154-.227"/></svg>
