<svg xmlns="http://www.w3.org/2000/svg" width="388" height="219" viewBox="0 0 388 219"><path d="M28.162 202.957c0-2.876 122.355-38.388 185.5-53.839 26.957-6.596 83.094-18.97 86.061-18.97.791 0 1.437.563 1.434 1.25-.003.831-10.151 3.398-30.25 7.652-58.055 12.287-116.702 27.708-196.55 51.684-49.635 14.904-46.195 13.994-46.195 12.223zm69.227-4.991c1.265-3.796 182.747-54.176 185.443-51.48 1.315 1.315-1.187 2.405-10.67 4.648-38.207 9.038-106.093 27.743-152.223 41.943-20.406 6.281-23.217 6.89-22.55 4.889zm104.986-20.959c.33-.987 64.15-18.79 67.537-18.84a1.23 1.23 0 0 1 1.249 1.231c0 .799-12.013 4.427-33.25 10.044-18.287 4.837-33.85 8.775-34.583 8.75-.733-.024-1.162-.557-.953-1.185zm-134.713-8.766l-5-.593.1-9c.056-5.022 1.26-15.238 2.727-23.115l2.626-14.116-3.133-5.783c-3.77-6.962-3.493-7.337 7.496-10.125 13.115-3.328 24.606-1.87 30.847 3.915 5.01 4.643 6.329 8.44 6.333 18.224.003 7.834-.359 9.738-2.792 14.693-3.274 6.667-10.177 14.66-16.298 18.872-6.116 4.208-13.866 7.964-16.052 7.778-1.02-.086-4.104-.424-6.854-.75zm19.686-21.024c5.999-5.282 10.82-14.648 10.798-20.978-.008-2.525-.355-5.125-.77-5.778-1.33-2.09-6.59-3.478-10.803-2.849l-4.089.61-1.196 12.714c-.658 6.992-1.47 14.9-1.805 17.575-.57 4.546-.486 4.796 1.285 3.847 1.042-.558 4.003-2.871 6.58-5.141zm28.814 8.431c-.685-.824-2.158-1.5-3.273-1.5-1.933 0-1.996-.406-1.355-8.75.37-4.812 1.934-15.274 3.477-23.25 2.213-11.44 2.601-15.304 1.84-18.312-.56-2.215-.593-4.15-.077-4.619 1.774-1.61 22.043-7.253 27.932-7.774l6.043-.535 1.834 4.066c1.009 2.237 1.603 4.654 1.32 5.37-.282.718-5.402 2.603-11.377 4.19-5.976 1.587-11.427 3.33-12.114 3.873-1.063.839-1.902 10.742-.91 10.742.187 0 3.873-.904 8.192-2.009 4.318-1.104 8.194-1.665 8.614-1.245.42.419.895 2.785 1.058 5.258l.296 4.495-10.166 3.463c-10.088 3.436-10.168 3.489-10.608 7-.243 1.946-.392 3.614-.33 3.709.062.094 3.933-.936 8.601-2.288 4.67-1.352 9.376-2.33 10.459-2.171 3 .438 4.396 9.788 1.462 9.788-.478 0-7.154 2.7-14.837 6s-14.164 6-14.403 6c-.238 0-.994-.675-1.678-1.5zm43.361-9c-.328-.855-1.82-1.5-3.468-1.5-2.827 0-2.893-.121-2.893-5.297 0-7.886 7.652-51.86 9.2-52.872 2.264-1.478 5.715-2.068 8.3-1.42 2.113.53 2.497 1.205 2.48 4.359-.024 4.156-2.577 31.355-3.558 37.9l-.63 4.202 7.2-2.436c9.372-3.17 11.787-3.147 13.032.13 1.463 3.847 1.181 6.428-.774 7.088-.963.324-7.287 3.01-14.054 5.968s-12.743 5.378-13.281 5.378c-.538 0-1.237-.675-1.554-1.5zm140.639-3.767c0-1.551 32.796-8.87 33.64-7.507.308.5.288 1.18-.044 1.512-.609.608-30.023 7.19-32.346 7.237a1.232 1.232 0 0 1-1.25-1.242zm-105.93-6.148c-1.827-2.2-.79-14.305 3.048-35.584 3.924-21.758 3.522-20.555 7.232-21.693 4.276-1.313 7.65.19 7.65 3.408 0 12.77-4.235 51.932-5.78 53.452-.396.39-2.99 1.008-5.764 1.372-3.997.526-5.322.328-6.386-.955zm28.57-8.334c-1.97-3.838-3.392-11.464-5.173-27.75-.842-7.7-1.795-15.666-2.119-17.701-.528-3.323-.337-3.764 1.877-4.32 1.356-.34 4.222-.475 6.37-.3 3.55.292 4.02.672 5.17 4.194.695 2.13 2.2 8.88 3.345 15 1.144 6.12 2.279 11.769 2.521 12.553.243.785 3.286-5.515 6.762-14 10.634-25.956 11.072-26.924 12.202-26.925.602 0 1.906.895 2.898 1.99 1.74 1.924 1.724 2.262-.468 9.75-3.167 10.823-13.771 39.79-16.66 45.509l-2.399 4.75h-6.457c-6.036 0-6.55-.18-7.87-2.75zm37.721-4.75c-.316-.825-1.493-1.5-2.615-1.5-1.922 0-2.004-.42-1.427-7.25.337-3.988 1.763-13.478 3.169-21.09 2-10.824 2.34-14.625 1.561-17.444-.547-1.982-.824-3.775-.616-3.983.96-.96 21.53-5.2 25.303-5.216 3.93-.016 4.346.244 5.75 3.605.833 1.992 1.514 4.157 1.514 4.81 0 .695-4.329 2.15-10.41 3.5l-10.408 2.31-.422 4.63c-.232 2.545-.286 4.902-.12 5.237.168.335 3.276-.058 6.91-.873 3.752-.842 6.974-1.105 7.461-.609.47.48.999 2.673 1.172 4.873l.317 4-8.657 2.406c-8.094 2.25-8.695 2.601-9.257 5.41-.33 1.651-.462 3.141-.292 3.31.169.17 3.974-.45 8.456-1.376 4.481-.927 8.345-1.475 8.585-1.218.24.257.744 2.333 1.12 4.614l.685 4.146-5.32 1.74c-2.926.958-8.595 3.03-12.596 4.605-8.384 3.298-9.083 3.395-9.863 1.363zm35.89-5.185c-1.376-.278-2.497-1.445-2.89-3.009-.912-3.637.186-19.102 2.18-30.691 1.592-9.253 1.593-10.11.026-13.397-.921-1.931-1.313-3.832-.87-4.224 2.123-1.883 16.768-6.233 21.211-6.3 5.945-.09 8.236 1.582 11.128 8.12 3.843 8.688 1.603 16.806-6.886 24.952l-4.933 4.734 4.142 3.127c2.277 1.72 5.153 3.74 6.39 4.49 1.238.75 2.25 1.644 2.25 1.987 0 .343-1.771 1.852-3.937 3.353-4.68 3.243-7.4 2.956-14.094-1.485-2.458-1.63-4.783-2.966-5.168-2.968-.385-.002-.835 2.583-1 5.746-.28 5.344-.477 5.759-2.8 5.884-1.375.074-3.512-.07-4.749-.32zM315.19 84.28c8.734-8.734 9.138-13.92.973-12.484-5.953 1.046-6.713 1.88-7.894 8.662-2.065 11.858-1.453 12.196 6.921 3.822zm24.353 26.417c-.36-.94-.359-5.638.004-10.441.645-8.543.581-8.902-2.934-16.51-1.976-4.277-4.094-10.164-4.706-13.082-.956-4.558-.872-5.672.595-7.91 1.354-2.068 2.51-2.606 5.59-2.606 3.883 0 3.885.001 6.838 7.25 1.624 3.987 3.256 8.112 3.625 9.165.528 1.505 2.325-.8 8.38-10.75 4.238-6.966 8.058-12.665 8.489-12.665.43 0 1.3 1.136 1.933 2.526 1.349 2.961.924 4.023-8.602 21.474-5.986 10.965-6.335 11.988-7.506 22-.676 5.775-1.592 10.873-2.036 11.328-.445.456-2.654 1.077-4.911 1.38-3.275.439-4.235.205-4.759-1.159zM16.162 97.187c0-1.298.75-1.48 55-13.432 66.913-14.742 65.921-14.543 66.632-13.392.856 1.385-1.143 2.454-6.02 3.22-2.262.354-28.43 6.027-58.153 12.605-29.722 6.578-54.81 11.96-55.75 11.96-.94 0-1.71-.432-1.71-.961zm136.25-15.757c-.71-.255-1.25-2.136-1.25-4.356 0-4.717 6.076-16.83 17.447-34.777l7.783-12.286-2.138-1.99c-2.455-2.288-1.956-3.875 1.217-3.868 1.205.003 7.945-1.17 14.978-2.606 10.815-2.207 13.245-2.42 15.75-1.383 3.491 1.446 3.948 3.992.713 3.968-1.238-.008-6.423.983-11.524 2.203l-9.273 2.218-7.081 10.86c-3.895 5.973-6.892 11.05-6.66 11.28.23.232 1.962-.021 3.847-.562 4.673-1.34 10.287-1.236 11.74.218 1.76 1.76 1.468 2.8-.787 2.8-1.094 0-6.17 1.339-11.28 2.976l-9.291 2.976-5.784 11.004c-6.095 11.597-6.422 12.037-8.407 11.325zM39.704 74.218a1.09 1.09 0 0 1 .344-1.5c.792-.488 83.94-17.57 85.53-17.57.321 0 .584.675.584 1.5s-.298 1.5-.663 1.5c-.364 0-19.52 3.825-42.57 8.5-23.05 4.676-42.074 8.5-42.278 8.5-.204 0-.63-.418-.947-.93zm151.113-3.898c-4.056-4.482.107-15.143 9.589-24.554 9.337-9.268 18.175-12.44 20.83-7.478 1.125 2.101 1.183 2.082 3.151-1.026 1.593-2.516 2.29-2.931 3.39-2.018 2.417 2.007 1.506 5.134-4.632 15.889-6.641 11.637-7.433 15.016-3.517 15.016 3.763 0 9.534-6.261 9.534-10.343 0-1.801.666-4.149 1.48-5.216 1.265-1.657 1.623-1.726 2.446-.47.53.809 1.14 1.259 1.353 1 2.848-3.457 9.546-14.165 10.284-16.44.949-2.926 5.718-6.584 6.961-5.34.35.35.095 1.651-.569 2.891-.856 1.6-1.006 5.238-.517 12.533.458 6.833.32 10.967-.41 12.332-.604 1.129-.721 2.053-.26 2.053 1.429 0 7.232-6.51 7.232-8.111 0-.834 2.025-5.484 4.5-10.335 2.475-4.85 4.5-9.21 4.5-9.687 0-.477-.874-.867-1.941-.867-1.068 0-2.19-.403-2.495-.896-.664-1.075 1.73-2.104 4.895-2.104 1.713 0 3.144-1.399 5.63-5.5 1.833-3.025 3.747-5.5 4.252-5.5.505 0 .694 1.99.42 4.424-.452 4.014-.279 4.48 1.87 5.02 3.344.838 2.946 2.556-.592 2.556-1.648 0-3.755.86-4.75 1.937-2.583 2.798-10.97 19.008-11.74 22.689-.78 3.732 1.361 6.471 4.432 5.668 2.273-.594 7.618-6.32 9.257-9.918 1.375-3.019 3.127-3.12 2.198-.127-2.66 8.565-13.611 14.617-18.479 10.212-1.545-1.398-2.171-1.246-6.863 1.67-6.276 3.902-14.104 4.95-18.81 2.516-2.867-1.483-3.148-1.455-4.91.492-4.593 5.075-14.299 6.738-16.4 2.811-1.073-2.003-1.179-1.978-4.647 1.067-6.017 5.283-13.47 6.693-16.672 3.154zm11.727-2.103c5.746-3.561 16.618-20.315 16.618-25.611 0-5.094-3.717-3.816-11.222 3.858-8.059 8.239-13.306 19.14-10.715 22.26 1.503 1.811 1.59 1.803 5.319-.507zm40.451-7.368c1.622-1.954 2.303-8.598 1.437-14.015l-.77-4.814-4.5 6.78c-2.475 3.729-4.625 7.056-4.777 7.395-.153.338.668 1.816 1.822 3.284 2.267 2.883 5.065 3.447 6.788 1.37zM132.41 54.904c.522-1.566 17.9-4.895 19.185-3.675 1.448 1.375.515 1.772-7.998 3.4-9.641 1.846-11.728 1.897-11.187.275zm-38.248-3.256c0-.825.22-1.5.49-1.5s14.557-2.473 31.75-5.497c32.632-5.738 35.76-6.134 35.76-4.522 0 .54-1.013 1.215-2.25 1.5-2.538.586-64.472 11.52-65.25 11.52-.275 0-.5-.676-.5-1.5z" fill="#e40000"/></svg>